M48
;DRILL file {KiCad (5.0.2)-1} date 6/25/2020 12:03:05 PM
;FORMAT={-:-/ absolute / inch / decimal}
FMAT,2
INCH,TZ
T1C0.0130
T2C0.0197
T3C0.0400
T4C0.1300
%
G90
G05
T1
X3.425Y-5.4295
X3.65Y-3.9
X3.7Y-3.975
X3.725Y-3.7
X3.7343Y-4.0074
X3.75Y-3.2591
X3.775Y-3.675
X3.8Y-3.2591
X3.8247Y-3.9
X3.85Y-3.2591
X3.85Y-4.8
X3.85Y-4.8
X3.85Y-4.8
X3.85Y-4.85
X3.85Y-4.85
X3.8565Y-4.075
X3.875Y-4.6741
X3.875Y-4.825
X3.875Y-4.825
X3.975Y-4.0222
X4.Y-4.0537
X4.025Y-4.0222
X4.075Y-4.0222
X4.2Y-5.
X4.2Y-5.0414
X4.2Y-5.075
X4.25Y-4.65
X4.275Y-4.85
X4.325Y-3.925
X4.325Y-4.65
X4.325Y-5.325
X4.35Y-4.35
X4.35Y-5.3
X4.3616Y-4.7384
X4.375Y-5.275
X4.4Y-4.35
X4.425Y-3.75
X4.45Y-4.35
X4.475Y-3.75
X4.525Y-3.1
X4.525Y-3.75
X4.55Y-3.125
X4.575Y-3.15
T2
X4.395Y-2.925
X4.415Y-2.865
X4.415Y-2.985
X4.475Y-2.845
X4.475Y-3.005
X4.535Y-2.865
X4.535Y-2.985
X4.555Y-2.925
X3.345Y-2.925
X3.365Y-2.865
X3.365Y-2.985
X3.425Y-2.845
X3.425Y-3.005
X3.485Y-2.865
X3.485Y-2.985
X3.505Y-2.925
X3.345Y-6.175
X3.365Y-6.115
X3.365Y-6.235
X3.425Y-6.095
X3.425Y-6.255
X3.485Y-6.115
X3.485Y-6.235
X3.505Y-6.175
X4.395Y-6.175
X4.415Y-6.115
X4.415Y-6.235
X4.475Y-6.095
X4.475Y-6.255
X4.535Y-6.115
X4.535Y-6.235
X4.555Y-6.175
T3
X4.45Y-3.15
X4.45Y-3.25
X4.45Y-3.35
X4.45Y-3.45
X4.45Y-3.55
X4.45Y-3.65
X4.35Y-5.95
X4.45Y-5.95
X3.725Y-5.95
X3.825Y-5.95
X3.925Y-5.95
X4.45Y-4.675
X4.45Y-4.775
X4.45Y-4.875
X4.45Y-4.975
X4.075Y-3.15
X4.075Y-3.25
X4.175Y-3.15
X4.175Y-3.25
X4.275Y-3.15
X4.275Y-3.25
T4
X3.425Y-2.925
X3.425Y-6.175
X4.475Y-6.175
X4.475Y-2.925
T0
M30
