G04 #@! TF.GenerationSoftware,KiCad,Pcbnew,(5.0.2)-1*
G04 #@! TF.CreationDate,2020-06-25T12:03:09-05:00*
G04 #@! TF.ProjectId,ProximityMother_V1,50726f78-696d-4697-9479-4d6f74686572,V1*
G04 #@! TF.SameCoordinates,Original*
G04 #@! TF.FileFunction,Copper,L2,Bot*
G04 #@! TF.FilePolarity,Positive*
%FSLAX46Y46*%
G04 Gerber Fmt 4.6, Leading zero omitted, Abs format (unit mm)*
G04 Created by KiCad (PCBNEW (5.0.2)-1) date 6/25/2020 12:03:09 PM*
%MOMM*%
%LPD*%
G01*
G04 APERTURE LIST*
G04 #@! TA.AperFunction,NonConductor*
%ADD10C,0.025400*%
G04 #@! TD*
G04 #@! TA.AperFunction,ComponentPad*
%ADD11C,1.879600*%
G04 #@! TD*
G04 #@! TA.AperFunction,ComponentPad*
%ADD12C,0.500000*%
G04 #@! TD*
G04 #@! TA.AperFunction,ComponentPad*
%ADD13C,5.200000*%
G04 #@! TD*
G04 #@! TA.AperFunction,ViaPad*
%ADD14C,0.685800*%
G04 #@! TD*
G04 #@! TA.AperFunction,Conductor*
%ADD15C,0.508000*%
G04 #@! TD*
G04 #@! TA.AperFunction,Conductor*
%ADD16C,0.254000*%
G04 #@! TD*
G04 APERTURE END LIST*
D10*
X83820000Y-160020000D02*
X83820000Y-71120000D01*
X116840000Y-160020000D02*
X83820000Y-160020000D01*
X116840000Y-71120000D02*
X116840000Y-160020000D01*
X83820000Y-71120000D02*
X116840000Y-71120000D01*
D11*
G04 #@! TO.P,ICSP1,6*
G04 #@! TO.N,GND*
X103505000Y-82550000D03*
G04 #@! TO.P,ICSP1,5*
G04 #@! TO.N,RESET*
X103505000Y-80010000D03*
G04 #@! TO.P,ICSP1,4*
G04 #@! TO.N,MOSI*
X106045000Y-82550000D03*
G04 #@! TO.P,ICSP1,3*
G04 #@! TO.N,SCK*
X106045000Y-80010000D03*
G04 #@! TO.P,ICSP1,2*
G04 #@! TO.N,+3V3*
X108585000Y-82550000D03*
G04 #@! TO.P,ICSP1,1*
G04 #@! TO.N,MISO*
X108585000Y-80010000D03*
G04 #@! TD*
D12*
G04 #@! TO.P,H1,1*
G04 #@! TO.N,Net-(H1-Pad1)*
X85471000Y-75819000D03*
X85471000Y-72771000D03*
X88519000Y-72771000D03*
X88519000Y-75819000D03*
X86995000Y-76327000D03*
X86995000Y-72263000D03*
X84963000Y-74295000D03*
X89027000Y-74295000D03*
D13*
X86995000Y-74295000D03*
G04 #@! TD*
G04 #@! TO.P,H2,1*
G04 #@! TO.N,Net-(H2-Pad1)*
X113665000Y-74295000D03*
D12*
X115697000Y-74295000D03*
X111633000Y-74295000D03*
X113665000Y-72263000D03*
X113665000Y-76327000D03*
X115189000Y-75819000D03*
X115189000Y-72771000D03*
X112141000Y-72771000D03*
X112141000Y-75819000D03*
G04 #@! TD*
D13*
G04 #@! TO.P,H3,1*
G04 #@! TO.N,Net-(H3-Pad1)*
X113665000Y-156845000D03*
D12*
X115697000Y-156845000D03*
X111633000Y-156845000D03*
X113665000Y-154813000D03*
X113665000Y-158877000D03*
X115189000Y-158369000D03*
X115189000Y-155321000D03*
X112141000Y-155321000D03*
X112141000Y-158369000D03*
G04 #@! TD*
G04 #@! TO.P,H4,1*
G04 #@! TO.N,Net-(H4-Pad1)*
X85471000Y-158369000D03*
X85471000Y-155321000D03*
X88519000Y-155321000D03*
X88519000Y-158369000D03*
X86995000Y-158877000D03*
X86995000Y-154813000D03*
X84963000Y-156845000D03*
X89027000Y-156845000D03*
D13*
X86995000Y-156845000D03*
G04 #@! TD*
D11*
G04 #@! TO.P,J1,1*
G04 #@! TO.N,VIN*
X110490000Y-151130000D03*
G04 #@! TO.P,J1,2*
G04 #@! TO.N,GND*
X113030000Y-151130000D03*
G04 #@! TD*
G04 #@! TO.P,J2,1*
G04 #@! TO.N,LC1_INA*
X113030000Y-126365000D03*
G04 #@! TO.P,J2,2*
G04 #@! TO.N,LC1_INB*
X113030000Y-123825000D03*
G04 #@! TO.P,J2,3*
G04 #@! TO.N,LC2_INA*
X113030000Y-121285000D03*
G04 #@! TO.P,J2,4*
G04 #@! TO.N,LC2_INB*
X113030000Y-118745000D03*
G04 #@! TD*
G04 #@! TO.P,J3,CTS*
G04 #@! TO.N,GND*
X113030000Y-82550000D03*
G04 #@! TO.P,J3,DTR*
G04 #@! TO.N,DTR*
X113030000Y-92710000D03*
G04 #@! TO.P,J3,GND*
G04 #@! TO.N,GND*
X113030000Y-80010000D03*
G04 #@! TO.P,J3,RXI*
G04 #@! TO.N,/ATMEGA328P MCU\002C CLK Gen\002C LDC/TXO*
X113030000Y-90170000D03*
G04 #@! TO.P,J3,TXO*
G04 #@! TO.N,/ATMEGA328P MCU\002C CLK Gen\002C LDC/RXI*
X113030000Y-87630000D03*
G04 #@! TO.P,J3,VCC*
G04 #@! TO.N,+3V3*
X113030000Y-85090000D03*
G04 #@! TD*
G04 #@! TO.P,S1,1*
G04 #@! TO.N,/Power\002C Mux/Demux\002C Connectors/VIN_LDO*
X94615000Y-151130000D03*
G04 #@! TO.P,S1,2*
G04 #@! TO.N,Net-(D1-Pad1)*
X97155000Y-151130000D03*
G04 #@! TO.P,S1,3*
G04 #@! TO.N,Net-(S1-Pad3)*
X99695000Y-151130000D03*
G04 #@! TD*
D14*
G04 #@! TO.N,GND*
X95250000Y-82780000D03*
X96520000Y-82780000D03*
X97790000Y-82780000D03*
X103505000Y-102163880D03*
X100965000Y-102163880D03*
X112395000Y-95250000D03*
X113665000Y-95250000D03*
X114935000Y-95250000D03*
X102235000Y-102163880D03*
G04 #@! TO.N,+3V3*
X116205000Y-80010000D03*
X115570000Y-79375000D03*
X114935000Y-78740000D03*
X109855000Y-135255000D03*
X110490000Y-134620000D03*
X111125000Y-133985000D03*
X113030000Y-110490000D03*
X111760000Y-110490000D03*
X110490000Y-110490000D03*
X108585000Y-123190000D03*
X106680000Y-128905000D03*
X106680000Y-128052500D03*
X106680000Y-127000000D03*
G04 #@! TO.N,MISO*
X98425000Y-118721700D03*
X95885000Y-93345000D03*
G04 #@! TO.N,SCK*
X92710000Y-99060000D03*
X97790000Y-121920000D03*
X97790000Y-121920000D03*
X97790000Y-121920000D03*
G04 #@! TO.N,MOSI*
X98425000Y-122555000D03*
X98425000Y-122555000D03*
X94615000Y-93980000D03*
G04 #@! TO.N,/ATMEGA328P MCU\002C CLK Gen\002C LDC/TXO*
X97954800Y-103505000D03*
G04 #@! TO.N,CTRL_MUX12*
X107950000Y-118110000D03*
X97147380Y-99060000D03*
X110785000Y-120355000D03*
X109855000Y-118110000D03*
G04 #@! TO.N,/ATMEGA328P MCU\002C CLK Gen\002C LDC/PROX_SENSED*
X101600000Y-102963980D03*
X109855000Y-99695000D03*
G04 #@! TO.N,/ATMEGA328P MCU\002C CLK Gen\002C LDC/LOW_BATT*
X93980000Y-100965000D03*
X86995000Y-137909400D03*
G04 #@! TO.N,CSB_LDC*
X94851200Y-101787300D03*
X97790000Y-123190000D03*
X97790000Y-123190000D03*
G04 #@! TD*
D15*
G04 #@! TO.N,GND*
X97790000Y-82780000D02*
X95250000Y-82780000D01*
X96520000Y-82780000D02*
X96520000Y-78740000D01*
X96520000Y-78740000D02*
X98425000Y-76835000D01*
X113030000Y-78740000D02*
X113030000Y-80010000D01*
X113030000Y-78740000D02*
X111125000Y-76835000D01*
X111125000Y-76835000D02*
X109855000Y-76835000D01*
X98425000Y-76835000D02*
X109855000Y-76835000D01*
X109855000Y-76835000D02*
X110490000Y-76835000D01*
X105481120Y-102163880D02*
X112395000Y-95250000D01*
X112395000Y-95250000D02*
X112395000Y-95250000D01*
X112395000Y-95250000D02*
X114935000Y-95250000D01*
X105481120Y-102163880D02*
X100965000Y-102163880D01*
G04 #@! TO.N,+3V3*
X114935000Y-78740000D02*
X116205000Y-80010000D01*
X116205000Y-128905000D02*
X111125000Y-133985000D01*
X111125000Y-133985000D02*
X111125000Y-133985000D01*
X111125000Y-133985000D02*
X110490000Y-134620000D01*
X109855000Y-135255000D02*
X109855000Y-135255000D01*
X110490000Y-134620000D02*
X109855000Y-135255000D01*
X111125000Y-133985000D02*
X111125000Y-133985000D01*
X110490000Y-110490000D02*
X116205000Y-110490000D01*
X116205000Y-80010000D02*
X116205000Y-110490000D01*
X116205000Y-110490000D02*
X116205000Y-128905000D01*
X106680000Y-125095000D02*
X108585000Y-123190000D01*
X106680000Y-127000000D02*
X106680000Y-125095000D01*
X106680000Y-127000000D02*
X106680000Y-128905000D01*
D16*
G04 #@! TO.N,MISO*
X98425000Y-118721700D02*
X96925110Y-117221810D01*
X96925110Y-115332090D02*
X96925400Y-115331800D01*
X96925110Y-117221810D02*
X96925110Y-115332090D01*
X95885000Y-99924600D02*
X96925400Y-100965000D01*
X95885000Y-93345000D02*
X95885000Y-99924600D01*
X96925400Y-115331800D02*
X96925400Y-100965000D01*
X107315000Y-81280000D02*
X108585000Y-80010000D01*
X107315000Y-83820000D02*
X107315000Y-81280000D01*
X105410000Y-85725000D02*
X107315000Y-83820000D01*
X102870000Y-85725000D02*
X105410000Y-85725000D01*
X95885000Y-93345000D02*
X95885000Y-92710000D01*
X95885000Y-92710000D02*
X102870000Y-85725000D01*
G04 #@! TO.N,SCK*
X104775000Y-81280000D02*
X106045000Y-80010000D01*
X102999800Y-81280000D02*
X104775000Y-81280000D01*
X95885000Y-119380000D02*
X96520000Y-120015000D01*
X96520000Y-120015000D02*
X96095700Y-119590700D01*
X97790000Y-121285000D02*
X96520000Y-120015000D01*
X92710000Y-99060000D02*
X93345000Y-99695000D01*
X93345000Y-99695000D02*
X93980000Y-99695000D01*
X93980000Y-99695000D02*
X95885000Y-101600000D01*
X95885000Y-101600000D02*
X95885000Y-119380000D01*
X92710000Y-91569800D02*
X92710000Y-99060000D01*
X102999800Y-81280000D02*
X92710000Y-91569800D01*
X97790000Y-121285000D02*
X97790000Y-121920000D01*
G04 #@! TO.N,MOSI*
X94615000Y-93980000D02*
X94615000Y-99695000D01*
X94615000Y-99695000D02*
X96518990Y-101598990D01*
X96518990Y-101598990D02*
X96518990Y-101601010D01*
X94615000Y-92075000D02*
X94615000Y-93980000D01*
X102235000Y-84455000D02*
X94615000Y-92075000D01*
X106045000Y-82550000D02*
X104140000Y-84455000D01*
X104140000Y-84455000D02*
X102235000Y-84455000D01*
X98425000Y-121920000D02*
X98425000Y-122555000D01*
X98425000Y-120650000D02*
X98425000Y-121920000D01*
X96518701Y-101601299D02*
X96518701Y-118743701D01*
X96518701Y-118743701D02*
X98425000Y-120650000D01*
G04 #@! TO.N,/ATMEGA328P MCU\002C CLK Gen\002C LDC/TXO*
X113030000Y-90170000D02*
X111760000Y-90170000D01*
X111289800Y-90170000D02*
X113030000Y-90170000D01*
X97954800Y-103505000D02*
X111289800Y-90170000D01*
G04 #@! TO.N,CTRL_MUX12*
X97332499Y-108127499D02*
X97790000Y-108585000D01*
X107315000Y-118110000D02*
X97790000Y-108585000D01*
X97790000Y-108585000D02*
X97332100Y-108127100D01*
X97332499Y-99730052D02*
X97332499Y-100965000D01*
X97147380Y-99544933D02*
X97332499Y-99730052D01*
X97147380Y-99060000D02*
X97147380Y-99544933D01*
X97332499Y-99770334D02*
X97332499Y-100965000D01*
X97332499Y-100965000D02*
X97332499Y-108127499D01*
X110785000Y-120355000D02*
X110785000Y-119040000D01*
X109855000Y-118110000D02*
X109855000Y-118110000D01*
X107315000Y-118110000D02*
X109855000Y-118110000D01*
X109855000Y-118110000D02*
X110785000Y-119040000D01*
G04 #@! TO.N,/ATMEGA328P MCU\002C CLK Gen\002C LDC/PROX_SENSED*
X106586020Y-102963980D02*
X109855000Y-99695000D01*
X101600000Y-102963980D02*
X102235000Y-102963980D01*
X102141020Y-102963980D02*
X102235000Y-102963980D01*
X102235000Y-102963980D02*
X106586020Y-102963980D01*
G04 #@! TO.N,/ATMEGA328P MCU\002C CLK Gen\002C LDC/LOW_BATT*
X86995000Y-137909400D02*
X88490500Y-136413900D01*
X93980000Y-100965000D02*
X93980000Y-102235000D01*
X88490500Y-107724500D02*
X88490500Y-108585000D01*
X93980000Y-102235000D02*
X88490500Y-107724500D01*
X88490500Y-136413900D02*
X88490500Y-108585000D01*
G04 #@! TO.N,CSB_LDC*
X94851200Y-119616200D02*
X94851200Y-117475000D01*
X94851200Y-101787300D02*
X94851200Y-117475000D01*
X94851200Y-117475000D02*
X94851200Y-118140700D01*
X94851200Y-120251200D02*
X94851200Y-119616200D01*
X97790000Y-123190000D02*
X94851200Y-120251200D01*
G04 #@! TD*
G04 #@! TO.N,GND*
G36*
X110922500Y-72462520D02*
X110430000Y-73651519D01*
X110430000Y-74938481D01*
X110922500Y-76127480D01*
X111832520Y-77037500D01*
X113021519Y-77530000D01*
X114308481Y-77530000D01*
X115497480Y-77037500D01*
X116078000Y-76456980D01*
X116078000Y-78526950D01*
X115909312Y-78457077D01*
X115852923Y-78400688D01*
X115764023Y-78186064D01*
X115488936Y-77910977D01*
X115129516Y-77762100D01*
X114740484Y-77762100D01*
X114381064Y-77910977D01*
X114105977Y-78186064D01*
X113957100Y-78545484D01*
X113957100Y-78894571D01*
X113868077Y-78640420D01*
X113280167Y-78423955D01*
X112654172Y-78448951D01*
X112191923Y-78640420D01*
X112100637Y-78901032D01*
X113030000Y-79830395D01*
X113044143Y-79816253D01*
X113223748Y-79995858D01*
X113209605Y-80010000D01*
X114138968Y-80939363D01*
X114399580Y-80848077D01*
X114616045Y-80260167D01*
X114591935Y-79656369D01*
X114595688Y-79657923D01*
X114652077Y-79714312D01*
X114740977Y-79928936D01*
X115016064Y-80204023D01*
X115230687Y-80292923D01*
X115287077Y-80349313D01*
X115316000Y-80419139D01*
X115316001Y-109601000D01*
X113439139Y-109601000D01*
X113224516Y-109512100D01*
X112835484Y-109512100D01*
X112620861Y-109601000D01*
X112169139Y-109601000D01*
X111954516Y-109512100D01*
X111565484Y-109512100D01*
X111350861Y-109601000D01*
X110899139Y-109601000D01*
X110684516Y-109512100D01*
X110295484Y-109512100D01*
X109936064Y-109660977D01*
X109660977Y-109936064D01*
X109512100Y-110295484D01*
X109512100Y-110684516D01*
X109660977Y-111043936D01*
X109936064Y-111319023D01*
X110295484Y-111467900D01*
X110684516Y-111467900D01*
X110899139Y-111379000D01*
X111350861Y-111379000D01*
X111565484Y-111467900D01*
X111954516Y-111467900D01*
X112169139Y-111379000D01*
X112620861Y-111379000D01*
X112835484Y-111467900D01*
X113224516Y-111467900D01*
X113439139Y-111379000D01*
X115316000Y-111379000D01*
X115316001Y-128536763D01*
X110785689Y-133067076D01*
X110571064Y-133155977D01*
X110295977Y-133431064D01*
X110207077Y-133645688D01*
X110150688Y-133702077D01*
X109936064Y-133790977D01*
X109660977Y-134066064D01*
X109572077Y-134280688D01*
X109515688Y-134337077D01*
X109301064Y-134425977D01*
X109025977Y-134701064D01*
X108877100Y-135060484D01*
X108877100Y-135449516D01*
X109025977Y-135808936D01*
X109301064Y-136084023D01*
X109660484Y-136232900D01*
X110049516Y-136232900D01*
X110408936Y-136084023D01*
X110684023Y-135808936D01*
X110772923Y-135594312D01*
X110829312Y-135537923D01*
X111043936Y-135449023D01*
X111319023Y-135173936D01*
X111407923Y-134959312D01*
X111464312Y-134902923D01*
X111678936Y-134814023D01*
X111954023Y-134538936D01*
X112042924Y-134324311D01*
X116078000Y-130289236D01*
X116078000Y-154683020D01*
X115497480Y-154102500D01*
X114308481Y-153610000D01*
X113021519Y-153610000D01*
X111832520Y-154102500D01*
X110922500Y-155012520D01*
X110430000Y-156201519D01*
X110430000Y-157488481D01*
X110922500Y-158677480D01*
X111503020Y-159258000D01*
X89156980Y-159258000D01*
X89737500Y-158677480D01*
X90230000Y-157488481D01*
X90230000Y-156201519D01*
X89737500Y-155012520D01*
X88827480Y-154102500D01*
X87638481Y-153610000D01*
X86351519Y-153610000D01*
X85162520Y-154102500D01*
X84582000Y-154683020D01*
X84582000Y-150816753D01*
X93040200Y-150816753D01*
X93040200Y-151443247D01*
X93279949Y-152022052D01*
X93722948Y-152465051D01*
X94301753Y-152704800D01*
X94928247Y-152704800D01*
X95507052Y-152465051D01*
X95885000Y-152087103D01*
X96262948Y-152465051D01*
X96841753Y-152704800D01*
X97468247Y-152704800D01*
X98047052Y-152465051D01*
X98425000Y-152087103D01*
X98802948Y-152465051D01*
X99381753Y-152704800D01*
X100008247Y-152704800D01*
X100587052Y-152465051D01*
X101030051Y-152022052D01*
X101269800Y-151443247D01*
X101269800Y-150816753D01*
X108915200Y-150816753D01*
X108915200Y-151443247D01*
X109154949Y-152022052D01*
X109597948Y-152465051D01*
X110176753Y-152704800D01*
X110803247Y-152704800D01*
X111382052Y-152465051D01*
X111608135Y-152238968D01*
X112100637Y-152238968D01*
X112191923Y-152499580D01*
X112779833Y-152716045D01*
X113405828Y-152691049D01*
X113868077Y-152499580D01*
X113959363Y-152238968D01*
X113030000Y-151309605D01*
X112100637Y-152238968D01*
X111608135Y-152238968D01*
X111822317Y-152024786D01*
X111921032Y-152059363D01*
X112850395Y-151130000D01*
X113209605Y-151130000D01*
X114138968Y-152059363D01*
X114399580Y-151968077D01*
X114616045Y-151380167D01*
X114591049Y-150754172D01*
X114399580Y-150291923D01*
X114138968Y-150200637D01*
X113209605Y-151130000D01*
X112850395Y-151130000D01*
X111921032Y-150200637D01*
X111822317Y-150235214D01*
X111608135Y-150021032D01*
X112100637Y-150021032D01*
X113030000Y-150950395D01*
X113959363Y-150021032D01*
X113868077Y-149760420D01*
X113280167Y-149543955D01*
X112654172Y-149568951D01*
X112191923Y-149760420D01*
X112100637Y-150021032D01*
X111608135Y-150021032D01*
X111382052Y-149794949D01*
X110803247Y-149555200D01*
X110176753Y-149555200D01*
X109597948Y-149794949D01*
X109154949Y-150237948D01*
X108915200Y-150816753D01*
X101269800Y-150816753D01*
X101030051Y-150237948D01*
X100587052Y-149794949D01*
X100008247Y-149555200D01*
X99381753Y-149555200D01*
X98802948Y-149794949D01*
X98425000Y-150172897D01*
X98047052Y-149794949D01*
X97468247Y-149555200D01*
X96841753Y-149555200D01*
X96262948Y-149794949D01*
X95885000Y-150172897D01*
X95507052Y-149794949D01*
X94928247Y-149555200D01*
X94301753Y-149555200D01*
X93722948Y-149794949D01*
X93279949Y-150237948D01*
X93040200Y-150816753D01*
X84582000Y-150816753D01*
X84582000Y-137714884D01*
X86017100Y-137714884D01*
X86017100Y-138103916D01*
X86165977Y-138463336D01*
X86441064Y-138738423D01*
X86800484Y-138887300D01*
X87189516Y-138887300D01*
X87548936Y-138738423D01*
X87824023Y-138463336D01*
X87972900Y-138103916D01*
X87972900Y-138009130D01*
X88976250Y-137005781D01*
X89039871Y-136963271D01*
X89208288Y-136711217D01*
X89252500Y-136488948D01*
X89252500Y-136488944D01*
X89267427Y-136413901D01*
X89252500Y-136338858D01*
X89252500Y-126805484D01*
X105702100Y-126805484D01*
X105702100Y-127194516D01*
X105791000Y-127409140D01*
X105791000Y-127643360D01*
X105702100Y-127857984D01*
X105702100Y-128247016D01*
X105791001Y-128461641D01*
X105791001Y-128495859D01*
X105702100Y-128710484D01*
X105702100Y-129099516D01*
X105850977Y-129458936D01*
X106126064Y-129734023D01*
X106485484Y-129882900D01*
X106874516Y-129882900D01*
X107233936Y-129734023D01*
X107509023Y-129458936D01*
X107657900Y-129099516D01*
X107657900Y-128710484D01*
X107569000Y-128495861D01*
X107569000Y-128461639D01*
X107657900Y-128247016D01*
X107657900Y-127857984D01*
X107569000Y-127643361D01*
X107569000Y-127409139D01*
X107657900Y-127194516D01*
X107657900Y-126805484D01*
X107569000Y-126590861D01*
X107569000Y-125463235D01*
X108924313Y-124107923D01*
X109138936Y-124019023D01*
X109414023Y-123743936D01*
X109562900Y-123384516D01*
X109562900Y-122995484D01*
X109414023Y-122636064D01*
X109138936Y-122360977D01*
X108779516Y-122212100D01*
X108390484Y-122212100D01*
X108031064Y-122360977D01*
X107755977Y-122636064D01*
X107667077Y-122850687D01*
X106113294Y-124404471D01*
X106039068Y-124454067D01*
X105989472Y-124528293D01*
X105989471Y-124528294D01*
X105842582Y-124748130D01*
X105773584Y-125095000D01*
X105791001Y-125182559D01*
X105791000Y-126590860D01*
X105702100Y-126805484D01*
X89252500Y-126805484D01*
X89252500Y-108040130D01*
X94089200Y-103203431D01*
X94089201Y-117399948D01*
X94089200Y-117399953D01*
X94089200Y-118215748D01*
X94089201Y-118215751D01*
X94089200Y-119541152D01*
X94089200Y-120176157D01*
X94074273Y-120251200D01*
X94089200Y-120326243D01*
X94089200Y-120326247D01*
X94133412Y-120548516D01*
X94301829Y-120800571D01*
X94365453Y-120843083D01*
X96812100Y-123289731D01*
X96812100Y-123384516D01*
X96960977Y-123743936D01*
X97236064Y-124019023D01*
X97595484Y-124167900D01*
X97984516Y-124167900D01*
X98343936Y-124019023D01*
X98619023Y-123743936D01*
X98724439Y-123489439D01*
X98978936Y-123384023D01*
X99254023Y-123108936D01*
X99402900Y-122749516D01*
X99402900Y-122360484D01*
X99254023Y-122001064D01*
X99187000Y-121934041D01*
X99187000Y-120725043D01*
X99201927Y-120650000D01*
X99187000Y-120574957D01*
X99187000Y-120574952D01*
X99142788Y-120352683D01*
X98974371Y-120100629D01*
X98910750Y-120058119D01*
X98552231Y-119699600D01*
X98619516Y-119699600D01*
X98978936Y-119550723D01*
X99254023Y-119275636D01*
X99402900Y-118916216D01*
X99402900Y-118527184D01*
X99254023Y-118167764D01*
X98978936Y-117892677D01*
X98619516Y-117743800D01*
X98524731Y-117743800D01*
X97687110Y-116906180D01*
X97687110Y-115408306D01*
X97687400Y-115406848D01*
X97687400Y-115406844D01*
X97702327Y-115331801D01*
X97687400Y-115256758D01*
X97687400Y-109560030D01*
X106723117Y-118595748D01*
X106765629Y-118659371D01*
X106829251Y-118701882D01*
X107017681Y-118827787D01*
X107017682Y-118827787D01*
X107017683Y-118827788D01*
X107239952Y-118872000D01*
X107239956Y-118872000D01*
X107314999Y-118886927D01*
X107339162Y-118882121D01*
X107396064Y-118939023D01*
X107755484Y-119087900D01*
X108144516Y-119087900D01*
X108503936Y-118939023D01*
X108570959Y-118872000D01*
X109234041Y-118872000D01*
X109301064Y-118939023D01*
X109660484Y-119087900D01*
X109755270Y-119087900D01*
X110023001Y-119355631D01*
X110023000Y-119734041D01*
X109955977Y-119801064D01*
X109807100Y-120160484D01*
X109807100Y-120549516D01*
X109955977Y-120908936D01*
X110231064Y-121184023D01*
X110590484Y-121332900D01*
X110979516Y-121332900D01*
X111338936Y-121184023D01*
X111455200Y-121067759D01*
X111455200Y-121598247D01*
X111694949Y-122177052D01*
X112072897Y-122555000D01*
X111694949Y-122932948D01*
X111455200Y-123511753D01*
X111455200Y-124138247D01*
X111694949Y-124717052D01*
X112072897Y-125095000D01*
X111694949Y-125472948D01*
X111455200Y-126051753D01*
X111455200Y-126678247D01*
X111694949Y-127257052D01*
X112137948Y-127700051D01*
X112716753Y-127939800D01*
X113343247Y-127939800D01*
X113922052Y-127700051D01*
X114365051Y-127257052D01*
X114604800Y-126678247D01*
X114604800Y-126051753D01*
X114365051Y-125472948D01*
X113987103Y-125095000D01*
X114365051Y-124717052D01*
X114604800Y-124138247D01*
X114604800Y-123511753D01*
X114365051Y-122932948D01*
X113987103Y-122555000D01*
X114365051Y-122177052D01*
X114604800Y-121598247D01*
X114604800Y-120971753D01*
X114365051Y-120392948D01*
X113987103Y-120015000D01*
X114365051Y-119637052D01*
X114604800Y-119058247D01*
X114604800Y-118431753D01*
X114365051Y-117852948D01*
X113922052Y-117409949D01*
X113343247Y-117170200D01*
X112716753Y-117170200D01*
X112137948Y-117409949D01*
X111694949Y-117852948D01*
X111455200Y-118431753D01*
X111455200Y-118671462D01*
X111334371Y-118490629D01*
X111270749Y-118448118D01*
X110832900Y-118010270D01*
X110832900Y-117915484D01*
X110684023Y-117556064D01*
X110408936Y-117280977D01*
X110049516Y-117132100D01*
X109660484Y-117132100D01*
X109301064Y-117280977D01*
X109234041Y-117348000D01*
X108570959Y-117348000D01*
X108503936Y-117280977D01*
X108144516Y-117132100D01*
X107755484Y-117132100D01*
X107514535Y-117231904D01*
X98275748Y-107993118D01*
X98094499Y-107811869D01*
X98094499Y-104482900D01*
X98149316Y-104482900D01*
X98508736Y-104334023D01*
X98783823Y-104058936D01*
X98932700Y-103699516D01*
X98932700Y-103604730D01*
X99767966Y-102769464D01*
X100622100Y-102769464D01*
X100622100Y-103158496D01*
X100770977Y-103517916D01*
X101046064Y-103793003D01*
X101405484Y-103941880D01*
X101794516Y-103941880D01*
X102153936Y-103793003D01*
X102220959Y-103725980D01*
X106510977Y-103725980D01*
X106586020Y-103740907D01*
X106661063Y-103725980D01*
X106661068Y-103725980D01*
X106883337Y-103681768D01*
X107135391Y-103513351D01*
X107177903Y-103449727D01*
X109954731Y-100672900D01*
X110049516Y-100672900D01*
X110408936Y-100524023D01*
X110684023Y-100248936D01*
X110832900Y-99889516D01*
X110832900Y-99500484D01*
X110684023Y-99141064D01*
X110408936Y-98865977D01*
X110049516Y-98717100D01*
X109660484Y-98717100D01*
X109301064Y-98865977D01*
X109025977Y-99141064D01*
X108877100Y-99500484D01*
X108877100Y-99595269D01*
X106270390Y-102201980D01*
X102220959Y-102201980D01*
X102153936Y-102134957D01*
X101794516Y-101986080D01*
X101405484Y-101986080D01*
X101046064Y-102134957D01*
X100770977Y-102410044D01*
X100622100Y-102769464D01*
X99767966Y-102769464D01*
X111605431Y-90932000D01*
X111641080Y-90932000D01*
X111694949Y-91062052D01*
X112072897Y-91440000D01*
X111694949Y-91817948D01*
X111455200Y-92396753D01*
X111455200Y-93023247D01*
X111694949Y-93602052D01*
X112137948Y-94045051D01*
X112716753Y-94284800D01*
X113343247Y-94284800D01*
X113922052Y-94045051D01*
X114365051Y-93602052D01*
X114604800Y-93023247D01*
X114604800Y-92396753D01*
X114365051Y-91817948D01*
X113987103Y-91440000D01*
X114365051Y-91062052D01*
X114604800Y-90483247D01*
X114604800Y-89856753D01*
X114365051Y-89277948D01*
X113987103Y-88900000D01*
X114365051Y-88522052D01*
X114604800Y-87943247D01*
X114604800Y-87316753D01*
X114365051Y-86737948D01*
X113987103Y-86360000D01*
X114365051Y-85982052D01*
X114604800Y-85403247D01*
X114604800Y-84776753D01*
X114365051Y-84197948D01*
X113924786Y-83757683D01*
X113959363Y-83658968D01*
X113030000Y-82729605D01*
X112100637Y-83658968D01*
X112135214Y-83757683D01*
X111694949Y-84197948D01*
X111455200Y-84776753D01*
X111455200Y-85403247D01*
X111694949Y-85982052D01*
X112072897Y-86360000D01*
X111694949Y-86737948D01*
X111455200Y-87316753D01*
X111455200Y-87943247D01*
X111694949Y-88522052D01*
X112072897Y-88900000D01*
X111694949Y-89277948D01*
X111641080Y-89408000D01*
X111364847Y-89408000D01*
X111289800Y-89393072D01*
X111214753Y-89408000D01*
X111214752Y-89408000D01*
X110992483Y-89452212D01*
X110740429Y-89620629D01*
X110697918Y-89684251D01*
X98094499Y-102287671D01*
X98094499Y-99805099D01*
X98109427Y-99730052D01*
X98088985Y-99627283D01*
X98050667Y-99434647D01*
X98125280Y-99254516D01*
X98125280Y-98865484D01*
X97976403Y-98506064D01*
X97701316Y-98230977D01*
X97341896Y-98082100D01*
X96952864Y-98082100D01*
X96647000Y-98208793D01*
X96647000Y-93965959D01*
X96714023Y-93898936D01*
X96862900Y-93539516D01*
X96862900Y-93150484D01*
X96763095Y-92909535D01*
X103185631Y-86487000D01*
X105334957Y-86487000D01*
X105410000Y-86501927D01*
X105485043Y-86487000D01*
X105485048Y-86487000D01*
X105707317Y-86442788D01*
X105959371Y-86274371D01*
X106001883Y-86210747D01*
X107800750Y-84411881D01*
X107864371Y-84369371D01*
X108032788Y-84117317D01*
X108049603Y-84032782D01*
X108271753Y-84124800D01*
X108898247Y-84124800D01*
X109477052Y-83885051D01*
X109920051Y-83442052D01*
X110159800Y-82863247D01*
X110159800Y-82299833D01*
X111443955Y-82299833D01*
X111468951Y-82925828D01*
X111660420Y-83388077D01*
X111921032Y-83479363D01*
X112850395Y-82550000D01*
X113209605Y-82550000D01*
X114138968Y-83479363D01*
X114399580Y-83388077D01*
X114616045Y-82800167D01*
X114591049Y-82174172D01*
X114399580Y-81711923D01*
X114138968Y-81620637D01*
X113209605Y-82550000D01*
X112850395Y-82550000D01*
X111921032Y-81620637D01*
X111660420Y-81711923D01*
X111443955Y-82299833D01*
X110159800Y-82299833D01*
X110159800Y-82236753D01*
X109920051Y-81657948D01*
X109542103Y-81280000D01*
X109703135Y-81118968D01*
X112100637Y-81118968D01*
X112157043Y-81280000D01*
X112100637Y-81441032D01*
X113030000Y-82370395D01*
X113959363Y-81441032D01*
X113902957Y-81280000D01*
X113959363Y-81118968D01*
X113030000Y-80189605D01*
X112100637Y-81118968D01*
X109703135Y-81118968D01*
X109920051Y-80902052D01*
X110159800Y-80323247D01*
X110159800Y-79759833D01*
X111443955Y-79759833D01*
X111468951Y-80385828D01*
X111660420Y-80848077D01*
X111921032Y-80939363D01*
X112850395Y-80010000D01*
X111921032Y-79080637D01*
X111660420Y-79171923D01*
X111443955Y-79759833D01*
X110159800Y-79759833D01*
X110159800Y-79696753D01*
X109920051Y-79117948D01*
X109477052Y-78674949D01*
X108898247Y-78435200D01*
X108271753Y-78435200D01*
X107692948Y-78674949D01*
X107315000Y-79052897D01*
X106937052Y-78674949D01*
X106358247Y-78435200D01*
X105731753Y-78435200D01*
X105152948Y-78674949D01*
X104775000Y-79052897D01*
X104397052Y-78674949D01*
X103818247Y-78435200D01*
X103191753Y-78435200D01*
X102612948Y-78674949D01*
X102169949Y-79117948D01*
X101930200Y-79696753D01*
X101930200Y-80323247D01*
X102169949Y-80902052D01*
X102235033Y-80967136D01*
X92224253Y-90977916D01*
X92160629Y-91020429D01*
X91992212Y-91272484D01*
X91948000Y-91494753D01*
X91948000Y-91494757D01*
X91933073Y-91569800D01*
X91948000Y-91644843D01*
X91948001Y-98439040D01*
X91880977Y-98506064D01*
X91732100Y-98865484D01*
X91732100Y-99254516D01*
X91880977Y-99613936D01*
X92156064Y-99889023D01*
X92515484Y-100037900D01*
X92610269Y-100037900D01*
X92753117Y-100180748D01*
X92795629Y-100244371D01*
X93047683Y-100412788D01*
X93142454Y-100431639D01*
X93002100Y-100770484D01*
X93002100Y-101159516D01*
X93150977Y-101518936D01*
X93218000Y-101585959D01*
X93218001Y-101919368D01*
X88004753Y-107132617D01*
X87941129Y-107175129D01*
X87772712Y-107427184D01*
X87728500Y-107649453D01*
X87728500Y-107649457D01*
X87713573Y-107724500D01*
X87728500Y-107799543D01*
X87728500Y-108660048D01*
X87728501Y-108660053D01*
X87728500Y-136098269D01*
X86895270Y-136931500D01*
X86800484Y-136931500D01*
X86441064Y-137080377D01*
X86165977Y-137355464D01*
X86017100Y-137714884D01*
X84582000Y-137714884D01*
X84582000Y-76456980D01*
X85162520Y-77037500D01*
X86351519Y-77530000D01*
X87638481Y-77530000D01*
X88827480Y-77037500D01*
X89737500Y-76127480D01*
X90230000Y-74938481D01*
X90230000Y-73651519D01*
X89737500Y-72462520D01*
X89156980Y-71882000D01*
X111503020Y-71882000D01*
X110922500Y-72462520D01*
X110922500Y-72462520D01*
G37*
X110922500Y-72462520D02*
X110430000Y-73651519D01*
X110430000Y-74938481D01*
X110922500Y-76127480D01*
X111832520Y-77037500D01*
X113021519Y-77530000D01*
X114308481Y-77530000D01*
X115497480Y-77037500D01*
X116078000Y-76456980D01*
X116078000Y-78526950D01*
X115909312Y-78457077D01*
X115852923Y-78400688D01*
X115764023Y-78186064D01*
X115488936Y-77910977D01*
X115129516Y-77762100D01*
X114740484Y-77762100D01*
X114381064Y-77910977D01*
X114105977Y-78186064D01*
X113957100Y-78545484D01*
X113957100Y-78894571D01*
X113868077Y-78640420D01*
X113280167Y-78423955D01*
X112654172Y-78448951D01*
X112191923Y-78640420D01*
X112100637Y-78901032D01*
X113030000Y-79830395D01*
X113044143Y-79816253D01*
X113223748Y-79995858D01*
X113209605Y-80010000D01*
X114138968Y-80939363D01*
X114399580Y-80848077D01*
X114616045Y-80260167D01*
X114591935Y-79656369D01*
X114595688Y-79657923D01*
X114652077Y-79714312D01*
X114740977Y-79928936D01*
X115016064Y-80204023D01*
X115230687Y-80292923D01*
X115287077Y-80349313D01*
X115316000Y-80419139D01*
X115316001Y-109601000D01*
X113439139Y-109601000D01*
X113224516Y-109512100D01*
X112835484Y-109512100D01*
X112620861Y-109601000D01*
X112169139Y-109601000D01*
X111954516Y-109512100D01*
X111565484Y-109512100D01*
X111350861Y-109601000D01*
X110899139Y-109601000D01*
X110684516Y-109512100D01*
X110295484Y-109512100D01*
X109936064Y-109660977D01*
X109660977Y-109936064D01*
X109512100Y-110295484D01*
X109512100Y-110684516D01*
X109660977Y-111043936D01*
X109936064Y-111319023D01*
X110295484Y-111467900D01*
X110684516Y-111467900D01*
X110899139Y-111379000D01*
X111350861Y-111379000D01*
X111565484Y-111467900D01*
X111954516Y-111467900D01*
X112169139Y-111379000D01*
X112620861Y-111379000D01*
X112835484Y-111467900D01*
X113224516Y-111467900D01*
X113439139Y-111379000D01*
X115316000Y-111379000D01*
X115316001Y-128536763D01*
X110785689Y-133067076D01*
X110571064Y-133155977D01*
X110295977Y-133431064D01*
X110207077Y-133645688D01*
X110150688Y-133702077D01*
X109936064Y-133790977D01*
X109660977Y-134066064D01*
X109572077Y-134280688D01*
X109515688Y-134337077D01*
X109301064Y-134425977D01*
X109025977Y-134701064D01*
X108877100Y-135060484D01*
X108877100Y-135449516D01*
X109025977Y-135808936D01*
X109301064Y-136084023D01*
X109660484Y-136232900D01*
X110049516Y-136232900D01*
X110408936Y-136084023D01*
X110684023Y-135808936D01*
X110772923Y-135594312D01*
X110829312Y-135537923D01*
X111043936Y-135449023D01*
X111319023Y-135173936D01*
X111407923Y-134959312D01*
X111464312Y-134902923D01*
X111678936Y-134814023D01*
X111954023Y-134538936D01*
X112042924Y-134324311D01*
X116078000Y-130289236D01*
X116078000Y-154683020D01*
X115497480Y-154102500D01*
X114308481Y-153610000D01*
X113021519Y-153610000D01*
X111832520Y-154102500D01*
X110922500Y-155012520D01*
X110430000Y-156201519D01*
X110430000Y-157488481D01*
X110922500Y-158677480D01*
X111503020Y-159258000D01*
X89156980Y-159258000D01*
X89737500Y-158677480D01*
X90230000Y-157488481D01*
X90230000Y-156201519D01*
X89737500Y-155012520D01*
X88827480Y-154102500D01*
X87638481Y-153610000D01*
X86351519Y-153610000D01*
X85162520Y-154102500D01*
X84582000Y-154683020D01*
X84582000Y-150816753D01*
X93040200Y-150816753D01*
X93040200Y-151443247D01*
X93279949Y-152022052D01*
X93722948Y-152465051D01*
X94301753Y-152704800D01*
X94928247Y-152704800D01*
X95507052Y-152465051D01*
X95885000Y-152087103D01*
X96262948Y-152465051D01*
X96841753Y-152704800D01*
X97468247Y-152704800D01*
X98047052Y-152465051D01*
X98425000Y-152087103D01*
X98802948Y-152465051D01*
X99381753Y-152704800D01*
X100008247Y-152704800D01*
X100587052Y-152465051D01*
X101030051Y-152022052D01*
X101269800Y-151443247D01*
X101269800Y-150816753D01*
X108915200Y-150816753D01*
X108915200Y-151443247D01*
X109154949Y-152022052D01*
X109597948Y-152465051D01*
X110176753Y-152704800D01*
X110803247Y-152704800D01*
X111382052Y-152465051D01*
X111608135Y-152238968D01*
X112100637Y-152238968D01*
X112191923Y-152499580D01*
X112779833Y-152716045D01*
X113405828Y-152691049D01*
X113868077Y-152499580D01*
X113959363Y-152238968D01*
X113030000Y-151309605D01*
X112100637Y-152238968D01*
X111608135Y-152238968D01*
X111822317Y-152024786D01*
X111921032Y-152059363D01*
X112850395Y-151130000D01*
X113209605Y-151130000D01*
X114138968Y-152059363D01*
X114399580Y-151968077D01*
X114616045Y-151380167D01*
X114591049Y-150754172D01*
X114399580Y-150291923D01*
X114138968Y-150200637D01*
X113209605Y-151130000D01*
X112850395Y-151130000D01*
X111921032Y-150200637D01*
X111822317Y-150235214D01*
X111608135Y-150021032D01*
X112100637Y-150021032D01*
X113030000Y-150950395D01*
X113959363Y-150021032D01*
X113868077Y-149760420D01*
X113280167Y-149543955D01*
X112654172Y-149568951D01*
X112191923Y-149760420D01*
X112100637Y-150021032D01*
X111608135Y-150021032D01*
X111382052Y-149794949D01*
X110803247Y-149555200D01*
X110176753Y-149555200D01*
X109597948Y-149794949D01*
X109154949Y-150237948D01*
X108915200Y-150816753D01*
X101269800Y-150816753D01*
X101030051Y-150237948D01*
X100587052Y-149794949D01*
X100008247Y-149555200D01*
X99381753Y-149555200D01*
X98802948Y-149794949D01*
X98425000Y-150172897D01*
X98047052Y-149794949D01*
X97468247Y-149555200D01*
X96841753Y-149555200D01*
X96262948Y-149794949D01*
X95885000Y-150172897D01*
X95507052Y-149794949D01*
X94928247Y-149555200D01*
X94301753Y-149555200D01*
X93722948Y-149794949D01*
X93279949Y-150237948D01*
X93040200Y-150816753D01*
X84582000Y-150816753D01*
X84582000Y-137714884D01*
X86017100Y-137714884D01*
X86017100Y-138103916D01*
X86165977Y-138463336D01*
X86441064Y-138738423D01*
X86800484Y-138887300D01*
X87189516Y-138887300D01*
X87548936Y-138738423D01*
X87824023Y-138463336D01*
X87972900Y-138103916D01*
X87972900Y-138009130D01*
X88976250Y-137005781D01*
X89039871Y-136963271D01*
X89208288Y-136711217D01*
X89252500Y-136488948D01*
X89252500Y-136488944D01*
X89267427Y-136413901D01*
X89252500Y-136338858D01*
X89252500Y-126805484D01*
X105702100Y-126805484D01*
X105702100Y-127194516D01*
X105791000Y-127409140D01*
X105791000Y-127643360D01*
X105702100Y-127857984D01*
X105702100Y-128247016D01*
X105791001Y-128461641D01*
X105791001Y-128495859D01*
X105702100Y-128710484D01*
X105702100Y-129099516D01*
X105850977Y-129458936D01*
X106126064Y-129734023D01*
X106485484Y-129882900D01*
X106874516Y-129882900D01*
X107233936Y-129734023D01*
X107509023Y-129458936D01*
X107657900Y-129099516D01*
X107657900Y-128710484D01*
X107569000Y-128495861D01*
X107569000Y-128461639D01*
X107657900Y-128247016D01*
X107657900Y-127857984D01*
X107569000Y-127643361D01*
X107569000Y-127409139D01*
X107657900Y-127194516D01*
X107657900Y-126805484D01*
X107569000Y-126590861D01*
X107569000Y-125463235D01*
X108924313Y-124107923D01*
X109138936Y-124019023D01*
X109414023Y-123743936D01*
X109562900Y-123384516D01*
X109562900Y-122995484D01*
X109414023Y-122636064D01*
X109138936Y-122360977D01*
X108779516Y-122212100D01*
X108390484Y-122212100D01*
X108031064Y-122360977D01*
X107755977Y-122636064D01*
X107667077Y-122850687D01*
X106113294Y-124404471D01*
X106039068Y-124454067D01*
X105989472Y-124528293D01*
X105989471Y-124528294D01*
X105842582Y-124748130D01*
X105773584Y-125095000D01*
X105791001Y-125182559D01*
X105791000Y-126590860D01*
X105702100Y-126805484D01*
X89252500Y-126805484D01*
X89252500Y-108040130D01*
X94089200Y-103203431D01*
X94089201Y-117399948D01*
X94089200Y-117399953D01*
X94089200Y-118215748D01*
X94089201Y-118215751D01*
X94089200Y-119541152D01*
X94089200Y-120176157D01*
X94074273Y-120251200D01*
X94089200Y-120326243D01*
X94089200Y-120326247D01*
X94133412Y-120548516D01*
X94301829Y-120800571D01*
X94365453Y-120843083D01*
X96812100Y-123289731D01*
X96812100Y-123384516D01*
X96960977Y-123743936D01*
X97236064Y-124019023D01*
X97595484Y-124167900D01*
X97984516Y-124167900D01*
X98343936Y-124019023D01*
X98619023Y-123743936D01*
X98724439Y-123489439D01*
X98978936Y-123384023D01*
X99254023Y-123108936D01*
X99402900Y-122749516D01*
X99402900Y-122360484D01*
X99254023Y-122001064D01*
X99187000Y-121934041D01*
X99187000Y-120725043D01*
X99201927Y-120650000D01*
X99187000Y-120574957D01*
X99187000Y-120574952D01*
X99142788Y-120352683D01*
X98974371Y-120100629D01*
X98910750Y-120058119D01*
X98552231Y-119699600D01*
X98619516Y-119699600D01*
X98978936Y-119550723D01*
X99254023Y-119275636D01*
X99402900Y-118916216D01*
X99402900Y-118527184D01*
X99254023Y-118167764D01*
X98978936Y-117892677D01*
X98619516Y-117743800D01*
X98524731Y-117743800D01*
X97687110Y-116906180D01*
X97687110Y-115408306D01*
X97687400Y-115406848D01*
X97687400Y-115406844D01*
X97702327Y-115331801D01*
X97687400Y-115256758D01*
X97687400Y-109560030D01*
X106723117Y-118595748D01*
X106765629Y-118659371D01*
X106829251Y-118701882D01*
X107017681Y-118827787D01*
X107017682Y-118827787D01*
X107017683Y-118827788D01*
X107239952Y-118872000D01*
X107239956Y-118872000D01*
X107314999Y-118886927D01*
X107339162Y-118882121D01*
X107396064Y-118939023D01*
X107755484Y-119087900D01*
X108144516Y-119087900D01*
X108503936Y-118939023D01*
X108570959Y-118872000D01*
X109234041Y-118872000D01*
X109301064Y-118939023D01*
X109660484Y-119087900D01*
X109755270Y-119087900D01*
X110023001Y-119355631D01*
X110023000Y-119734041D01*
X109955977Y-119801064D01*
X109807100Y-120160484D01*
X109807100Y-120549516D01*
X109955977Y-120908936D01*
X110231064Y-121184023D01*
X110590484Y-121332900D01*
X110979516Y-121332900D01*
X111338936Y-121184023D01*
X111455200Y-121067759D01*
X111455200Y-121598247D01*
X111694949Y-122177052D01*
X112072897Y-122555000D01*
X111694949Y-122932948D01*
X111455200Y-123511753D01*
X111455200Y-124138247D01*
X111694949Y-124717052D01*
X112072897Y-125095000D01*
X111694949Y-125472948D01*
X111455200Y-126051753D01*
X111455200Y-126678247D01*
X111694949Y-127257052D01*
X112137948Y-127700051D01*
X112716753Y-127939800D01*
X113343247Y-127939800D01*
X113922052Y-127700051D01*
X114365051Y-127257052D01*
X114604800Y-126678247D01*
X114604800Y-126051753D01*
X114365051Y-125472948D01*
X113987103Y-125095000D01*
X114365051Y-124717052D01*
X114604800Y-124138247D01*
X114604800Y-123511753D01*
X114365051Y-122932948D01*
X113987103Y-122555000D01*
X114365051Y-122177052D01*
X114604800Y-121598247D01*
X114604800Y-120971753D01*
X114365051Y-120392948D01*
X113987103Y-120015000D01*
X114365051Y-119637052D01*
X114604800Y-119058247D01*
X114604800Y-118431753D01*
X114365051Y-117852948D01*
X113922052Y-117409949D01*
X113343247Y-117170200D01*
X112716753Y-117170200D01*
X112137948Y-117409949D01*
X111694949Y-117852948D01*
X111455200Y-118431753D01*
X111455200Y-118671462D01*
X111334371Y-118490629D01*
X111270749Y-118448118D01*
X110832900Y-118010270D01*
X110832900Y-117915484D01*
X110684023Y-117556064D01*
X110408936Y-117280977D01*
X110049516Y-117132100D01*
X109660484Y-117132100D01*
X109301064Y-117280977D01*
X109234041Y-117348000D01*
X108570959Y-117348000D01*
X108503936Y-117280977D01*
X108144516Y-117132100D01*
X107755484Y-117132100D01*
X107514535Y-117231904D01*
X98275748Y-107993118D01*
X98094499Y-107811869D01*
X98094499Y-104482900D01*
X98149316Y-104482900D01*
X98508736Y-104334023D01*
X98783823Y-104058936D01*
X98932700Y-103699516D01*
X98932700Y-103604730D01*
X99767966Y-102769464D01*
X100622100Y-102769464D01*
X100622100Y-103158496D01*
X100770977Y-103517916D01*
X101046064Y-103793003D01*
X101405484Y-103941880D01*
X101794516Y-103941880D01*
X102153936Y-103793003D01*
X102220959Y-103725980D01*
X106510977Y-103725980D01*
X106586020Y-103740907D01*
X106661063Y-103725980D01*
X106661068Y-103725980D01*
X106883337Y-103681768D01*
X107135391Y-103513351D01*
X107177903Y-103449727D01*
X109954731Y-100672900D01*
X110049516Y-100672900D01*
X110408936Y-100524023D01*
X110684023Y-100248936D01*
X110832900Y-99889516D01*
X110832900Y-99500484D01*
X110684023Y-99141064D01*
X110408936Y-98865977D01*
X110049516Y-98717100D01*
X109660484Y-98717100D01*
X109301064Y-98865977D01*
X109025977Y-99141064D01*
X108877100Y-99500484D01*
X108877100Y-99595269D01*
X106270390Y-102201980D01*
X102220959Y-102201980D01*
X102153936Y-102134957D01*
X101794516Y-101986080D01*
X101405484Y-101986080D01*
X101046064Y-102134957D01*
X100770977Y-102410044D01*
X100622100Y-102769464D01*
X99767966Y-102769464D01*
X111605431Y-90932000D01*
X111641080Y-90932000D01*
X111694949Y-91062052D01*
X112072897Y-91440000D01*
X111694949Y-91817948D01*
X111455200Y-92396753D01*
X111455200Y-93023247D01*
X111694949Y-93602052D01*
X112137948Y-94045051D01*
X112716753Y-94284800D01*
X113343247Y-94284800D01*
X113922052Y-94045051D01*
X114365051Y-93602052D01*
X114604800Y-93023247D01*
X114604800Y-92396753D01*
X114365051Y-91817948D01*
X113987103Y-91440000D01*
X114365051Y-91062052D01*
X114604800Y-90483247D01*
X114604800Y-89856753D01*
X114365051Y-89277948D01*
X113987103Y-88900000D01*
X114365051Y-88522052D01*
X114604800Y-87943247D01*
X114604800Y-87316753D01*
X114365051Y-86737948D01*
X113987103Y-86360000D01*
X114365051Y-85982052D01*
X114604800Y-85403247D01*
X114604800Y-84776753D01*
X114365051Y-84197948D01*
X113924786Y-83757683D01*
X113959363Y-83658968D01*
X113030000Y-82729605D01*
X112100637Y-83658968D01*
X112135214Y-83757683D01*
X111694949Y-84197948D01*
X111455200Y-84776753D01*
X111455200Y-85403247D01*
X111694949Y-85982052D01*
X112072897Y-86360000D01*
X111694949Y-86737948D01*
X111455200Y-87316753D01*
X111455200Y-87943247D01*
X111694949Y-88522052D01*
X112072897Y-88900000D01*
X111694949Y-89277948D01*
X111641080Y-89408000D01*
X111364847Y-89408000D01*
X111289800Y-89393072D01*
X111214753Y-89408000D01*
X111214752Y-89408000D01*
X110992483Y-89452212D01*
X110740429Y-89620629D01*
X110697918Y-89684251D01*
X98094499Y-102287671D01*
X98094499Y-99805099D01*
X98109427Y-99730052D01*
X98088985Y-99627283D01*
X98050667Y-99434647D01*
X98125280Y-99254516D01*
X98125280Y-98865484D01*
X97976403Y-98506064D01*
X97701316Y-98230977D01*
X97341896Y-98082100D01*
X96952864Y-98082100D01*
X96647000Y-98208793D01*
X96647000Y-93965959D01*
X96714023Y-93898936D01*
X96862900Y-93539516D01*
X96862900Y-93150484D01*
X96763095Y-92909535D01*
X103185631Y-86487000D01*
X105334957Y-86487000D01*
X105410000Y-86501927D01*
X105485043Y-86487000D01*
X105485048Y-86487000D01*
X105707317Y-86442788D01*
X105959371Y-86274371D01*
X106001883Y-86210747D01*
X107800750Y-84411881D01*
X107864371Y-84369371D01*
X108032788Y-84117317D01*
X108049603Y-84032782D01*
X108271753Y-84124800D01*
X108898247Y-84124800D01*
X109477052Y-83885051D01*
X109920051Y-83442052D01*
X110159800Y-82863247D01*
X110159800Y-82299833D01*
X111443955Y-82299833D01*
X111468951Y-82925828D01*
X111660420Y-83388077D01*
X111921032Y-83479363D01*
X112850395Y-82550000D01*
X113209605Y-82550000D01*
X114138968Y-83479363D01*
X114399580Y-83388077D01*
X114616045Y-82800167D01*
X114591049Y-82174172D01*
X114399580Y-81711923D01*
X114138968Y-81620637D01*
X113209605Y-82550000D01*
X112850395Y-82550000D01*
X111921032Y-81620637D01*
X111660420Y-81711923D01*
X111443955Y-82299833D01*
X110159800Y-82299833D01*
X110159800Y-82236753D01*
X109920051Y-81657948D01*
X109542103Y-81280000D01*
X109703135Y-81118968D01*
X112100637Y-81118968D01*
X112157043Y-81280000D01*
X112100637Y-81441032D01*
X113030000Y-82370395D01*
X113959363Y-81441032D01*
X113902957Y-81280000D01*
X113959363Y-81118968D01*
X113030000Y-80189605D01*
X112100637Y-81118968D01*
X109703135Y-81118968D01*
X109920051Y-80902052D01*
X110159800Y-80323247D01*
X110159800Y-79759833D01*
X111443955Y-79759833D01*
X111468951Y-80385828D01*
X111660420Y-80848077D01*
X111921032Y-80939363D01*
X112850395Y-80010000D01*
X111921032Y-79080637D01*
X111660420Y-79171923D01*
X111443955Y-79759833D01*
X110159800Y-79759833D01*
X110159800Y-79696753D01*
X109920051Y-79117948D01*
X109477052Y-78674949D01*
X108898247Y-78435200D01*
X108271753Y-78435200D01*
X107692948Y-78674949D01*
X107315000Y-79052897D01*
X106937052Y-78674949D01*
X106358247Y-78435200D01*
X105731753Y-78435200D01*
X105152948Y-78674949D01*
X104775000Y-79052897D01*
X104397052Y-78674949D01*
X103818247Y-78435200D01*
X103191753Y-78435200D01*
X102612948Y-78674949D01*
X102169949Y-79117948D01*
X101930200Y-79696753D01*
X101930200Y-80323247D01*
X102169949Y-80902052D01*
X102235033Y-80967136D01*
X92224253Y-90977916D01*
X92160629Y-91020429D01*
X91992212Y-91272484D01*
X91948000Y-91494753D01*
X91948000Y-91494757D01*
X91933073Y-91569800D01*
X91948000Y-91644843D01*
X91948001Y-98439040D01*
X91880977Y-98506064D01*
X91732100Y-98865484D01*
X91732100Y-99254516D01*
X91880977Y-99613936D01*
X92156064Y-99889023D01*
X92515484Y-100037900D01*
X92610269Y-100037900D01*
X92753117Y-100180748D01*
X92795629Y-100244371D01*
X93047683Y-100412788D01*
X93142454Y-100431639D01*
X93002100Y-100770484D01*
X93002100Y-101159516D01*
X93150977Y-101518936D01*
X93218000Y-101585959D01*
X93218001Y-101919368D01*
X88004753Y-107132617D01*
X87941129Y-107175129D01*
X87772712Y-107427184D01*
X87728500Y-107649453D01*
X87728500Y-107649457D01*
X87713573Y-107724500D01*
X87728500Y-107799543D01*
X87728500Y-108660048D01*
X87728501Y-108660053D01*
X87728500Y-136098269D01*
X86895270Y-136931500D01*
X86800484Y-136931500D01*
X86441064Y-137080377D01*
X86165977Y-137355464D01*
X86017100Y-137714884D01*
X84582000Y-137714884D01*
X84582000Y-76456980D01*
X85162520Y-77037500D01*
X86351519Y-77530000D01*
X87638481Y-77530000D01*
X88827480Y-77037500D01*
X89737500Y-76127480D01*
X90230000Y-74938481D01*
X90230000Y-73651519D01*
X89737500Y-72462520D01*
X89156980Y-71882000D01*
X111503020Y-71882000D01*
X110922500Y-72462520D01*
G36*
X103698748Y-82535858D02*
X103684605Y-82550000D01*
X103698748Y-82564143D01*
X103519143Y-82743748D01*
X103505000Y-82729605D01*
X102575637Y-83658968D01*
X102587558Y-83693000D01*
X102310042Y-83693000D01*
X102234999Y-83678073D01*
X102159956Y-83693000D01*
X102159952Y-83693000D01*
X101937683Y-83737212D01*
X101937682Y-83737213D01*
X101937681Y-83737213D01*
X101813782Y-83820000D01*
X101685629Y-83905629D01*
X101643118Y-83969251D01*
X94129253Y-91483117D01*
X94065629Y-91525629D01*
X93897212Y-91777684D01*
X93853000Y-91999953D01*
X93853000Y-91999957D01*
X93838073Y-92075000D01*
X93853000Y-92150043D01*
X93853001Y-93359040D01*
X93785977Y-93426064D01*
X93637100Y-93785484D01*
X93637100Y-94174516D01*
X93785977Y-94533936D01*
X93853000Y-94600959D01*
X93853001Y-98933000D01*
X93687900Y-98933000D01*
X93687900Y-98865484D01*
X93539023Y-98506064D01*
X93472000Y-98439041D01*
X93472000Y-91885430D01*
X102086780Y-83270650D01*
X102135420Y-83388077D01*
X102396032Y-83479363D01*
X103325395Y-82550000D01*
X103311253Y-82535858D01*
X103490858Y-82356253D01*
X103505000Y-82370395D01*
X103519143Y-82356253D01*
X103698748Y-82535858D01*
X103698748Y-82535858D01*
G37*
X103698748Y-82535858D02*
X103684605Y-82550000D01*
X103698748Y-82564143D01*
X103519143Y-82743748D01*
X103505000Y-82729605D01*
X102575637Y-83658968D01*
X102587558Y-83693000D01*
X102310042Y-83693000D01*
X102234999Y-83678073D01*
X102159956Y-83693000D01*
X102159952Y-83693000D01*
X101937683Y-83737212D01*
X101937682Y-83737213D01*
X101937681Y-83737213D01*
X101813782Y-83820000D01*
X101685629Y-83905629D01*
X101643118Y-83969251D01*
X94129253Y-91483117D01*
X94065629Y-91525629D01*
X93897212Y-91777684D01*
X93853000Y-91999953D01*
X93853000Y-91999957D01*
X93838073Y-92075000D01*
X93853000Y-92150043D01*
X93853001Y-93359040D01*
X93785977Y-93426064D01*
X93637100Y-93785484D01*
X93637100Y-94174516D01*
X93785977Y-94533936D01*
X93853000Y-94600959D01*
X93853001Y-98933000D01*
X93687900Y-98933000D01*
X93687900Y-98865484D01*
X93539023Y-98506064D01*
X93472000Y-98439041D01*
X93472000Y-91885430D01*
X102086780Y-83270650D01*
X102135420Y-83388077D01*
X102396032Y-83479363D01*
X103325395Y-82550000D01*
X103311253Y-82535858D01*
X103490858Y-82356253D01*
X103505000Y-82370395D01*
X103519143Y-82356253D01*
X103698748Y-82535858D01*
G04 #@! TD*
M02*
