G04 #@! TF.GenerationSoftware,KiCad,Pcbnew,(5.0.2)-1*
G04 #@! TF.CreationDate,2020-06-25T12:03:09-05:00*
G04 #@! TF.ProjectId,ProximityMother_V1,50726f78-696d-4697-9479-4d6f74686572,V1*
G04 #@! TF.SameCoordinates,Original*
G04 #@! TF.FileFunction,Legend,Top*
G04 #@! TF.FilePolarity,Positive*
%FSLAX46Y46*%
G04 Gerber Fmt 4.6, Leading zero omitted, Abs format (unit mm)*
G04 Created by KiCad (PCBNEW (5.0.2)-1) date 6/25/2020 12:03:09 PM*
%MOMM*%
%LPD*%
G01*
G04 APERTURE LIST*
%ADD10C,0.190500*%
%ADD11C,0.300000*%
%ADD12C,0.025400*%
%ADD13C,0.200000*%
%ADD14C,0.100000*%
%ADD15C,0.120000*%
%ADD16C,0.203200*%
%ADD17C,0.127000*%
%ADD18C,0.254000*%
%ADD19C,0.150000*%
%ADD20C,0.015000*%
G04 APERTURE END LIST*
D10*
X93417571Y-157792964D02*
X93417571Y-157030964D01*
X93804619Y-157030964D01*
X93901380Y-157067250D01*
X93949761Y-157103535D01*
X93998142Y-157176107D01*
X93998142Y-157284964D01*
X93949761Y-157357535D01*
X93901380Y-157393821D01*
X93804619Y-157430107D01*
X93417571Y-157430107D01*
X94433571Y-157792964D02*
X94433571Y-157284964D01*
X94433571Y-157430107D02*
X94481952Y-157357535D01*
X94530333Y-157321250D01*
X94627095Y-157284964D01*
X94723857Y-157284964D01*
X95207666Y-157792964D02*
X95110904Y-157756678D01*
X95062523Y-157720392D01*
X95014142Y-157647821D01*
X95014142Y-157430107D01*
X95062523Y-157357535D01*
X95110904Y-157321250D01*
X95207666Y-157284964D01*
X95352809Y-157284964D01*
X95449571Y-157321250D01*
X95497952Y-157357535D01*
X95546333Y-157430107D01*
X95546333Y-157647821D01*
X95497952Y-157720392D01*
X95449571Y-157756678D01*
X95352809Y-157792964D01*
X95207666Y-157792964D01*
X95885000Y-157792964D02*
X96417190Y-157284964D01*
X95885000Y-157284964D02*
X96417190Y-157792964D01*
X96804238Y-157792964D02*
X96804238Y-157284964D01*
X96804238Y-157030964D02*
X96755857Y-157067250D01*
X96804238Y-157103535D01*
X96852619Y-157067250D01*
X96804238Y-157030964D01*
X96804238Y-157103535D01*
X97288047Y-157792964D02*
X97288047Y-157284964D01*
X97288047Y-157357535D02*
X97336428Y-157321250D01*
X97433190Y-157284964D01*
X97578333Y-157284964D01*
X97675095Y-157321250D01*
X97723476Y-157393821D01*
X97723476Y-157792964D01*
X97723476Y-157393821D02*
X97771857Y-157321250D01*
X97868619Y-157284964D01*
X98013761Y-157284964D01*
X98110523Y-157321250D01*
X98158904Y-157393821D01*
X98158904Y-157792964D01*
X98642714Y-157792964D02*
X98642714Y-157284964D01*
X98642714Y-157030964D02*
X98594333Y-157067250D01*
X98642714Y-157103535D01*
X98691095Y-157067250D01*
X98642714Y-157030964D01*
X98642714Y-157103535D01*
X98981380Y-157284964D02*
X99368428Y-157284964D01*
X99126523Y-157030964D02*
X99126523Y-157684107D01*
X99174904Y-157756678D01*
X99271666Y-157792964D01*
X99368428Y-157792964D01*
X99610333Y-157284964D02*
X99852238Y-157792964D01*
X100094142Y-157284964D02*
X99852238Y-157792964D01*
X99755476Y-157974392D01*
X99707095Y-158010678D01*
X99610333Y-158046964D01*
X101206904Y-157756678D02*
X101352047Y-157792964D01*
X101593952Y-157792964D01*
X101690714Y-157756678D01*
X101739095Y-157720392D01*
X101787476Y-157647821D01*
X101787476Y-157575250D01*
X101739095Y-157502678D01*
X101690714Y-157466392D01*
X101593952Y-157430107D01*
X101400428Y-157393821D01*
X101303666Y-157357535D01*
X101255285Y-157321250D01*
X101206904Y-157248678D01*
X101206904Y-157176107D01*
X101255285Y-157103535D01*
X101303666Y-157067250D01*
X101400428Y-157030964D01*
X101642333Y-157030964D01*
X101787476Y-157067250D01*
X102609952Y-157756678D02*
X102513190Y-157792964D01*
X102319666Y-157792964D01*
X102222904Y-157756678D01*
X102174523Y-157684107D01*
X102174523Y-157393821D01*
X102222904Y-157321250D01*
X102319666Y-157284964D01*
X102513190Y-157284964D01*
X102609952Y-157321250D01*
X102658333Y-157393821D01*
X102658333Y-157466392D01*
X102174523Y-157538964D01*
X103093761Y-157284964D02*
X103093761Y-157792964D01*
X103093761Y-157357535D02*
X103142142Y-157321250D01*
X103238904Y-157284964D01*
X103384047Y-157284964D01*
X103480809Y-157321250D01*
X103529190Y-157393821D01*
X103529190Y-157792964D01*
X103964619Y-157756678D02*
X104061380Y-157792964D01*
X104254904Y-157792964D01*
X104351666Y-157756678D01*
X104400047Y-157684107D01*
X104400047Y-157647821D01*
X104351666Y-157575250D01*
X104254904Y-157538964D01*
X104109761Y-157538964D01*
X104013000Y-157502678D01*
X103964619Y-157430107D01*
X103964619Y-157393821D01*
X104013000Y-157321250D01*
X104109761Y-157284964D01*
X104254904Y-157284964D01*
X104351666Y-157321250D01*
X104980619Y-157792964D02*
X104883857Y-157756678D01*
X104835476Y-157720392D01*
X104787095Y-157647821D01*
X104787095Y-157430107D01*
X104835476Y-157357535D01*
X104883857Y-157321250D01*
X104980619Y-157284964D01*
X105125761Y-157284964D01*
X105222523Y-157321250D01*
X105270904Y-157357535D01*
X105319285Y-157430107D01*
X105319285Y-157647821D01*
X105270904Y-157720392D01*
X105222523Y-157756678D01*
X105125761Y-157792964D01*
X104980619Y-157792964D01*
X105754714Y-157792964D02*
X105754714Y-157284964D01*
X105754714Y-157430107D02*
X105803095Y-157357535D01*
X105851476Y-157321250D01*
X105948238Y-157284964D01*
X106045000Y-157284964D01*
X107012619Y-157030964D02*
X107351285Y-157792964D01*
X107689952Y-157030964D01*
X108560809Y-157792964D02*
X107980238Y-157792964D01*
X108270523Y-157792964D02*
X108270523Y-157030964D01*
X108173761Y-157139821D01*
X108077000Y-157212392D01*
X107980238Y-157248678D01*
X97433190Y-158364464D02*
X97433190Y-158908750D01*
X97384809Y-159017607D01*
X97288047Y-159090178D01*
X97142904Y-159126464D01*
X97046142Y-159126464D01*
X98352428Y-158618464D02*
X98352428Y-159126464D01*
X97917000Y-158618464D02*
X97917000Y-159017607D01*
X97965380Y-159090178D01*
X98062142Y-159126464D01*
X98207285Y-159126464D01*
X98304047Y-159090178D01*
X98352428Y-159053892D01*
X98836238Y-158618464D02*
X98836238Y-159126464D01*
X98836238Y-158691035D02*
X98884619Y-158654750D01*
X98981380Y-158618464D01*
X99126523Y-158618464D01*
X99223285Y-158654750D01*
X99271666Y-158727321D01*
X99271666Y-159126464D01*
X100142523Y-159090178D02*
X100045761Y-159126464D01*
X99852238Y-159126464D01*
X99755476Y-159090178D01*
X99707095Y-159017607D01*
X99707095Y-158727321D01*
X99755476Y-158654750D01*
X99852238Y-158618464D01*
X100045761Y-158618464D01*
X100142523Y-158654750D01*
X100190904Y-158727321D01*
X100190904Y-158799892D01*
X99707095Y-158872464D01*
X101352047Y-158437035D02*
X101400428Y-158400750D01*
X101497190Y-158364464D01*
X101739095Y-158364464D01*
X101835857Y-158400750D01*
X101884238Y-158437035D01*
X101932619Y-158509607D01*
X101932619Y-158582178D01*
X101884238Y-158691035D01*
X101303666Y-159126464D01*
X101932619Y-159126464D01*
X102561571Y-158364464D02*
X102658333Y-158364464D01*
X102755095Y-158400750D01*
X102803476Y-158437035D01*
X102851857Y-158509607D01*
X102900238Y-158654750D01*
X102900238Y-158836178D01*
X102851857Y-158981321D01*
X102803476Y-159053892D01*
X102755095Y-159090178D01*
X102658333Y-159126464D01*
X102561571Y-159126464D01*
X102464809Y-159090178D01*
X102416428Y-159053892D01*
X102368047Y-158981321D01*
X102319666Y-158836178D01*
X102319666Y-158654750D01*
X102368047Y-158509607D01*
X102416428Y-158437035D01*
X102464809Y-158400750D01*
X102561571Y-158364464D01*
X103287285Y-158437035D02*
X103335666Y-158400750D01*
X103432428Y-158364464D01*
X103674333Y-158364464D01*
X103771095Y-158400750D01*
X103819476Y-158437035D01*
X103867857Y-158509607D01*
X103867857Y-158582178D01*
X103819476Y-158691035D01*
X103238904Y-159126464D01*
X103867857Y-159126464D01*
X104496809Y-158364464D02*
X104593571Y-158364464D01*
X104690333Y-158400750D01*
X104738714Y-158437035D01*
X104787095Y-158509607D01*
X104835476Y-158654750D01*
X104835476Y-158836178D01*
X104787095Y-158981321D01*
X104738714Y-159053892D01*
X104690333Y-159090178D01*
X104593571Y-159126464D01*
X104496809Y-159126464D01*
X104400047Y-159090178D01*
X104351666Y-159053892D01*
X104303285Y-158981321D01*
X104254904Y-158836178D01*
X104254904Y-158654750D01*
X104303285Y-158509607D01*
X104351666Y-158437035D01*
X104400047Y-158400750D01*
X104496809Y-158364464D01*
D11*
X95937142Y-66523571D02*
X95080000Y-66523571D01*
X95508571Y-66523571D02*
X95508571Y-65023571D01*
X95365714Y-65237857D01*
X95222857Y-65380714D01*
X95080000Y-65452142D01*
X96580000Y-66380714D02*
X96651428Y-66452142D01*
X96580000Y-66523571D01*
X96508571Y-66452142D01*
X96580000Y-66380714D01*
X96580000Y-66523571D01*
X97151428Y-65023571D02*
X98080000Y-65023571D01*
X97580000Y-65595000D01*
X97794285Y-65595000D01*
X97937142Y-65666428D01*
X98008571Y-65737857D01*
X98080000Y-65880714D01*
X98080000Y-66237857D01*
X98008571Y-66380714D01*
X97937142Y-66452142D01*
X97794285Y-66523571D01*
X97365714Y-66523571D01*
X97222857Y-66452142D01*
X97151428Y-66380714D01*
X99008571Y-65023571D02*
X99151428Y-65023571D01*
X99294285Y-65095000D01*
X99365714Y-65166428D01*
X99437142Y-65309285D01*
X99508571Y-65595000D01*
X99508571Y-65952142D01*
X99437142Y-66237857D01*
X99365714Y-66380714D01*
X99294285Y-66452142D01*
X99151428Y-66523571D01*
X99008571Y-66523571D01*
X98865714Y-66452142D01*
X98794285Y-66380714D01*
X98722857Y-66237857D01*
X98651428Y-65952142D01*
X98651428Y-65595000D01*
X98722857Y-65309285D01*
X98794285Y-65166428D01*
X98865714Y-65095000D01*
X99008571Y-65023571D01*
X100437142Y-65023571D02*
X100580000Y-65023571D01*
X100722857Y-65095000D01*
X100794285Y-65166428D01*
X100865714Y-65309285D01*
X100937142Y-65595000D01*
X100937142Y-65952142D01*
X100865714Y-66237857D01*
X100794285Y-66380714D01*
X100722857Y-66452142D01*
X100580000Y-66523571D01*
X100437142Y-66523571D01*
X100294285Y-66452142D01*
X100222857Y-66380714D01*
X100151428Y-66237857D01*
X100080000Y-65952142D01*
X100080000Y-65595000D01*
X100151428Y-65309285D01*
X100222857Y-65166428D01*
X100294285Y-65095000D01*
X100437142Y-65023571D01*
X101865714Y-65023571D02*
X102008571Y-65023571D01*
X102151428Y-65095000D01*
X102222857Y-65166428D01*
X102294285Y-65309285D01*
X102365714Y-65595000D01*
X102365714Y-65952142D01*
X102294285Y-66237857D01*
X102222857Y-66380714D01*
X102151428Y-66452142D01*
X102008571Y-66523571D01*
X101865714Y-66523571D01*
X101722857Y-66452142D01*
X101651428Y-66380714D01*
X101580000Y-66237857D01*
X101508571Y-65952142D01*
X101508571Y-65595000D01*
X101580000Y-65309285D01*
X101651428Y-65166428D01*
X101722857Y-65095000D01*
X101865714Y-65023571D01*
X104151428Y-66523571D02*
X104151428Y-65523571D01*
X104151428Y-65023571D02*
X104080000Y-65095000D01*
X104151428Y-65166428D01*
X104222857Y-65095000D01*
X104151428Y-65023571D01*
X104151428Y-65166428D01*
X104865714Y-65523571D02*
X104865714Y-66523571D01*
X104865714Y-65666428D02*
X104937142Y-65595000D01*
X105080000Y-65523571D01*
X105294285Y-65523571D01*
X105437142Y-65595000D01*
X105508571Y-65737857D01*
X105508571Y-66523571D01*
X116840000Y-67945000D02*
X83820000Y-67945000D01*
X116840000Y-70485000D02*
X116840000Y-67358579D01*
X83820000Y-70485000D02*
X83820000Y-67358579D01*
X83820000Y-67945000D02*
X84946504Y-67358579D01*
X83820000Y-67945000D02*
X84946504Y-68531421D01*
X116840000Y-67945000D02*
X115713496Y-67358579D01*
X116840000Y-67945000D02*
X115713496Y-68531421D01*
X121293571Y-120891428D02*
X121293571Y-119962857D01*
X121865000Y-120462857D01*
X121865000Y-120248571D01*
X121936428Y-120105714D01*
X122007857Y-120034285D01*
X122150714Y-119962857D01*
X122507857Y-119962857D01*
X122650714Y-120034285D01*
X122722142Y-120105714D01*
X122793571Y-120248571D01*
X122793571Y-120677142D01*
X122722142Y-120820000D01*
X122650714Y-120891428D01*
X122650714Y-119320000D02*
X122722142Y-119248571D01*
X122793571Y-119320000D01*
X122722142Y-119391428D01*
X122650714Y-119320000D01*
X122793571Y-119320000D01*
X121293571Y-117891428D02*
X121293571Y-118605714D01*
X122007857Y-118677142D01*
X121936428Y-118605714D01*
X121865000Y-118462857D01*
X121865000Y-118105714D01*
X121936428Y-117962857D01*
X122007857Y-117891428D01*
X122150714Y-117820000D01*
X122507857Y-117820000D01*
X122650714Y-117891428D01*
X122722142Y-117962857D01*
X122793571Y-118105714D01*
X122793571Y-118462857D01*
X122722142Y-118605714D01*
X122650714Y-118677142D01*
X121293571Y-116891428D02*
X121293571Y-116748571D01*
X121365000Y-116605714D01*
X121436428Y-116534285D01*
X121579285Y-116462857D01*
X121865000Y-116391428D01*
X122222142Y-116391428D01*
X122507857Y-116462857D01*
X122650714Y-116534285D01*
X122722142Y-116605714D01*
X122793571Y-116748571D01*
X122793571Y-116891428D01*
X122722142Y-117034285D01*
X122650714Y-117105714D01*
X122507857Y-117177142D01*
X122222142Y-117248571D01*
X121865000Y-117248571D01*
X121579285Y-117177142D01*
X121436428Y-117105714D01*
X121365000Y-117034285D01*
X121293571Y-116891428D01*
X121293571Y-115462857D02*
X121293571Y-115320000D01*
X121365000Y-115177142D01*
X121436428Y-115105714D01*
X121579285Y-115034285D01*
X121865000Y-114962857D01*
X122222142Y-114962857D01*
X122507857Y-115034285D01*
X122650714Y-115105714D01*
X122722142Y-115177142D01*
X122793571Y-115320000D01*
X122793571Y-115462857D01*
X122722142Y-115605714D01*
X122650714Y-115677142D01*
X122507857Y-115748571D01*
X122222142Y-115820000D01*
X121865000Y-115820000D01*
X121579285Y-115748571D01*
X121436428Y-115677142D01*
X121365000Y-115605714D01*
X121293571Y-115462857D01*
X121293571Y-114034285D02*
X121293571Y-113891428D01*
X121365000Y-113748571D01*
X121436428Y-113677142D01*
X121579285Y-113605714D01*
X121865000Y-113534285D01*
X122222142Y-113534285D01*
X122507857Y-113605714D01*
X122650714Y-113677142D01*
X122722142Y-113748571D01*
X122793571Y-113891428D01*
X122793571Y-114034285D01*
X122722142Y-114177142D01*
X122650714Y-114248571D01*
X122507857Y-114320000D01*
X122222142Y-114391428D01*
X121865000Y-114391428D01*
X121579285Y-114320000D01*
X121436428Y-114248571D01*
X121365000Y-114177142D01*
X121293571Y-114034285D01*
X122793571Y-111748571D02*
X121793571Y-111748571D01*
X121293571Y-111748571D02*
X121365000Y-111820000D01*
X121436428Y-111748571D01*
X121365000Y-111677142D01*
X121293571Y-111748571D01*
X121436428Y-111748571D01*
X121793571Y-111034285D02*
X122793571Y-111034285D01*
X121936428Y-111034285D02*
X121865000Y-110962857D01*
X121793571Y-110820000D01*
X121793571Y-110605714D01*
X121865000Y-110462857D01*
X122007857Y-110391428D01*
X122793571Y-110391428D01*
X120015000Y-160020000D02*
X120015000Y-71120000D01*
X117475000Y-160020000D02*
X120601421Y-160020000D01*
X117475000Y-71120000D02*
X120601421Y-71120000D01*
X120015000Y-71120000D02*
X120601421Y-72246504D01*
X120015000Y-71120000D02*
X119428579Y-72246504D01*
X120015000Y-160020000D02*
X120601421Y-158893496D01*
X120015000Y-160020000D02*
X119428579Y-158893496D01*
D12*
X83820000Y-160020000D02*
X83820000Y-71120000D01*
X116840000Y-160020000D02*
X83820000Y-160020000D01*
X116840000Y-71120000D02*
X116840000Y-160020000D01*
X83820000Y-71120000D02*
X116840000Y-71120000D01*
D13*
G04 #@! TO.C,U4*
X100195000Y-120185000D02*
G75*
G02X100195000Y-120385000I0J-100000D01*
G01*
X100195000Y-120385000D02*
G75*
G02X100195000Y-120185000I0J100000D01*
G01*
X100195000Y-120385000D02*
X100195000Y-120385000D01*
X100195000Y-120185000D02*
X100195000Y-120185000D01*
D14*
X103795000Y-122785000D02*
X103795000Y-122585000D01*
X102895000Y-122785000D02*
X103795000Y-122785000D01*
X100795000Y-122785000D02*
X101695000Y-122785000D01*
X100795000Y-122585000D02*
X100795000Y-122785000D01*
X103795000Y-119785000D02*
X103795000Y-119985000D01*
X102895000Y-119785000D02*
X103795000Y-119785000D01*
X100795000Y-119785000D02*
X101695000Y-119785000D01*
X100795000Y-119985000D02*
X100795000Y-119785000D01*
D15*
G04 #@! TO.C,R8*
X114390000Y-101567064D02*
X114390000Y-100362936D01*
X111670000Y-101567064D02*
X111670000Y-100362936D01*
D16*
G04 #@! TO.C,ICSP1*
X109220000Y-78407260D02*
X107950000Y-78407260D01*
X107950000Y-78407260D02*
X109220000Y-78407260D01*
X109220000Y-78740000D02*
X107950000Y-78740000D01*
X106680000Y-78740000D02*
X105410000Y-78740000D01*
X104140000Y-78740000D02*
X102870000Y-78740000D01*
X102235000Y-83185000D02*
X102235000Y-79375000D01*
X104775000Y-83185000D02*
X104775000Y-79375000D01*
X107315000Y-83185000D02*
X107315000Y-79375000D01*
X102870000Y-83820000D02*
X102235000Y-83185000D01*
X104140000Y-83820000D02*
X102870000Y-83820000D01*
X104775000Y-83185000D02*
X104140000Y-83820000D01*
X105410000Y-83820000D02*
X104775000Y-83185000D01*
X106680000Y-83820000D02*
X105410000Y-83820000D01*
X107315000Y-83185000D02*
X106680000Y-83820000D01*
X107950000Y-83820000D02*
X107315000Y-83185000D01*
X109220000Y-83820000D02*
X107950000Y-83820000D01*
X109855000Y-83185000D02*
X109220000Y-83820000D01*
X109855000Y-79375000D02*
X109855000Y-83185000D01*
X102870000Y-78740000D02*
X102235000Y-79375000D01*
X104775000Y-79375000D02*
X104140000Y-78740000D01*
X105410000Y-78740000D02*
X104775000Y-79375000D01*
X107315000Y-79375000D02*
X106680000Y-78740000D01*
X107950000Y-78740000D02*
X107315000Y-79375000D01*
X109855000Y-79375000D02*
X109220000Y-78740000D01*
D15*
G04 #@! TO.C,C1*
X96535700Y-141564500D02*
X96535700Y-142189500D01*
X96223200Y-141877000D02*
X96848200Y-141877000D01*
X97088200Y-145257563D02*
X98152637Y-146322000D01*
X97088200Y-141866437D02*
X98152637Y-140802000D01*
X97088200Y-141866437D02*
X97088200Y-142502000D01*
X97088200Y-145257563D02*
X97088200Y-144622000D01*
X98152637Y-146322000D02*
X102608200Y-146322000D01*
X98152637Y-140802000D02*
X102608200Y-140802000D01*
X102608200Y-140802000D02*
X102608200Y-142502000D01*
X102608200Y-146322000D02*
X102608200Y-144622000D01*
G04 #@! TO.C,C2*
X105500000Y-128937936D02*
X105500000Y-130142064D01*
X102780000Y-128937936D02*
X102780000Y-130142064D01*
G04 #@! TO.C,C3*
X112133000Y-146322000D02*
X112133000Y-144622000D01*
X112133000Y-140802000D02*
X112133000Y-142502000D01*
X107677437Y-140802000D02*
X112133000Y-140802000D01*
X107677437Y-146322000D02*
X112133000Y-146322000D01*
X106613000Y-145257563D02*
X106613000Y-144622000D01*
X106613000Y-141866437D02*
X106613000Y-142502000D01*
X106613000Y-141866437D02*
X107677437Y-140802000D01*
X106613000Y-145257563D02*
X107677437Y-146322000D01*
X105748000Y-141877000D02*
X106373000Y-141877000D01*
X106060500Y-141564500D02*
X106060500Y-142189500D01*
G04 #@! TO.C,C4*
X107225000Y-128937936D02*
X107225000Y-130142064D01*
X109945000Y-128937936D02*
X109945000Y-130142064D01*
G04 #@! TO.C,C5*
X110040936Y-139207000D02*
X111245064Y-139207000D01*
X110040936Y-136487000D02*
X111245064Y-136487000D01*
G04 #@! TO.C,C6*
X94070000Y-128937936D02*
X94070000Y-130142064D01*
X91350000Y-128937936D02*
X91350000Y-130142064D01*
G04 #@! TO.C,C7*
X98515000Y-128937936D02*
X98515000Y-130142064D01*
X95795000Y-128937936D02*
X95795000Y-130142064D01*
G04 #@! TO.C,C8*
X97757064Y-88990000D02*
X96552936Y-88990000D01*
X97757064Y-86270000D02*
X96552936Y-86270000D01*
G04 #@! TO.C,C9*
X102780000Y-104807936D02*
X102780000Y-106012064D01*
X105500000Y-104807936D02*
X105500000Y-106012064D01*
G04 #@! TO.C,C10*
X107225000Y-104807936D02*
X107225000Y-106012064D01*
X109945000Y-104807936D02*
X109945000Y-106012064D01*
G04 #@! TO.C,C11*
X85635000Y-101567064D02*
X85635000Y-100362936D01*
X88355000Y-101567064D02*
X88355000Y-100362936D01*
G04 #@! TO.C,C12*
X101055000Y-113697936D02*
X101055000Y-114902064D01*
X98335000Y-113697936D02*
X98335000Y-114902064D01*
G04 #@! TO.C,C13*
X109945000Y-114902064D02*
X109945000Y-113697936D01*
X107225000Y-114902064D02*
X107225000Y-113697936D01*
G04 #@! TO.C,C14*
X105500000Y-114902064D02*
X105500000Y-113697936D01*
X102780000Y-114902064D02*
X102780000Y-113697936D01*
G04 #@! TO.C,D1*
X105195000Y-153030000D02*
X105195000Y-149880000D01*
X106895000Y-153030000D02*
X106895000Y-149880000D01*
X105195000Y-153030000D02*
X106895000Y-153030000D01*
G04 #@! TO.C,D2*
X86365000Y-79160000D02*
X86365000Y-80860000D01*
X86365000Y-80860000D02*
X89515000Y-80860000D01*
X86365000Y-79160000D02*
X89515000Y-79160000D01*
G04 #@! TO.C,D3*
X114165000Y-108965000D02*
X114165000Y-105080000D01*
X111895000Y-108965000D02*
X114165000Y-108965000D01*
X111895000Y-105080000D02*
X111895000Y-108965000D01*
G04 #@! TO.C,D4*
X85860000Y-148895000D02*
X85860000Y-152780000D01*
X85860000Y-152780000D02*
X88130000Y-152780000D01*
X88130000Y-152780000D02*
X88130000Y-148895000D01*
D16*
G04 #@! TO.C,J1*
X109855000Y-149860000D02*
X111125000Y-149860000D01*
X111125000Y-149860000D02*
X111760000Y-150495000D01*
X111760000Y-151765000D02*
X111125000Y-152400000D01*
X111760000Y-150495000D02*
X112395000Y-149860000D01*
X112395000Y-149860000D02*
X113665000Y-149860000D01*
X113665000Y-149860000D02*
X114300000Y-150495000D01*
X114300000Y-151765000D02*
X113665000Y-152400000D01*
X113665000Y-152400000D02*
X112395000Y-152400000D01*
X112395000Y-152400000D02*
X111760000Y-151765000D01*
X109220000Y-150495000D02*
X109220000Y-151765000D01*
X109855000Y-149860000D02*
X109220000Y-150495000D01*
X109220000Y-151765000D02*
X109855000Y-152400000D01*
X111125000Y-152400000D02*
X109855000Y-152400000D01*
X114300000Y-150495000D02*
X114300000Y-151765000D01*
G04 #@! TO.C,J2*
X111760000Y-119380000D02*
X111760000Y-118110000D01*
X111760000Y-118110000D02*
X112395000Y-117475000D01*
X113665000Y-117475000D02*
X114300000Y-118110000D01*
X112395000Y-122555000D02*
X111760000Y-121920000D01*
X111760000Y-121920000D02*
X111760000Y-120650000D01*
X111760000Y-120650000D02*
X112395000Y-120015000D01*
X113665000Y-120015000D02*
X114300000Y-120650000D01*
X114300000Y-120650000D02*
X114300000Y-121920000D01*
X114300000Y-121920000D02*
X113665000Y-122555000D01*
X111760000Y-119380000D02*
X112395000Y-120015000D01*
X113665000Y-120015000D02*
X114300000Y-119380000D01*
X114300000Y-118110000D02*
X114300000Y-119380000D01*
X111760000Y-127000000D02*
X111760000Y-125730000D01*
X111760000Y-125730000D02*
X112395000Y-125095000D01*
X113665000Y-125095000D02*
X114300000Y-125730000D01*
X112395000Y-125095000D02*
X111760000Y-124460000D01*
X111760000Y-124460000D02*
X111760000Y-123190000D01*
X111760000Y-123190000D02*
X112395000Y-122555000D01*
X113665000Y-122555000D02*
X114300000Y-123190000D01*
X114300000Y-123190000D02*
X114300000Y-124460000D01*
X114300000Y-124460000D02*
X113665000Y-125095000D01*
X112395000Y-127635000D02*
X113665000Y-127635000D01*
X111760000Y-127000000D02*
X112395000Y-127635000D01*
X113665000Y-127635000D02*
X114300000Y-127000000D01*
X114300000Y-125730000D02*
X114300000Y-127000000D01*
X112395000Y-117475000D02*
X113665000Y-117475000D01*
G04 #@! TO.C,J3*
X112395000Y-81280000D02*
X111760000Y-80645000D01*
X111760000Y-80645000D02*
X111760000Y-79375000D01*
X111760000Y-79375000D02*
X112395000Y-78740000D01*
X113665000Y-78740000D02*
X114300000Y-79375000D01*
X114300000Y-79375000D02*
X114300000Y-80645000D01*
X114300000Y-80645000D02*
X113665000Y-81280000D01*
X111760000Y-85725000D02*
X111760000Y-84455000D01*
X111760000Y-84455000D02*
X112395000Y-83820000D01*
X113665000Y-83820000D02*
X114300000Y-84455000D01*
X112395000Y-83820000D02*
X111760000Y-83185000D01*
X111760000Y-83185000D02*
X111760000Y-81915000D01*
X111760000Y-81915000D02*
X112395000Y-81280000D01*
X113665000Y-81280000D02*
X114300000Y-81915000D01*
X114300000Y-81915000D02*
X114300000Y-83185000D01*
X114300000Y-83185000D02*
X113665000Y-83820000D01*
X112395000Y-88900000D02*
X111760000Y-88265000D01*
X111760000Y-88265000D02*
X111760000Y-86995000D01*
X111760000Y-86995000D02*
X112395000Y-86360000D01*
X113665000Y-86360000D02*
X114300000Y-86995000D01*
X114300000Y-86995000D02*
X114300000Y-88265000D01*
X114300000Y-88265000D02*
X113665000Y-88900000D01*
X111760000Y-85725000D02*
X112395000Y-86360000D01*
X113665000Y-86360000D02*
X114300000Y-85725000D01*
X114300000Y-84455000D02*
X114300000Y-85725000D01*
X111760000Y-93345000D02*
X111760000Y-92075000D01*
X111760000Y-92075000D02*
X112395000Y-91440000D01*
X113665000Y-91440000D02*
X114300000Y-92075000D01*
X112395000Y-91440000D02*
X111760000Y-90805000D01*
X111760000Y-90805000D02*
X111760000Y-89535000D01*
X111760000Y-89535000D02*
X112395000Y-88900000D01*
X113665000Y-88900000D02*
X114300000Y-89535000D01*
X114300000Y-89535000D02*
X114300000Y-90805000D01*
X114300000Y-90805000D02*
X113665000Y-91440000D01*
X112395000Y-93980000D02*
X113665000Y-93980000D01*
X111760000Y-93345000D02*
X112395000Y-93980000D01*
X113665000Y-93980000D02*
X114300000Y-93345000D01*
X114300000Y-92075000D02*
X114300000Y-93345000D01*
X112395000Y-78740000D02*
X113665000Y-78740000D01*
D15*
G04 #@! TO.C,R1*
X106012064Y-86270000D02*
X104807936Y-86270000D01*
X106012064Y-88990000D02*
X104807936Y-88990000D01*
G04 #@! TO.C,R2*
X114390000Y-113697936D02*
X114390000Y-114902064D01*
X111670000Y-113697936D02*
X111670000Y-114902064D01*
G04 #@! TO.C,R3*
X88297936Y-86270000D02*
X89502064Y-86270000D01*
X88297936Y-88990000D02*
X89502064Y-88990000D01*
G04 #@! TO.C,R4*
X88526252Y-83895000D02*
X88003748Y-83895000D01*
X88526252Y-82475000D02*
X88003748Y-82475000D01*
G04 #@! TO.C,R5*
X106012064Y-92620000D02*
X104807936Y-92620000D01*
X106012064Y-95340000D02*
X104807936Y-95340000D01*
G04 #@! TO.C,R6*
X86270000Y-113697936D02*
X86270000Y-114902064D01*
X88990000Y-113697936D02*
X88990000Y-114902064D01*
G04 #@! TO.C,R7*
X93435000Y-113697936D02*
X93435000Y-114902064D01*
X90715000Y-113697936D02*
X90715000Y-114902064D01*
G04 #@! TO.C,R9*
X85635000Y-144747064D02*
X85635000Y-143542936D01*
X88355000Y-144747064D02*
X88355000Y-143542936D01*
G04 #@! TO.C,R10*
X91472936Y-141060000D02*
X92677064Y-141060000D01*
X91472936Y-138340000D02*
X92677064Y-138340000D01*
G04 #@! TO.C,R11*
X92677064Y-136615000D02*
X91472936Y-136615000D01*
X92677064Y-133895000D02*
X91472936Y-133895000D01*
D16*
G04 #@! TO.C,S1*
X91340940Y-148955760D02*
X91340940Y-153304240D01*
X91340940Y-153304240D02*
X102969060Y-153304240D01*
X102969060Y-153304240D02*
X102969060Y-148955760D01*
X102969060Y-148955760D02*
X91340940Y-148955760D01*
D13*
G04 #@! TO.C,S2*
X94270000Y-79030000D02*
X98770000Y-79030000D01*
X98770000Y-79030000D02*
X98770000Y-83530000D01*
X98770000Y-83530000D02*
X94270000Y-83530000D01*
X94270000Y-83530000D02*
X94270000Y-79030000D01*
X91451000Y-82863000D02*
G75*
G03X91451000Y-82863000I-69000J0D01*
G01*
G04 #@! TO.C,U1*
X110085000Y-121405000D02*
X110085000Y-123705000D01*
X110085000Y-123705000D02*
X107085000Y-123705000D01*
X107085000Y-123705000D02*
X107085000Y-121405000D01*
X107085000Y-121405000D02*
X110085000Y-121405000D01*
X110085000Y-119655000D02*
X110085000Y-121055000D01*
D14*
G04 #@! TO.C,U2*
X106253000Y-138927000D02*
X106578000Y-138927000D01*
X106578000Y-138927000D02*
X106578000Y-138627000D01*
X103603000Y-136927000D02*
X103278000Y-136927000D01*
X103278000Y-136927000D02*
X103278000Y-137227000D01*
X103578000Y-138927000D02*
X103278000Y-138927000D01*
X103278000Y-138927000D02*
X103278000Y-138602000D01*
X106578000Y-137252000D02*
X106353000Y-136927000D01*
X106353000Y-136927000D02*
X106253000Y-136927000D01*
X106253000Y-136927000D02*
X106253000Y-136402000D01*
X106578000Y-137252000D02*
X106578000Y-137627000D01*
D13*
G04 #@! TO.C,U3*
X91585000Y-127000000D02*
G75*
G03X91585000Y-127000000I-100000J0D01*
G01*
D17*
X91460000Y-124555000D02*
X91460000Y-120555000D01*
X96500000Y-124555000D02*
X96500000Y-120555000D01*
D16*
G04 #@! TO.C,U5*
X91747340Y-104467660D02*
X91747340Y-97462340D01*
X91747340Y-97462340D02*
X98752660Y-97462340D01*
X98752660Y-97462340D02*
X98752660Y-104114600D01*
X98399600Y-104467660D02*
X91747340Y-104467660D01*
X98399600Y-104467660D02*
X98752660Y-104114600D01*
X99060000Y-104648000D02*
G75*
G03X99060000Y-104648000I-152400J0D01*
G01*
D13*
G04 #@! TO.C,Y1*
X107510000Y-98425000D02*
X107510000Y-98425000D01*
X107510000Y-98525000D02*
X107510000Y-98525000D01*
X107510000Y-98425000D02*
X107510000Y-98425000D01*
X107510000Y-98525000D02*
G75*
G02X107510000Y-98425000I0J50000D01*
G01*
X107510000Y-98425000D02*
G75*
G02X107510000Y-98525000I0J-50000D01*
G01*
X107510000Y-98525000D02*
G75*
G02X107510000Y-98425000I0J50000D01*
G01*
G04 #@! TD*
G04 #@! TO.C,U4*
D18*
X101327380Y-120589523D02*
X101327380Y-121617619D01*
X101387857Y-121738571D01*
X101448333Y-121799047D01*
X101569285Y-121859523D01*
X101811190Y-121859523D01*
X101932142Y-121799047D01*
X101992619Y-121738571D01*
X102053095Y-121617619D01*
X102053095Y-120589523D01*
X103202142Y-121012857D02*
X103202142Y-121859523D01*
X102899761Y-120529047D02*
X102597380Y-121436190D01*
X103383571Y-121436190D01*
G04 #@! TO.C,R8*
D19*
X111202380Y-101766666D02*
X110726190Y-102100000D01*
X111202380Y-102338095D02*
X110202380Y-102338095D01*
X110202380Y-101957142D01*
X110250000Y-101861904D01*
X110297619Y-101814285D01*
X110392857Y-101766666D01*
X110535714Y-101766666D01*
X110630952Y-101814285D01*
X110678571Y-101861904D01*
X110726190Y-101957142D01*
X110726190Y-102338095D01*
X110630952Y-101195238D02*
X110583333Y-101290476D01*
X110535714Y-101338095D01*
X110440476Y-101385714D01*
X110392857Y-101385714D01*
X110297619Y-101338095D01*
X110250000Y-101290476D01*
X110202380Y-101195238D01*
X110202380Y-101004761D01*
X110250000Y-100909523D01*
X110297619Y-100861904D01*
X110392857Y-100814285D01*
X110440476Y-100814285D01*
X110535714Y-100861904D01*
X110583333Y-100909523D01*
X110630952Y-101004761D01*
X110630952Y-101195238D01*
X110678571Y-101290476D01*
X110726190Y-101338095D01*
X110821428Y-101385714D01*
X111011904Y-101385714D01*
X111107142Y-101338095D01*
X111154761Y-101290476D01*
X111202380Y-101195238D01*
X111202380Y-101004761D01*
X111154761Y-100909523D01*
X111107142Y-100861904D01*
X111011904Y-100814285D01*
X110821428Y-100814285D01*
X110726190Y-100861904D01*
X110678571Y-100909523D01*
X110630952Y-101004761D01*
G04 #@! TO.C,ICSP1*
D17*
X107394828Y-84730771D02*
X107394828Y-84121171D01*
X108033457Y-84672714D02*
X108004428Y-84701742D01*
X107917342Y-84730771D01*
X107859285Y-84730771D01*
X107772200Y-84701742D01*
X107714142Y-84643685D01*
X107685114Y-84585628D01*
X107656085Y-84469514D01*
X107656085Y-84382428D01*
X107685114Y-84266314D01*
X107714142Y-84208257D01*
X107772200Y-84150200D01*
X107859285Y-84121171D01*
X107917342Y-84121171D01*
X108004428Y-84150200D01*
X108033457Y-84179228D01*
X108265685Y-84701742D02*
X108352771Y-84730771D01*
X108497914Y-84730771D01*
X108555971Y-84701742D01*
X108585000Y-84672714D01*
X108614028Y-84614657D01*
X108614028Y-84556600D01*
X108585000Y-84498542D01*
X108555971Y-84469514D01*
X108497914Y-84440485D01*
X108381800Y-84411457D01*
X108323742Y-84382428D01*
X108294714Y-84353400D01*
X108265685Y-84295342D01*
X108265685Y-84237285D01*
X108294714Y-84179228D01*
X108323742Y-84150200D01*
X108381800Y-84121171D01*
X108526942Y-84121171D01*
X108614028Y-84150200D01*
X108875285Y-84730771D02*
X108875285Y-84121171D01*
X109107514Y-84121171D01*
X109165571Y-84150200D01*
X109194600Y-84179228D01*
X109223628Y-84237285D01*
X109223628Y-84324371D01*
X109194600Y-84382428D01*
X109165571Y-84411457D01*
X109107514Y-84440485D01*
X108875285Y-84440485D01*
X109804200Y-84730771D02*
X109455857Y-84730771D01*
X109630028Y-84730771D02*
X109630028Y-84121171D01*
X109571971Y-84208257D01*
X109513914Y-84266314D01*
X109455857Y-84295342D01*
X102605114Y-84730771D02*
X102605114Y-84121171D01*
X103243742Y-84672714D02*
X103214714Y-84701742D01*
X103127628Y-84730771D01*
X103069571Y-84730771D01*
X102982485Y-84701742D01*
X102924428Y-84643685D01*
X102895400Y-84585628D01*
X102866371Y-84469514D01*
X102866371Y-84382428D01*
X102895400Y-84266314D01*
X102924428Y-84208257D01*
X102982485Y-84150200D01*
X103069571Y-84121171D01*
X103127628Y-84121171D01*
X103214714Y-84150200D01*
X103243742Y-84179228D01*
X103475971Y-84701742D02*
X103563057Y-84730771D01*
X103708200Y-84730771D01*
X103766257Y-84701742D01*
X103795285Y-84672714D01*
X103824314Y-84614657D01*
X103824314Y-84556600D01*
X103795285Y-84498542D01*
X103766257Y-84469514D01*
X103708200Y-84440485D01*
X103592085Y-84411457D01*
X103534028Y-84382428D01*
X103505000Y-84353400D01*
X103475971Y-84295342D01*
X103475971Y-84237285D01*
X103505000Y-84179228D01*
X103534028Y-84150200D01*
X103592085Y-84121171D01*
X103737228Y-84121171D01*
X103824314Y-84150200D01*
X104085571Y-84730771D02*
X104085571Y-84121171D01*
X104317800Y-84121171D01*
X104375857Y-84150200D01*
X104404885Y-84179228D01*
X104433914Y-84237285D01*
X104433914Y-84324371D01*
X104404885Y-84382428D01*
X104375857Y-84411457D01*
X104317800Y-84440485D01*
X104085571Y-84440485D01*
G04 #@! TO.C,C1*
D19*
X103973333Y-141962142D02*
X103925714Y-142009761D01*
X103782857Y-142057380D01*
X103687619Y-142057380D01*
X103544761Y-142009761D01*
X103449523Y-141914523D01*
X103401904Y-141819285D01*
X103354285Y-141628809D01*
X103354285Y-141485952D01*
X103401904Y-141295476D01*
X103449523Y-141200238D01*
X103544761Y-141105000D01*
X103687619Y-141057380D01*
X103782857Y-141057380D01*
X103925714Y-141105000D01*
X103973333Y-141152619D01*
X104925714Y-142057380D02*
X104354285Y-142057380D01*
X104640000Y-142057380D02*
X104640000Y-141057380D01*
X104544761Y-141200238D01*
X104449523Y-141295476D01*
X104354285Y-141343095D01*
G04 #@! TO.C,C2*
X101957142Y-132246666D02*
X102004761Y-132294285D01*
X102052380Y-132437142D01*
X102052380Y-132532380D01*
X102004761Y-132675238D01*
X101909523Y-132770476D01*
X101814285Y-132818095D01*
X101623809Y-132865714D01*
X101480952Y-132865714D01*
X101290476Y-132818095D01*
X101195238Y-132770476D01*
X101100000Y-132675238D01*
X101052380Y-132532380D01*
X101052380Y-132437142D01*
X101100000Y-132294285D01*
X101147619Y-132246666D01*
X101147619Y-131865714D02*
X101100000Y-131818095D01*
X101052380Y-131722857D01*
X101052380Y-131484761D01*
X101100000Y-131389523D01*
X101147619Y-131341904D01*
X101242857Y-131294285D01*
X101338095Y-131294285D01*
X101480952Y-131341904D01*
X102052380Y-131913333D01*
X102052380Y-131294285D01*
G04 #@! TO.C,C3*
X113498333Y-141962142D02*
X113450714Y-142009761D01*
X113307857Y-142057380D01*
X113212619Y-142057380D01*
X113069761Y-142009761D01*
X112974523Y-141914523D01*
X112926904Y-141819285D01*
X112879285Y-141628809D01*
X112879285Y-141485952D01*
X112926904Y-141295476D01*
X112974523Y-141200238D01*
X113069761Y-141105000D01*
X113212619Y-141057380D01*
X113307857Y-141057380D01*
X113450714Y-141105000D01*
X113498333Y-141152619D01*
X113831666Y-141057380D02*
X114450714Y-141057380D01*
X114117380Y-141438333D01*
X114260238Y-141438333D01*
X114355476Y-141485952D01*
X114403095Y-141533571D01*
X114450714Y-141628809D01*
X114450714Y-141866904D01*
X114403095Y-141962142D01*
X114355476Y-142009761D01*
X114260238Y-142057380D01*
X113974523Y-142057380D01*
X113879285Y-142009761D01*
X113831666Y-141962142D01*
G04 #@! TO.C,C4*
X107037142Y-132246666D02*
X107084761Y-132294285D01*
X107132380Y-132437142D01*
X107132380Y-132532380D01*
X107084761Y-132675238D01*
X106989523Y-132770476D01*
X106894285Y-132818095D01*
X106703809Y-132865714D01*
X106560952Y-132865714D01*
X106370476Y-132818095D01*
X106275238Y-132770476D01*
X106180000Y-132675238D01*
X106132380Y-132532380D01*
X106132380Y-132437142D01*
X106180000Y-132294285D01*
X106227619Y-132246666D01*
X106465714Y-131389523D02*
X107132380Y-131389523D01*
X106084761Y-131627619D02*
X106799047Y-131865714D01*
X106799047Y-131246666D01*
G04 #@! TO.C,C5*
X110476333Y-135924142D02*
X110428714Y-135971761D01*
X110285857Y-136019380D01*
X110190619Y-136019380D01*
X110047761Y-135971761D01*
X109952523Y-135876523D01*
X109904904Y-135781285D01*
X109857285Y-135590809D01*
X109857285Y-135447952D01*
X109904904Y-135257476D01*
X109952523Y-135162238D01*
X110047761Y-135067000D01*
X110190619Y-135019380D01*
X110285857Y-135019380D01*
X110428714Y-135067000D01*
X110476333Y-135114619D01*
X111381095Y-135019380D02*
X110904904Y-135019380D01*
X110857285Y-135495571D01*
X110904904Y-135447952D01*
X111000142Y-135400333D01*
X111238238Y-135400333D01*
X111333476Y-135447952D01*
X111381095Y-135495571D01*
X111428714Y-135590809D01*
X111428714Y-135828904D01*
X111381095Y-135924142D01*
X111333476Y-135971761D01*
X111238238Y-136019380D01*
X111000142Y-136019380D01*
X110904904Y-135971761D01*
X110857285Y-135924142D01*
G04 #@! TO.C,C6*
X94972142Y-132881666D02*
X95019761Y-132929285D01*
X95067380Y-133072142D01*
X95067380Y-133167380D01*
X95019761Y-133310238D01*
X94924523Y-133405476D01*
X94829285Y-133453095D01*
X94638809Y-133500714D01*
X94495952Y-133500714D01*
X94305476Y-133453095D01*
X94210238Y-133405476D01*
X94115000Y-133310238D01*
X94067380Y-133167380D01*
X94067380Y-133072142D01*
X94115000Y-132929285D01*
X94162619Y-132881666D01*
X94067380Y-132024523D02*
X94067380Y-132215000D01*
X94115000Y-132310238D01*
X94162619Y-132357857D01*
X94305476Y-132453095D01*
X94495952Y-132500714D01*
X94876904Y-132500714D01*
X94972142Y-132453095D01*
X95019761Y-132405476D01*
X95067380Y-132310238D01*
X95067380Y-132119761D01*
X95019761Y-132024523D01*
X94972142Y-131976904D01*
X94876904Y-131929285D01*
X94638809Y-131929285D01*
X94543571Y-131976904D01*
X94495952Y-132024523D01*
X94448333Y-132119761D01*
X94448333Y-132310238D01*
X94495952Y-132405476D01*
X94543571Y-132453095D01*
X94638809Y-132500714D01*
G04 #@! TO.C,C7*
X99792142Y-132881666D02*
X99839761Y-132929285D01*
X99887380Y-133072142D01*
X99887380Y-133167380D01*
X99839761Y-133310238D01*
X99744523Y-133405476D01*
X99649285Y-133453095D01*
X99458809Y-133500714D01*
X99315952Y-133500714D01*
X99125476Y-133453095D01*
X99030238Y-133405476D01*
X98935000Y-133310238D01*
X98887380Y-133167380D01*
X98887380Y-133072142D01*
X98935000Y-132929285D01*
X98982619Y-132881666D01*
X98887380Y-132548333D02*
X98887380Y-131881666D01*
X99887380Y-132310238D01*
G04 #@! TO.C,C8*
X93178333Y-89257142D02*
X93130714Y-89304761D01*
X92987857Y-89352380D01*
X92892619Y-89352380D01*
X92749761Y-89304761D01*
X92654523Y-89209523D01*
X92606904Y-89114285D01*
X92559285Y-88923809D01*
X92559285Y-88780952D01*
X92606904Y-88590476D01*
X92654523Y-88495238D01*
X92749761Y-88400000D01*
X92892619Y-88352380D01*
X92987857Y-88352380D01*
X93130714Y-88400000D01*
X93178333Y-88447619D01*
X93749761Y-88780952D02*
X93654523Y-88733333D01*
X93606904Y-88685714D01*
X93559285Y-88590476D01*
X93559285Y-88542857D01*
X93606904Y-88447619D01*
X93654523Y-88400000D01*
X93749761Y-88352380D01*
X93940238Y-88352380D01*
X94035476Y-88400000D01*
X94083095Y-88447619D01*
X94130714Y-88542857D01*
X94130714Y-88590476D01*
X94083095Y-88685714D01*
X94035476Y-88733333D01*
X93940238Y-88780952D01*
X93749761Y-88780952D01*
X93654523Y-88828571D01*
X93606904Y-88876190D01*
X93559285Y-88971428D01*
X93559285Y-89161904D01*
X93606904Y-89257142D01*
X93654523Y-89304761D01*
X93749761Y-89352380D01*
X93940238Y-89352380D01*
X94035476Y-89304761D01*
X94083095Y-89257142D01*
X94130714Y-89161904D01*
X94130714Y-88971428D01*
X94083095Y-88876190D01*
X94035476Y-88828571D01*
X93940238Y-88780952D01*
G04 #@! TO.C,C9*
X102592142Y-108116666D02*
X102639761Y-108164285D01*
X102687380Y-108307142D01*
X102687380Y-108402380D01*
X102639761Y-108545238D01*
X102544523Y-108640476D01*
X102449285Y-108688095D01*
X102258809Y-108735714D01*
X102115952Y-108735714D01*
X101925476Y-108688095D01*
X101830238Y-108640476D01*
X101735000Y-108545238D01*
X101687380Y-108402380D01*
X101687380Y-108307142D01*
X101735000Y-108164285D01*
X101782619Y-108116666D01*
X102687380Y-107640476D02*
X102687380Y-107450000D01*
X102639761Y-107354761D01*
X102592142Y-107307142D01*
X102449285Y-107211904D01*
X102258809Y-107164285D01*
X101877857Y-107164285D01*
X101782619Y-107211904D01*
X101735000Y-107259523D01*
X101687380Y-107354761D01*
X101687380Y-107545238D01*
X101735000Y-107640476D01*
X101782619Y-107688095D01*
X101877857Y-107735714D01*
X102115952Y-107735714D01*
X102211190Y-107688095D01*
X102258809Y-107640476D01*
X102306428Y-107545238D01*
X102306428Y-107354761D01*
X102258809Y-107259523D01*
X102211190Y-107211904D01*
X102115952Y-107164285D01*
G04 #@! TO.C,C10*
X107037142Y-108592857D02*
X107084761Y-108640476D01*
X107132380Y-108783333D01*
X107132380Y-108878571D01*
X107084761Y-109021428D01*
X106989523Y-109116666D01*
X106894285Y-109164285D01*
X106703809Y-109211904D01*
X106560952Y-109211904D01*
X106370476Y-109164285D01*
X106275238Y-109116666D01*
X106180000Y-109021428D01*
X106132380Y-108878571D01*
X106132380Y-108783333D01*
X106180000Y-108640476D01*
X106227619Y-108592857D01*
X107132380Y-107640476D02*
X107132380Y-108211904D01*
X107132380Y-107926190D02*
X106132380Y-107926190D01*
X106275238Y-108021428D01*
X106370476Y-108116666D01*
X106418095Y-108211904D01*
X106132380Y-107021428D02*
X106132380Y-106926190D01*
X106180000Y-106830952D01*
X106227619Y-106783333D01*
X106322857Y-106735714D01*
X106513333Y-106688095D01*
X106751428Y-106688095D01*
X106941904Y-106735714D01*
X107037142Y-106783333D01*
X107084761Y-106830952D01*
X107132380Y-106926190D01*
X107132380Y-107021428D01*
X107084761Y-107116666D01*
X107037142Y-107164285D01*
X106941904Y-107211904D01*
X106751428Y-107259523D01*
X106513333Y-107259523D01*
X106322857Y-107211904D01*
X106227619Y-107164285D01*
X106180000Y-107116666D01*
X106132380Y-107021428D01*
G04 #@! TO.C,C11*
X87352142Y-105417857D02*
X87399761Y-105465476D01*
X87447380Y-105608333D01*
X87447380Y-105703571D01*
X87399761Y-105846428D01*
X87304523Y-105941666D01*
X87209285Y-105989285D01*
X87018809Y-106036904D01*
X86875952Y-106036904D01*
X86685476Y-105989285D01*
X86590238Y-105941666D01*
X86495000Y-105846428D01*
X86447380Y-105703571D01*
X86447380Y-105608333D01*
X86495000Y-105465476D01*
X86542619Y-105417857D01*
X87447380Y-104465476D02*
X87447380Y-105036904D01*
X87447380Y-104751190D02*
X86447380Y-104751190D01*
X86590238Y-104846428D01*
X86685476Y-104941666D01*
X86733095Y-105036904D01*
X87447380Y-103513095D02*
X87447380Y-104084523D01*
X87447380Y-103798809D02*
X86447380Y-103798809D01*
X86590238Y-103894047D01*
X86685476Y-103989285D01*
X86733095Y-104084523D01*
G04 #@! TO.C,C12*
X98782142Y-111767857D02*
X98829761Y-111815476D01*
X98877380Y-111958333D01*
X98877380Y-112053571D01*
X98829761Y-112196428D01*
X98734523Y-112291666D01*
X98639285Y-112339285D01*
X98448809Y-112386904D01*
X98305952Y-112386904D01*
X98115476Y-112339285D01*
X98020238Y-112291666D01*
X97925000Y-112196428D01*
X97877380Y-112053571D01*
X97877380Y-111958333D01*
X97925000Y-111815476D01*
X97972619Y-111767857D01*
X98877380Y-110815476D02*
X98877380Y-111386904D01*
X98877380Y-111101190D02*
X97877380Y-111101190D01*
X98020238Y-111196428D01*
X98115476Y-111291666D01*
X98163095Y-111386904D01*
X97972619Y-110434523D02*
X97925000Y-110386904D01*
X97877380Y-110291666D01*
X97877380Y-110053571D01*
X97925000Y-109958333D01*
X97972619Y-109910714D01*
X98067857Y-109863095D01*
X98163095Y-109863095D01*
X98305952Y-109910714D01*
X98877380Y-110482142D01*
X98877380Y-109863095D01*
G04 #@! TO.C,C13*
X107037142Y-112402857D02*
X107084761Y-112450476D01*
X107132380Y-112593333D01*
X107132380Y-112688571D01*
X107084761Y-112831428D01*
X106989523Y-112926666D01*
X106894285Y-112974285D01*
X106703809Y-113021904D01*
X106560952Y-113021904D01*
X106370476Y-112974285D01*
X106275238Y-112926666D01*
X106180000Y-112831428D01*
X106132380Y-112688571D01*
X106132380Y-112593333D01*
X106180000Y-112450476D01*
X106227619Y-112402857D01*
X107132380Y-111450476D02*
X107132380Y-112021904D01*
X107132380Y-111736190D02*
X106132380Y-111736190D01*
X106275238Y-111831428D01*
X106370476Y-111926666D01*
X106418095Y-112021904D01*
X106132380Y-111117142D02*
X106132380Y-110498095D01*
X106513333Y-110831428D01*
X106513333Y-110688571D01*
X106560952Y-110593333D01*
X106608571Y-110545714D01*
X106703809Y-110498095D01*
X106941904Y-110498095D01*
X107037142Y-110545714D01*
X107084761Y-110593333D01*
X107132380Y-110688571D01*
X107132380Y-110974285D01*
X107084761Y-111069523D01*
X107037142Y-111117142D01*
G04 #@! TO.C,C14*
X102592142Y-117482857D02*
X102639761Y-117530476D01*
X102687380Y-117673333D01*
X102687380Y-117768571D01*
X102639761Y-117911428D01*
X102544523Y-118006666D01*
X102449285Y-118054285D01*
X102258809Y-118101904D01*
X102115952Y-118101904D01*
X101925476Y-118054285D01*
X101830238Y-118006666D01*
X101735000Y-117911428D01*
X101687380Y-117768571D01*
X101687380Y-117673333D01*
X101735000Y-117530476D01*
X101782619Y-117482857D01*
X102687380Y-116530476D02*
X102687380Y-117101904D01*
X102687380Y-116816190D02*
X101687380Y-116816190D01*
X101830238Y-116911428D01*
X101925476Y-117006666D01*
X101973095Y-117101904D01*
X102020714Y-115673333D02*
X102687380Y-115673333D01*
X101639761Y-115911428D02*
X102354047Y-116149523D01*
X102354047Y-115530476D01*
G04 #@! TO.C,D1*
X104647380Y-151868095D02*
X103647380Y-151868095D01*
X103647380Y-151630000D01*
X103695000Y-151487142D01*
X103790238Y-151391904D01*
X103885476Y-151344285D01*
X104075952Y-151296666D01*
X104218809Y-151296666D01*
X104409285Y-151344285D01*
X104504523Y-151391904D01*
X104599761Y-151487142D01*
X104647380Y-151630000D01*
X104647380Y-151868095D01*
X104647380Y-150344285D02*
X104647380Y-150915714D01*
X104647380Y-150630000D02*
X103647380Y-150630000D01*
X103790238Y-150725238D01*
X103885476Y-150820476D01*
X103933095Y-150915714D01*
G04 #@! TO.C,D2*
X84986904Y-79192380D02*
X84986904Y-78192380D01*
X85225000Y-78192380D01*
X85367857Y-78240000D01*
X85463095Y-78335238D01*
X85510714Y-78430476D01*
X85558333Y-78620952D01*
X85558333Y-78763809D01*
X85510714Y-78954285D01*
X85463095Y-79049523D01*
X85367857Y-79144761D01*
X85225000Y-79192380D01*
X84986904Y-79192380D01*
X85939285Y-78287619D02*
X85986904Y-78240000D01*
X86082142Y-78192380D01*
X86320238Y-78192380D01*
X86415476Y-78240000D01*
X86463095Y-78287619D01*
X86510714Y-78382857D01*
X86510714Y-78478095D01*
X86463095Y-78620952D01*
X85891666Y-79192380D01*
X86510714Y-79192380D01*
G04 #@! TO.C,D3*
X111577380Y-106148095D02*
X110577380Y-106148095D01*
X110577380Y-105910000D01*
X110625000Y-105767142D01*
X110720238Y-105671904D01*
X110815476Y-105624285D01*
X111005952Y-105576666D01*
X111148809Y-105576666D01*
X111339285Y-105624285D01*
X111434523Y-105671904D01*
X111529761Y-105767142D01*
X111577380Y-105910000D01*
X111577380Y-106148095D01*
X110577380Y-105243333D02*
X110577380Y-104624285D01*
X110958333Y-104957619D01*
X110958333Y-104814761D01*
X111005952Y-104719523D01*
X111053571Y-104671904D01*
X111148809Y-104624285D01*
X111386904Y-104624285D01*
X111482142Y-104671904D01*
X111529761Y-104719523D01*
X111577380Y-104814761D01*
X111577380Y-105100476D01*
X111529761Y-105195714D01*
X111482142Y-105243333D01*
G04 #@! TO.C,D4*
X88717380Y-148058095D02*
X87717380Y-148058095D01*
X87717380Y-147820000D01*
X87765000Y-147677142D01*
X87860238Y-147581904D01*
X87955476Y-147534285D01*
X88145952Y-147486666D01*
X88288809Y-147486666D01*
X88479285Y-147534285D01*
X88574523Y-147581904D01*
X88669761Y-147677142D01*
X88717380Y-147820000D01*
X88717380Y-148058095D01*
X88050714Y-146629523D02*
X88717380Y-146629523D01*
X87669761Y-146867619D02*
X88384047Y-147105714D01*
X88384047Y-146486666D01*
G04 #@! TO.C,H1*
X90678095Y-74112380D02*
X90678095Y-73112380D01*
X90678095Y-73588571D02*
X91249523Y-73588571D01*
X91249523Y-74112380D02*
X91249523Y-73112380D01*
X92249523Y-74112380D02*
X91678095Y-74112380D01*
X91963809Y-74112380D02*
X91963809Y-73112380D01*
X91868571Y-73255238D01*
X91773333Y-73350476D01*
X91678095Y-73398095D01*
G04 #@! TO.C,H2*
X108458095Y-74112380D02*
X108458095Y-73112380D01*
X108458095Y-73588571D02*
X109029523Y-73588571D01*
X109029523Y-74112380D02*
X109029523Y-73112380D01*
X109458095Y-73207619D02*
X109505714Y-73160000D01*
X109600952Y-73112380D01*
X109839047Y-73112380D01*
X109934285Y-73160000D01*
X109981904Y-73207619D01*
X110029523Y-73302857D01*
X110029523Y-73398095D01*
X109981904Y-73540952D01*
X109410476Y-74112380D01*
X110029523Y-74112380D01*
G04 #@! TO.C,H3*
X109093095Y-159202380D02*
X109093095Y-158202380D01*
X109093095Y-158678571D02*
X109664523Y-158678571D01*
X109664523Y-159202380D02*
X109664523Y-158202380D01*
X110045476Y-158202380D02*
X110664523Y-158202380D01*
X110331190Y-158583333D01*
X110474047Y-158583333D01*
X110569285Y-158630952D01*
X110616904Y-158678571D01*
X110664523Y-158773809D01*
X110664523Y-159011904D01*
X110616904Y-159107142D01*
X110569285Y-159154761D01*
X110474047Y-159202380D01*
X110188333Y-159202380D01*
X110093095Y-159154761D01*
X110045476Y-159107142D01*
G04 #@! TO.C,H4*
X90043095Y-159202380D02*
X90043095Y-158202380D01*
X90043095Y-158678571D02*
X90614523Y-158678571D01*
X90614523Y-159202380D02*
X90614523Y-158202380D01*
X91519285Y-158535714D02*
X91519285Y-159202380D01*
X91281190Y-158154761D02*
X91043095Y-158869047D01*
X91662142Y-158869047D01*
G04 #@! TO.C,J1*
D17*
X109651800Y-153336171D02*
X109651800Y-153771600D01*
X109622771Y-153858685D01*
X109564714Y-153916742D01*
X109477628Y-153945771D01*
X109419571Y-153945771D01*
X110261400Y-153945771D02*
X109913057Y-153945771D01*
X110087228Y-153945771D02*
X110087228Y-153336171D01*
X110029171Y-153423257D01*
X109971114Y-153481314D01*
X109913057Y-153510342D01*
X109524800Y-149500771D02*
X109524800Y-148891171D01*
X109757028Y-148891171D01*
X109815085Y-148920200D01*
X109844114Y-148949228D01*
X109873142Y-149007285D01*
X109873142Y-149094371D01*
X109844114Y-149152428D01*
X109815085Y-149181457D01*
X109757028Y-149210485D01*
X109524800Y-149210485D01*
X110221485Y-149500771D02*
X110163428Y-149471742D01*
X110134400Y-149442714D01*
X110105371Y-149384657D01*
X110105371Y-149210485D01*
X110134400Y-149152428D01*
X110163428Y-149123400D01*
X110221485Y-149094371D01*
X110308571Y-149094371D01*
X110366628Y-149123400D01*
X110395657Y-149152428D01*
X110424685Y-149210485D01*
X110424685Y-149384657D01*
X110395657Y-149442714D01*
X110366628Y-149471742D01*
X110308571Y-149500771D01*
X110221485Y-149500771D01*
X110627885Y-149094371D02*
X110744000Y-149500771D01*
X110860114Y-149210485D01*
X110976228Y-149500771D01*
X111092342Y-149094371D01*
X111556800Y-149471742D02*
X111498742Y-149500771D01*
X111382628Y-149500771D01*
X111324571Y-149471742D01*
X111295542Y-149413685D01*
X111295542Y-149181457D01*
X111324571Y-149123400D01*
X111382628Y-149094371D01*
X111498742Y-149094371D01*
X111556800Y-149123400D01*
X111585828Y-149181457D01*
X111585828Y-149239514D01*
X111295542Y-149297571D01*
X111847085Y-149500771D02*
X111847085Y-149094371D01*
X111847085Y-149210485D02*
X111876114Y-149152428D01*
X111905142Y-149123400D01*
X111963200Y-149094371D01*
X112021257Y-149094371D01*
X112688914Y-149181457D02*
X112892114Y-149181457D01*
X112979200Y-149500771D02*
X112688914Y-149500771D01*
X112688914Y-148891171D01*
X112979200Y-148891171D01*
X113182400Y-148891171D02*
X113588800Y-149500771D01*
X113588800Y-148891171D02*
X113182400Y-149500771D01*
X113733942Y-148891171D02*
X114082285Y-148891171D01*
X113908114Y-149500771D02*
X113908114Y-148891171D01*
G04 #@! TO.C,J2*
X110791171Y-126568200D02*
X111226600Y-126568200D01*
X111313685Y-126597228D01*
X111371742Y-126655285D01*
X111400771Y-126742371D01*
X111400771Y-126800428D01*
X110849228Y-126306942D02*
X110820200Y-126277914D01*
X110791171Y-126219857D01*
X110791171Y-126074714D01*
X110820200Y-126016657D01*
X110849228Y-125987628D01*
X110907285Y-125958600D01*
X110965342Y-125958600D01*
X111052428Y-125987628D01*
X111400771Y-126335971D01*
X111400771Y-125958600D01*
X115210771Y-120370600D02*
X115210771Y-120660885D01*
X114601171Y-120660885D01*
X115152714Y-119819057D02*
X115181742Y-119848085D01*
X115210771Y-119935171D01*
X115210771Y-119993228D01*
X115181742Y-120080314D01*
X115123685Y-120138371D01*
X115065628Y-120167400D01*
X114949514Y-120196428D01*
X114862428Y-120196428D01*
X114746314Y-120167400D01*
X114688257Y-120138371D01*
X114630200Y-120080314D01*
X114601171Y-119993228D01*
X114601171Y-119935171D01*
X114630200Y-119848085D01*
X114659228Y-119819057D01*
X114601171Y-119180428D02*
X114601171Y-118832085D01*
X115210771Y-119006257D02*
X114601171Y-119006257D01*
X115210771Y-118367628D02*
X114891457Y-118367628D01*
X114833400Y-118396657D01*
X114804371Y-118454714D01*
X114804371Y-118570828D01*
X114833400Y-118628885D01*
X115181742Y-118367628D02*
X115210771Y-118425685D01*
X115210771Y-118570828D01*
X115181742Y-118628885D01*
X115123685Y-118657914D01*
X115065628Y-118657914D01*
X115007571Y-118628885D01*
X114978542Y-118570828D01*
X114978542Y-118425685D01*
X114949514Y-118367628D01*
X114804371Y-118077342D02*
X115210771Y-118077342D01*
X114862428Y-118077342D02*
X114833400Y-118048314D01*
X114804371Y-117990257D01*
X114804371Y-117903171D01*
X114833400Y-117845114D01*
X114891457Y-117816085D01*
X115210771Y-117816085D01*
X115210771Y-117525800D02*
X114601171Y-117525800D01*
X114978542Y-117467742D02*
X115210771Y-117293571D01*
X114804371Y-117293571D02*
X115036600Y-117525800D01*
X115181742Y-117061342D02*
X115210771Y-117003285D01*
X115210771Y-116887171D01*
X115181742Y-116829114D01*
X115123685Y-116800085D01*
X115094657Y-116800085D01*
X115036600Y-116829114D01*
X115007571Y-116887171D01*
X115007571Y-116974257D01*
X114978542Y-117032314D01*
X114920485Y-117061342D01*
X114891457Y-117061342D01*
X114833400Y-117032314D01*
X114804371Y-116974257D01*
X114804371Y-116887171D01*
X114833400Y-116829114D01*
G04 #@! TO.C,J3*
X110791171Y-86563200D02*
X111226600Y-86563200D01*
X111313685Y-86592228D01*
X111371742Y-86650285D01*
X111400771Y-86737371D01*
X111400771Y-86795428D01*
X110791171Y-86330971D02*
X110791171Y-85953600D01*
X111023400Y-86156800D01*
X111023400Y-86069714D01*
X111052428Y-86011657D01*
X111081457Y-85982628D01*
X111139514Y-85953600D01*
X111284657Y-85953600D01*
X111342714Y-85982628D01*
X111371742Y-86011657D01*
X111400771Y-86069714D01*
X111400771Y-86243885D01*
X111371742Y-86301942D01*
X111342714Y-86330971D01*
X111371742Y-89469685D02*
X111400771Y-89382600D01*
X111400771Y-89237457D01*
X111371742Y-89179400D01*
X111342714Y-89150371D01*
X111284657Y-89121342D01*
X111226600Y-89121342D01*
X111168542Y-89150371D01*
X111139514Y-89179400D01*
X111110485Y-89237457D01*
X111081457Y-89353571D01*
X111052428Y-89411628D01*
X111023400Y-89440657D01*
X110965342Y-89469685D01*
X110907285Y-89469685D01*
X110849228Y-89440657D01*
X110820200Y-89411628D01*
X110791171Y-89353571D01*
X110791171Y-89208428D01*
X110820200Y-89121342D01*
X111371742Y-88627857D02*
X111400771Y-88685914D01*
X111400771Y-88802028D01*
X111371742Y-88860085D01*
X111313685Y-88889114D01*
X111081457Y-88889114D01*
X111023400Y-88860085D01*
X110994371Y-88802028D01*
X110994371Y-88685914D01*
X111023400Y-88627857D01*
X111081457Y-88598828D01*
X111139514Y-88598828D01*
X111197571Y-88889114D01*
X111400771Y-88337571D02*
X110994371Y-88337571D01*
X111110485Y-88337571D02*
X111052428Y-88308542D01*
X111023400Y-88279514D01*
X110994371Y-88221457D01*
X110994371Y-88163400D01*
X111400771Y-87960200D02*
X110994371Y-87960200D01*
X110791171Y-87960200D02*
X110820200Y-87989228D01*
X110849228Y-87960200D01*
X110820200Y-87931171D01*
X110791171Y-87960200D01*
X110849228Y-87960200D01*
X111400771Y-87408657D02*
X111081457Y-87408657D01*
X111023400Y-87437685D01*
X110994371Y-87495742D01*
X110994371Y-87611857D01*
X111023400Y-87669914D01*
X111371742Y-87408657D02*
X111400771Y-87466714D01*
X111400771Y-87611857D01*
X111371742Y-87669914D01*
X111313685Y-87698942D01*
X111255628Y-87698942D01*
X111197571Y-87669914D01*
X111168542Y-87611857D01*
X111168542Y-87466714D01*
X111139514Y-87408657D01*
X111400771Y-87031285D02*
X111371742Y-87089342D01*
X111313685Y-87118371D01*
X110791171Y-87118371D01*
G04 #@! TO.C,R1*
D19*
X102068333Y-89352380D02*
X101735000Y-88876190D01*
X101496904Y-89352380D02*
X101496904Y-88352380D01*
X101877857Y-88352380D01*
X101973095Y-88400000D01*
X102020714Y-88447619D01*
X102068333Y-88542857D01*
X102068333Y-88685714D01*
X102020714Y-88780952D01*
X101973095Y-88828571D01*
X101877857Y-88876190D01*
X101496904Y-88876190D01*
X103020714Y-89352380D02*
X102449285Y-89352380D01*
X102735000Y-89352380D02*
X102735000Y-88352380D01*
X102639761Y-88495238D01*
X102544523Y-88590476D01*
X102449285Y-88638095D01*
G04 #@! TO.C,R2*
X111577380Y-116371666D02*
X111101190Y-116705000D01*
X111577380Y-116943095D02*
X110577380Y-116943095D01*
X110577380Y-116562142D01*
X110625000Y-116466904D01*
X110672619Y-116419285D01*
X110767857Y-116371666D01*
X110910714Y-116371666D01*
X111005952Y-116419285D01*
X111053571Y-116466904D01*
X111101190Y-116562142D01*
X111101190Y-116943095D01*
X110672619Y-115990714D02*
X110625000Y-115943095D01*
X110577380Y-115847857D01*
X110577380Y-115609761D01*
X110625000Y-115514523D01*
X110672619Y-115466904D01*
X110767857Y-115419285D01*
X110863095Y-115419285D01*
X111005952Y-115466904D01*
X111577380Y-116038333D01*
X111577380Y-115419285D01*
G04 #@! TO.C,R3*
X88733333Y-90622380D02*
X88400000Y-90146190D01*
X88161904Y-90622380D02*
X88161904Y-89622380D01*
X88542857Y-89622380D01*
X88638095Y-89670000D01*
X88685714Y-89717619D01*
X88733333Y-89812857D01*
X88733333Y-89955714D01*
X88685714Y-90050952D01*
X88638095Y-90098571D01*
X88542857Y-90146190D01*
X88161904Y-90146190D01*
X89066666Y-89622380D02*
X89685714Y-89622380D01*
X89352380Y-90003333D01*
X89495238Y-90003333D01*
X89590476Y-90050952D01*
X89638095Y-90098571D01*
X89685714Y-90193809D01*
X89685714Y-90431904D01*
X89638095Y-90527142D01*
X89590476Y-90574761D01*
X89495238Y-90622380D01*
X89209523Y-90622380D01*
X89114285Y-90574761D01*
X89066666Y-90527142D01*
G04 #@! TO.C,R4*
X86828333Y-85542380D02*
X86495000Y-85066190D01*
X86256904Y-85542380D02*
X86256904Y-84542380D01*
X86637857Y-84542380D01*
X86733095Y-84590000D01*
X86780714Y-84637619D01*
X86828333Y-84732857D01*
X86828333Y-84875714D01*
X86780714Y-84970952D01*
X86733095Y-85018571D01*
X86637857Y-85066190D01*
X86256904Y-85066190D01*
X87685476Y-84875714D02*
X87685476Y-85542380D01*
X87447380Y-84494761D02*
X87209285Y-85209047D01*
X87828333Y-85209047D01*
G04 #@! TO.C,R5*
X103973333Y-92527380D02*
X103640000Y-92051190D01*
X103401904Y-92527380D02*
X103401904Y-91527380D01*
X103782857Y-91527380D01*
X103878095Y-91575000D01*
X103925714Y-91622619D01*
X103973333Y-91717857D01*
X103973333Y-91860714D01*
X103925714Y-91955952D01*
X103878095Y-92003571D01*
X103782857Y-92051190D01*
X103401904Y-92051190D01*
X104878095Y-91527380D02*
X104401904Y-91527380D01*
X104354285Y-92003571D01*
X104401904Y-91955952D01*
X104497142Y-91908333D01*
X104735238Y-91908333D01*
X104830476Y-91955952D01*
X104878095Y-92003571D01*
X104925714Y-92098809D01*
X104925714Y-92336904D01*
X104878095Y-92432142D01*
X104830476Y-92479761D01*
X104735238Y-92527380D01*
X104497142Y-92527380D01*
X104401904Y-92479761D01*
X104354285Y-92432142D01*
G04 #@! TO.C,R6*
X86812380Y-117641666D02*
X86336190Y-117975000D01*
X86812380Y-118213095D02*
X85812380Y-118213095D01*
X85812380Y-117832142D01*
X85860000Y-117736904D01*
X85907619Y-117689285D01*
X86002857Y-117641666D01*
X86145714Y-117641666D01*
X86240952Y-117689285D01*
X86288571Y-117736904D01*
X86336190Y-117832142D01*
X86336190Y-118213095D01*
X85812380Y-116784523D02*
X85812380Y-116975000D01*
X85860000Y-117070238D01*
X85907619Y-117117857D01*
X86050476Y-117213095D01*
X86240952Y-117260714D01*
X86621904Y-117260714D01*
X86717142Y-117213095D01*
X86764761Y-117165476D01*
X86812380Y-117070238D01*
X86812380Y-116879761D01*
X86764761Y-116784523D01*
X86717142Y-116736904D01*
X86621904Y-116689285D01*
X86383809Y-116689285D01*
X86288571Y-116736904D01*
X86240952Y-116784523D01*
X86193333Y-116879761D01*
X86193333Y-117070238D01*
X86240952Y-117165476D01*
X86288571Y-117213095D01*
X86383809Y-117260714D01*
G04 #@! TO.C,R7*
X90622380Y-117641666D02*
X90146190Y-117975000D01*
X90622380Y-118213095D02*
X89622380Y-118213095D01*
X89622380Y-117832142D01*
X89670000Y-117736904D01*
X89717619Y-117689285D01*
X89812857Y-117641666D01*
X89955714Y-117641666D01*
X90050952Y-117689285D01*
X90098571Y-117736904D01*
X90146190Y-117832142D01*
X90146190Y-118213095D01*
X89622380Y-117308333D02*
X89622380Y-116641666D01*
X90622380Y-117070238D01*
G04 #@! TO.C,R9*
X88717380Y-141136666D02*
X88241190Y-141470000D01*
X88717380Y-141708095D02*
X87717380Y-141708095D01*
X87717380Y-141327142D01*
X87765000Y-141231904D01*
X87812619Y-141184285D01*
X87907857Y-141136666D01*
X88050714Y-141136666D01*
X88145952Y-141184285D01*
X88193571Y-141231904D01*
X88241190Y-141327142D01*
X88241190Y-141708095D01*
X88717380Y-140660476D02*
X88717380Y-140470000D01*
X88669761Y-140374761D01*
X88622142Y-140327142D01*
X88479285Y-140231904D01*
X88288809Y-140184285D01*
X87907857Y-140184285D01*
X87812619Y-140231904D01*
X87765000Y-140279523D01*
X87717380Y-140374761D01*
X87717380Y-140565238D01*
X87765000Y-140660476D01*
X87812619Y-140708095D01*
X87907857Y-140755714D01*
X88145952Y-140755714D01*
X88241190Y-140708095D01*
X88288809Y-140660476D01*
X88336428Y-140565238D01*
X88336428Y-140374761D01*
X88288809Y-140279523D01*
X88241190Y-140231904D01*
X88145952Y-140184285D01*
G04 #@! TO.C,R10*
X95242142Y-138882380D02*
X94908809Y-138406190D01*
X94670714Y-138882380D02*
X94670714Y-137882380D01*
X95051666Y-137882380D01*
X95146904Y-137930000D01*
X95194523Y-137977619D01*
X95242142Y-138072857D01*
X95242142Y-138215714D01*
X95194523Y-138310952D01*
X95146904Y-138358571D01*
X95051666Y-138406190D01*
X94670714Y-138406190D01*
X96194523Y-138882380D02*
X95623095Y-138882380D01*
X95908809Y-138882380D02*
X95908809Y-137882380D01*
X95813571Y-138025238D01*
X95718333Y-138120476D01*
X95623095Y-138168095D01*
X96813571Y-137882380D02*
X96908809Y-137882380D01*
X97004047Y-137930000D01*
X97051666Y-137977619D01*
X97099285Y-138072857D01*
X97146904Y-138263333D01*
X97146904Y-138501428D01*
X97099285Y-138691904D01*
X97051666Y-138787142D01*
X97004047Y-138834761D01*
X96908809Y-138882380D01*
X96813571Y-138882380D01*
X96718333Y-138834761D01*
X96670714Y-138787142D01*
X96623095Y-138691904D01*
X96575476Y-138501428D01*
X96575476Y-138263333D01*
X96623095Y-138072857D01*
X96670714Y-137977619D01*
X96718333Y-137930000D01*
X96813571Y-137882380D01*
G04 #@! TO.C,R11*
X95242142Y-135707380D02*
X94908809Y-135231190D01*
X94670714Y-135707380D02*
X94670714Y-134707380D01*
X95051666Y-134707380D01*
X95146904Y-134755000D01*
X95194523Y-134802619D01*
X95242142Y-134897857D01*
X95242142Y-135040714D01*
X95194523Y-135135952D01*
X95146904Y-135183571D01*
X95051666Y-135231190D01*
X94670714Y-135231190D01*
X96194523Y-135707380D02*
X95623095Y-135707380D01*
X95908809Y-135707380D02*
X95908809Y-134707380D01*
X95813571Y-134850238D01*
X95718333Y-134945476D01*
X95623095Y-134993095D01*
X97146904Y-135707380D02*
X96575476Y-135707380D01*
X96861190Y-135707380D02*
X96861190Y-134707380D01*
X96765952Y-134850238D01*
X96670714Y-134945476D01*
X96575476Y-134993095D01*
G04 #@! TO.C,S1*
D17*
X96690542Y-154094542D02*
X96777628Y-154123571D01*
X96922771Y-154123571D01*
X96980828Y-154094542D01*
X97009857Y-154065514D01*
X97038885Y-154007457D01*
X97038885Y-153949400D01*
X97009857Y-153891342D01*
X96980828Y-153862314D01*
X96922771Y-153833285D01*
X96806657Y-153804257D01*
X96748600Y-153775228D01*
X96719571Y-153746200D01*
X96690542Y-153688142D01*
X96690542Y-153630085D01*
X96719571Y-153572028D01*
X96748600Y-153543000D01*
X96806657Y-153513971D01*
X96951800Y-153513971D01*
X97038885Y-153543000D01*
X97619457Y-154123571D02*
X97271114Y-154123571D01*
X97445285Y-154123571D02*
X97445285Y-153513971D01*
X97387228Y-153601057D01*
X97329171Y-153659114D01*
X97271114Y-153688142D01*
X97220314Y-148611771D02*
X97220314Y-148002171D01*
X97452542Y-148002171D01*
X97510600Y-148031200D01*
X97539628Y-148060228D01*
X97568657Y-148118285D01*
X97568657Y-148205371D01*
X97539628Y-148263428D01*
X97510600Y-148292457D01*
X97452542Y-148321485D01*
X97220314Y-148321485D01*
X97917000Y-148611771D02*
X97858942Y-148582742D01*
X97829914Y-148553714D01*
X97800885Y-148495657D01*
X97800885Y-148321485D01*
X97829914Y-148263428D01*
X97858942Y-148234400D01*
X97917000Y-148205371D01*
X98004085Y-148205371D01*
X98062142Y-148234400D01*
X98091171Y-148263428D01*
X98120200Y-148321485D01*
X98120200Y-148495657D01*
X98091171Y-148553714D01*
X98062142Y-148582742D01*
X98004085Y-148611771D01*
X97917000Y-148611771D01*
X98323400Y-148205371D02*
X98439514Y-148611771D01*
X98555628Y-148321485D01*
X98671742Y-148611771D01*
X98787857Y-148205371D01*
X99252314Y-148582742D02*
X99194257Y-148611771D01*
X99078142Y-148611771D01*
X99020085Y-148582742D01*
X98991057Y-148524685D01*
X98991057Y-148292457D01*
X99020085Y-148234400D01*
X99078142Y-148205371D01*
X99194257Y-148205371D01*
X99252314Y-148234400D01*
X99281342Y-148292457D01*
X99281342Y-148350514D01*
X98991057Y-148408571D01*
X99542600Y-148611771D02*
X99542600Y-148205371D01*
X99542600Y-148321485D02*
X99571628Y-148263428D01*
X99600657Y-148234400D01*
X99658714Y-148205371D01*
X99716771Y-148205371D01*
G04 #@! TO.C,S2*
D18*
X94282380Y-84969047D02*
X94463809Y-85029523D01*
X94766190Y-85029523D01*
X94887142Y-84969047D01*
X94947619Y-84908571D01*
X95008095Y-84787619D01*
X95008095Y-84666666D01*
X94947619Y-84545714D01*
X94887142Y-84485238D01*
X94766190Y-84424761D01*
X94524285Y-84364285D01*
X94403333Y-84303809D01*
X94342857Y-84243333D01*
X94282380Y-84122380D01*
X94282380Y-84001428D01*
X94342857Y-83880476D01*
X94403333Y-83820000D01*
X94524285Y-83759523D01*
X94826666Y-83759523D01*
X95008095Y-83820000D01*
X95491904Y-83880476D02*
X95552380Y-83820000D01*
X95673333Y-83759523D01*
X95975714Y-83759523D01*
X96096666Y-83820000D01*
X96157142Y-83880476D01*
X96217619Y-84001428D01*
X96217619Y-84122380D01*
X96157142Y-84303809D01*
X95431428Y-85029523D01*
X96217619Y-85029523D01*
G04 #@! TO.C,U1*
X107889523Y-123522619D02*
X108917619Y-123522619D01*
X109038571Y-123462142D01*
X109099047Y-123401666D01*
X109159523Y-123280714D01*
X109159523Y-123038809D01*
X109099047Y-122917857D01*
X109038571Y-122857380D01*
X108917619Y-122796904D01*
X107889523Y-122796904D01*
X109159523Y-121526904D02*
X109159523Y-122252619D01*
X109159523Y-121889761D02*
X107889523Y-121889761D01*
X108070952Y-122010714D01*
X108191904Y-122131666D01*
X108252380Y-122252619D01*
G04 #@! TO.C,U2*
D19*
X100837855Y-137246988D02*
X100837855Y-138056512D01*
X100885474Y-138151750D01*
X100933093Y-138199369D01*
X101028331Y-138246988D01*
X101218807Y-138246988D01*
X101314045Y-138199369D01*
X101361664Y-138151750D01*
X101409283Y-138056512D01*
X101409283Y-137246988D01*
X101837855Y-137342227D02*
X101885474Y-137294608D01*
X101980712Y-137246988D01*
X102218807Y-137246988D01*
X102314045Y-137294608D01*
X102361664Y-137342227D01*
X102409283Y-137437465D01*
X102409283Y-137532703D01*
X102361664Y-137675560D01*
X101790236Y-138246988D01*
X102409283Y-138246988D01*
G04 #@! TO.C,U3*
D20*
X90100380Y-125856904D02*
X90909904Y-125856904D01*
X91005142Y-125809285D01*
X91052761Y-125761666D01*
X91100380Y-125666428D01*
X91100380Y-125475952D01*
X91052761Y-125380714D01*
X91005142Y-125333095D01*
X90909904Y-125285476D01*
X90100380Y-125285476D01*
X90100380Y-124904523D02*
X90100380Y-124285476D01*
X90481333Y-124618809D01*
X90481333Y-124475952D01*
X90528952Y-124380714D01*
X90576571Y-124333095D01*
X90671809Y-124285476D01*
X90909904Y-124285476D01*
X91005142Y-124333095D01*
X91052761Y-124380714D01*
X91100380Y-124475952D01*
X91100380Y-124761666D01*
X91052761Y-124856904D01*
X91005142Y-124904523D01*
G04 #@! TO.C,U5*
D17*
X94785542Y-106346171D02*
X94785542Y-106839657D01*
X94814571Y-106897714D01*
X94843600Y-106926742D01*
X94901657Y-106955771D01*
X95017771Y-106955771D01*
X95075828Y-106926742D01*
X95104857Y-106897714D01*
X95133885Y-106839657D01*
X95133885Y-106346171D01*
X95714457Y-106346171D02*
X95424171Y-106346171D01*
X95395142Y-106636457D01*
X95424171Y-106607428D01*
X95482228Y-106578400D01*
X95627371Y-106578400D01*
X95685428Y-106607428D01*
X95714457Y-106636457D01*
X95743485Y-106694514D01*
X95743485Y-106839657D01*
X95714457Y-106897714D01*
X95685428Y-106926742D01*
X95627371Y-106955771D01*
X95482228Y-106955771D01*
X95424171Y-106926742D01*
X95395142Y-106897714D01*
X92506800Y-95351600D02*
X92797085Y-95351600D01*
X92448742Y-95525771D02*
X92651942Y-94916171D01*
X92855142Y-95525771D01*
X92971257Y-94916171D02*
X93319600Y-94916171D01*
X93145428Y-95525771D02*
X93145428Y-94916171D01*
X93522800Y-95525771D02*
X93522800Y-94916171D01*
X93726000Y-95351600D01*
X93929200Y-94916171D01*
X93929200Y-95525771D01*
X94219485Y-95206457D02*
X94422685Y-95206457D01*
X94509771Y-95525771D02*
X94219485Y-95525771D01*
X94219485Y-94916171D01*
X94509771Y-94916171D01*
X95090342Y-94945200D02*
X95032285Y-94916171D01*
X94945200Y-94916171D01*
X94858114Y-94945200D01*
X94800057Y-95003257D01*
X94771028Y-95061314D01*
X94742000Y-95177428D01*
X94742000Y-95264514D01*
X94771028Y-95380628D01*
X94800057Y-95438685D01*
X94858114Y-95496742D01*
X94945200Y-95525771D01*
X95003257Y-95525771D01*
X95090342Y-95496742D01*
X95119371Y-95467714D01*
X95119371Y-95264514D01*
X95003257Y-95264514D01*
X95351600Y-95351600D02*
X95641885Y-95351600D01*
X95293542Y-95525771D02*
X95496742Y-94916171D01*
X95699942Y-95525771D01*
X95845085Y-94916171D02*
X96222457Y-94916171D01*
X96019257Y-95148400D01*
X96106342Y-95148400D01*
X96164400Y-95177428D01*
X96193428Y-95206457D01*
X96222457Y-95264514D01*
X96222457Y-95409657D01*
X96193428Y-95467714D01*
X96164400Y-95496742D01*
X96106342Y-95525771D01*
X95932171Y-95525771D01*
X95874114Y-95496742D01*
X95845085Y-95467714D01*
X96454685Y-94974228D02*
X96483714Y-94945200D01*
X96541771Y-94916171D01*
X96686914Y-94916171D01*
X96744971Y-94945200D01*
X96774000Y-94974228D01*
X96803028Y-95032285D01*
X96803028Y-95090342D01*
X96774000Y-95177428D01*
X96425657Y-95525771D01*
X96803028Y-95525771D01*
X97151371Y-95177428D02*
X97093314Y-95148400D01*
X97064285Y-95119371D01*
X97035257Y-95061314D01*
X97035257Y-95032285D01*
X97064285Y-94974228D01*
X97093314Y-94945200D01*
X97151371Y-94916171D01*
X97267485Y-94916171D01*
X97325542Y-94945200D01*
X97354571Y-94974228D01*
X97383600Y-95032285D01*
X97383600Y-95061314D01*
X97354571Y-95119371D01*
X97325542Y-95148400D01*
X97267485Y-95177428D01*
X97151371Y-95177428D01*
X97093314Y-95206457D01*
X97064285Y-95235485D01*
X97035257Y-95293542D01*
X97035257Y-95409657D01*
X97064285Y-95467714D01*
X97093314Y-95496742D01*
X97151371Y-95525771D01*
X97267485Y-95525771D01*
X97325542Y-95496742D01*
X97354571Y-95467714D01*
X97383600Y-95409657D01*
X97383600Y-95293542D01*
X97354571Y-95235485D01*
X97325542Y-95206457D01*
X97267485Y-95177428D01*
X97644857Y-95525771D02*
X97644857Y-94916171D01*
X97877085Y-94916171D01*
X97935142Y-94945200D01*
X97964171Y-94974228D01*
X97993200Y-95032285D01*
X97993200Y-95119371D01*
X97964171Y-95177428D01*
X97935142Y-95206457D01*
X97877085Y-95235485D01*
X97644857Y-95235485D01*
G04 #@! TO.C,Y1*
D18*
X107345238Y-97124761D02*
X107345238Y-97729523D01*
X106921904Y-96459523D02*
X107345238Y-97124761D01*
X107768571Y-96459523D01*
X108857142Y-97729523D02*
X108131428Y-97729523D01*
X108494285Y-97729523D02*
X108494285Y-96459523D01*
X108373333Y-96640952D01*
X108252380Y-96761904D01*
X108131428Y-96822380D01*
G04 #@! TD*
M02*
