G04 #@! TF.GenerationSoftware,KiCad,Pcbnew,(5.0.2)-1*
G04 #@! TF.CreationDate,2020-06-25T12:03:09-05:00*
G04 #@! TF.ProjectId,ProximityMother_V1,50726f78-696d-4697-9479-4d6f74686572,V1*
G04 #@! TF.SameCoordinates,Original*
G04 #@! TF.FileFunction,Soldermask,Bot*
G04 #@! TF.FilePolarity,Negative*
%FSLAX46Y46*%
G04 Gerber Fmt 4.6, Leading zero omitted, Abs format (unit mm)*
G04 Created by KiCad (PCBNEW (5.0.2)-1) date 6/25/2020 12:03:09 PM*
%MOMM*%
%LPD*%
G01*
G04 APERTURE LIST*
%ADD10C,0.025400*%
%ADD11C,0.100000*%
G04 APERTURE END LIST*
D10*
X83820000Y-160020000D02*
X83820000Y-71120000D01*
X116840000Y-160020000D02*
X83820000Y-160020000D01*
X116840000Y-71120000D02*
X116840000Y-160020000D01*
X83820000Y-71120000D02*
X116840000Y-71120000D01*
D11*
G36*
X114096791Y-154228156D02*
X114438212Y-154296069D01*
X114920623Y-154495890D01*
X115354788Y-154785990D01*
X115724010Y-155155212D01*
X116014110Y-155589377D01*
X116213931Y-156071788D01*
X116315800Y-156583920D01*
X116315800Y-157106080D01*
X116213931Y-157618212D01*
X116014110Y-158100623D01*
X115724010Y-158534788D01*
X115354788Y-158904010D01*
X114920623Y-159194110D01*
X114438212Y-159393931D01*
X114096791Y-159461844D01*
X113926081Y-159495800D01*
X113403919Y-159495800D01*
X113233209Y-159461844D01*
X112891788Y-159393931D01*
X112409377Y-159194110D01*
X111975212Y-158904010D01*
X111605990Y-158534788D01*
X111315890Y-158100623D01*
X111116069Y-157618212D01*
X111014200Y-157106080D01*
X111014200Y-156583920D01*
X111116069Y-156071788D01*
X111315890Y-155589377D01*
X111605990Y-155155212D01*
X111975212Y-154785990D01*
X112409377Y-154495890D01*
X112891788Y-154296069D01*
X113233209Y-154228156D01*
X113403919Y-154194200D01*
X113926081Y-154194200D01*
X114096791Y-154228156D01*
X114096791Y-154228156D01*
G37*
G36*
X87426791Y-154228156D02*
X87768212Y-154296069D01*
X88250623Y-154495890D01*
X88684788Y-154785990D01*
X89054010Y-155155212D01*
X89344110Y-155589377D01*
X89543931Y-156071788D01*
X89645800Y-156583920D01*
X89645800Y-157106080D01*
X89543931Y-157618212D01*
X89344110Y-158100623D01*
X89054010Y-158534788D01*
X88684788Y-158904010D01*
X88250623Y-159194110D01*
X87768212Y-159393931D01*
X87426791Y-159461844D01*
X87256081Y-159495800D01*
X86733919Y-159495800D01*
X86563209Y-159461844D01*
X86221788Y-159393931D01*
X85739377Y-159194110D01*
X85305212Y-158904010D01*
X84935990Y-158534788D01*
X84645890Y-158100623D01*
X84446069Y-157618212D01*
X84344200Y-157106080D01*
X84344200Y-156583920D01*
X84446069Y-156071788D01*
X84645890Y-155589377D01*
X84935990Y-155155212D01*
X85305212Y-154785990D01*
X85739377Y-154495890D01*
X86221788Y-154296069D01*
X86563209Y-154228156D01*
X86733919Y-154194200D01*
X87256081Y-154194200D01*
X87426791Y-154228156D01*
X87426791Y-154228156D01*
G37*
G36*
X97458766Y-150128620D02*
X97648286Y-150207122D01*
X97648288Y-150207123D01*
X97818854Y-150321092D01*
X97963908Y-150466146D01*
X98077877Y-150636712D01*
X98156380Y-150826235D01*
X98196400Y-151027431D01*
X98196400Y-151232569D01*
X98156380Y-151433765D01*
X98077877Y-151623288D01*
X97963908Y-151793854D01*
X97818854Y-151938908D01*
X97648288Y-152052877D01*
X97648287Y-152052878D01*
X97648286Y-152052878D01*
X97458766Y-152131380D01*
X97257569Y-152171400D01*
X97052431Y-152171400D01*
X96851234Y-152131380D01*
X96661714Y-152052878D01*
X96661713Y-152052878D01*
X96661712Y-152052877D01*
X96491146Y-151938908D01*
X96346092Y-151793854D01*
X96232123Y-151623288D01*
X96153620Y-151433765D01*
X96113600Y-151232569D01*
X96113600Y-151027431D01*
X96153620Y-150826235D01*
X96232123Y-150636712D01*
X96346092Y-150466146D01*
X96491146Y-150321092D01*
X96661712Y-150207123D01*
X96661714Y-150207122D01*
X96851234Y-150128620D01*
X97052431Y-150088600D01*
X97257569Y-150088600D01*
X97458766Y-150128620D01*
X97458766Y-150128620D01*
G37*
G36*
X99998766Y-150128620D02*
X100188286Y-150207122D01*
X100188288Y-150207123D01*
X100358854Y-150321092D01*
X100503908Y-150466146D01*
X100617877Y-150636712D01*
X100696380Y-150826235D01*
X100736400Y-151027431D01*
X100736400Y-151232569D01*
X100696380Y-151433765D01*
X100617877Y-151623288D01*
X100503908Y-151793854D01*
X100358854Y-151938908D01*
X100188288Y-152052877D01*
X100188287Y-152052878D01*
X100188286Y-152052878D01*
X99998766Y-152131380D01*
X99797569Y-152171400D01*
X99592431Y-152171400D01*
X99391234Y-152131380D01*
X99201714Y-152052878D01*
X99201713Y-152052878D01*
X99201712Y-152052877D01*
X99031146Y-151938908D01*
X98886092Y-151793854D01*
X98772123Y-151623288D01*
X98693620Y-151433765D01*
X98653600Y-151232569D01*
X98653600Y-151027431D01*
X98693620Y-150826235D01*
X98772123Y-150636712D01*
X98886092Y-150466146D01*
X99031146Y-150321092D01*
X99201712Y-150207123D01*
X99201714Y-150207122D01*
X99391234Y-150128620D01*
X99592431Y-150088600D01*
X99797569Y-150088600D01*
X99998766Y-150128620D01*
X99998766Y-150128620D01*
G37*
G36*
X110793766Y-150128620D02*
X110983286Y-150207122D01*
X110983288Y-150207123D01*
X111153854Y-150321092D01*
X111298908Y-150466146D01*
X111412877Y-150636712D01*
X111491380Y-150826235D01*
X111531400Y-151027431D01*
X111531400Y-151232569D01*
X111491380Y-151433765D01*
X111412877Y-151623288D01*
X111298908Y-151793854D01*
X111153854Y-151938908D01*
X110983288Y-152052877D01*
X110983287Y-152052878D01*
X110983286Y-152052878D01*
X110793766Y-152131380D01*
X110592569Y-152171400D01*
X110387431Y-152171400D01*
X110186234Y-152131380D01*
X109996714Y-152052878D01*
X109996713Y-152052878D01*
X109996712Y-152052877D01*
X109826146Y-151938908D01*
X109681092Y-151793854D01*
X109567123Y-151623288D01*
X109488620Y-151433765D01*
X109448600Y-151232569D01*
X109448600Y-151027431D01*
X109488620Y-150826235D01*
X109567123Y-150636712D01*
X109681092Y-150466146D01*
X109826146Y-150321092D01*
X109996712Y-150207123D01*
X109996714Y-150207122D01*
X110186234Y-150128620D01*
X110387431Y-150088600D01*
X110592569Y-150088600D01*
X110793766Y-150128620D01*
X110793766Y-150128620D01*
G37*
G36*
X113333766Y-150128620D02*
X113523286Y-150207122D01*
X113523288Y-150207123D01*
X113693854Y-150321092D01*
X113838908Y-150466146D01*
X113952877Y-150636712D01*
X114031380Y-150826235D01*
X114071400Y-151027431D01*
X114071400Y-151232569D01*
X114031380Y-151433765D01*
X113952877Y-151623288D01*
X113838908Y-151793854D01*
X113693854Y-151938908D01*
X113523288Y-152052877D01*
X113523287Y-152052878D01*
X113523286Y-152052878D01*
X113333766Y-152131380D01*
X113132569Y-152171400D01*
X112927431Y-152171400D01*
X112726234Y-152131380D01*
X112536714Y-152052878D01*
X112536713Y-152052878D01*
X112536712Y-152052877D01*
X112366146Y-151938908D01*
X112221092Y-151793854D01*
X112107123Y-151623288D01*
X112028620Y-151433765D01*
X111988600Y-151232569D01*
X111988600Y-151027431D01*
X112028620Y-150826235D01*
X112107123Y-150636712D01*
X112221092Y-150466146D01*
X112366146Y-150321092D01*
X112536712Y-150207123D01*
X112536714Y-150207122D01*
X112726234Y-150128620D01*
X112927431Y-150088600D01*
X113132569Y-150088600D01*
X113333766Y-150128620D01*
X113333766Y-150128620D01*
G37*
G36*
X94918766Y-150128620D02*
X95108286Y-150207122D01*
X95108288Y-150207123D01*
X95278854Y-150321092D01*
X95423908Y-150466146D01*
X95537877Y-150636712D01*
X95616380Y-150826235D01*
X95656400Y-151027431D01*
X95656400Y-151232569D01*
X95616380Y-151433765D01*
X95537877Y-151623288D01*
X95423908Y-151793854D01*
X95278854Y-151938908D01*
X95108288Y-152052877D01*
X95108287Y-152052878D01*
X95108286Y-152052878D01*
X94918766Y-152131380D01*
X94717569Y-152171400D01*
X94512431Y-152171400D01*
X94311234Y-152131380D01*
X94121714Y-152052878D01*
X94121713Y-152052878D01*
X94121712Y-152052877D01*
X93951146Y-151938908D01*
X93806092Y-151793854D01*
X93692123Y-151623288D01*
X93613620Y-151433765D01*
X93573600Y-151232569D01*
X93573600Y-151027431D01*
X93613620Y-150826235D01*
X93692123Y-150636712D01*
X93806092Y-150466146D01*
X93951146Y-150321092D01*
X94121712Y-150207123D01*
X94121714Y-150207122D01*
X94311234Y-150128620D01*
X94512431Y-150088600D01*
X94717569Y-150088600D01*
X94918766Y-150128620D01*
X94918766Y-150128620D01*
G37*
G36*
X113333766Y-125363620D02*
X113523286Y-125442122D01*
X113523288Y-125442123D01*
X113693854Y-125556092D01*
X113838908Y-125701146D01*
X113952877Y-125871712D01*
X114031380Y-126061235D01*
X114071400Y-126262431D01*
X114071400Y-126467569D01*
X114031380Y-126668765D01*
X113952877Y-126858288D01*
X113838908Y-127028854D01*
X113693854Y-127173908D01*
X113523288Y-127287877D01*
X113523287Y-127287878D01*
X113523286Y-127287878D01*
X113333766Y-127366380D01*
X113132569Y-127406400D01*
X112927431Y-127406400D01*
X112726234Y-127366380D01*
X112536714Y-127287878D01*
X112536713Y-127287878D01*
X112536712Y-127287877D01*
X112366146Y-127173908D01*
X112221092Y-127028854D01*
X112107123Y-126858288D01*
X112028620Y-126668765D01*
X111988600Y-126467569D01*
X111988600Y-126262431D01*
X112028620Y-126061235D01*
X112107123Y-125871712D01*
X112221092Y-125701146D01*
X112366146Y-125556092D01*
X112536712Y-125442123D01*
X112536714Y-125442122D01*
X112726234Y-125363620D01*
X112927431Y-125323600D01*
X113132569Y-125323600D01*
X113333766Y-125363620D01*
X113333766Y-125363620D01*
G37*
G36*
X113333766Y-122823620D02*
X113523286Y-122902122D01*
X113523288Y-122902123D01*
X113693854Y-123016092D01*
X113838908Y-123161146D01*
X113952877Y-123331712D01*
X114031380Y-123521235D01*
X114071400Y-123722431D01*
X114071400Y-123927569D01*
X114031380Y-124128765D01*
X113952877Y-124318288D01*
X113838908Y-124488854D01*
X113693854Y-124633908D01*
X113523288Y-124747877D01*
X113523287Y-124747878D01*
X113523286Y-124747878D01*
X113333766Y-124826380D01*
X113132569Y-124866400D01*
X112927431Y-124866400D01*
X112726234Y-124826380D01*
X112536714Y-124747878D01*
X112536713Y-124747878D01*
X112536712Y-124747877D01*
X112366146Y-124633908D01*
X112221092Y-124488854D01*
X112107123Y-124318288D01*
X112028620Y-124128765D01*
X111988600Y-123927569D01*
X111988600Y-123722431D01*
X112028620Y-123521235D01*
X112107123Y-123331712D01*
X112221092Y-123161146D01*
X112366146Y-123016092D01*
X112536712Y-122902123D01*
X112536714Y-122902122D01*
X112726234Y-122823620D01*
X112927431Y-122783600D01*
X113132569Y-122783600D01*
X113333766Y-122823620D01*
X113333766Y-122823620D01*
G37*
G36*
X113333766Y-120283620D02*
X113523286Y-120362122D01*
X113523288Y-120362123D01*
X113693854Y-120476092D01*
X113838908Y-120621146D01*
X113952877Y-120791712D01*
X114031380Y-120981235D01*
X114071400Y-121182431D01*
X114071400Y-121387569D01*
X114031380Y-121588765D01*
X113952877Y-121778288D01*
X113838908Y-121948854D01*
X113693854Y-122093908D01*
X113523288Y-122207877D01*
X113523287Y-122207878D01*
X113523286Y-122207878D01*
X113333766Y-122286380D01*
X113132569Y-122326400D01*
X112927431Y-122326400D01*
X112726234Y-122286380D01*
X112536714Y-122207878D01*
X112536713Y-122207878D01*
X112536712Y-122207877D01*
X112366146Y-122093908D01*
X112221092Y-121948854D01*
X112107123Y-121778288D01*
X112028620Y-121588765D01*
X111988600Y-121387569D01*
X111988600Y-121182431D01*
X112028620Y-120981235D01*
X112107123Y-120791712D01*
X112221092Y-120621146D01*
X112366146Y-120476092D01*
X112536712Y-120362123D01*
X112536714Y-120362122D01*
X112726234Y-120283620D01*
X112927431Y-120243600D01*
X113132569Y-120243600D01*
X113333766Y-120283620D01*
X113333766Y-120283620D01*
G37*
G36*
X113333766Y-117743620D02*
X113523286Y-117822122D01*
X113523288Y-117822123D01*
X113693854Y-117936092D01*
X113838908Y-118081146D01*
X113952877Y-118251712D01*
X114031380Y-118441235D01*
X114071400Y-118642431D01*
X114071400Y-118847569D01*
X114031380Y-119048765D01*
X113952877Y-119238288D01*
X113838908Y-119408854D01*
X113693854Y-119553908D01*
X113523288Y-119667877D01*
X113523287Y-119667878D01*
X113523286Y-119667878D01*
X113333766Y-119746380D01*
X113132569Y-119786400D01*
X112927431Y-119786400D01*
X112726234Y-119746380D01*
X112536714Y-119667878D01*
X112536713Y-119667878D01*
X112536712Y-119667877D01*
X112366146Y-119553908D01*
X112221092Y-119408854D01*
X112107123Y-119238288D01*
X112028620Y-119048765D01*
X111988600Y-118847569D01*
X111988600Y-118642431D01*
X112028620Y-118441235D01*
X112107123Y-118251712D01*
X112221092Y-118081146D01*
X112366146Y-117936092D01*
X112536712Y-117822123D01*
X112536714Y-117822122D01*
X112726234Y-117743620D01*
X112927431Y-117703600D01*
X113132569Y-117703600D01*
X113333766Y-117743620D01*
X113333766Y-117743620D01*
G37*
G36*
X113333766Y-91708620D02*
X113523286Y-91787122D01*
X113523288Y-91787123D01*
X113693854Y-91901092D01*
X113838908Y-92046146D01*
X113952877Y-92216712D01*
X114031380Y-92406235D01*
X114071400Y-92607431D01*
X114071400Y-92812569D01*
X114031380Y-93013765D01*
X113952877Y-93203288D01*
X113838908Y-93373854D01*
X113693854Y-93518908D01*
X113523288Y-93632877D01*
X113523287Y-93632878D01*
X113523286Y-93632878D01*
X113333766Y-93711380D01*
X113132569Y-93751400D01*
X112927431Y-93751400D01*
X112726234Y-93711380D01*
X112536714Y-93632878D01*
X112536713Y-93632878D01*
X112536712Y-93632877D01*
X112366146Y-93518908D01*
X112221092Y-93373854D01*
X112107123Y-93203288D01*
X112028620Y-93013765D01*
X111988600Y-92812569D01*
X111988600Y-92607431D01*
X112028620Y-92406235D01*
X112107123Y-92216712D01*
X112221092Y-92046146D01*
X112366146Y-91901092D01*
X112536712Y-91787123D01*
X112536714Y-91787122D01*
X112726234Y-91708620D01*
X112927431Y-91668600D01*
X113132569Y-91668600D01*
X113333766Y-91708620D01*
X113333766Y-91708620D01*
G37*
G36*
X113333766Y-89168620D02*
X113523286Y-89247122D01*
X113523288Y-89247123D01*
X113693854Y-89361092D01*
X113838908Y-89506146D01*
X113952877Y-89676712D01*
X114031380Y-89866235D01*
X114071400Y-90067431D01*
X114071400Y-90272569D01*
X114031380Y-90473765D01*
X113952877Y-90663288D01*
X113838908Y-90833854D01*
X113693854Y-90978908D01*
X113523288Y-91092877D01*
X113523287Y-91092878D01*
X113523286Y-91092878D01*
X113333766Y-91171380D01*
X113132569Y-91211400D01*
X112927431Y-91211400D01*
X112726234Y-91171380D01*
X112536714Y-91092878D01*
X112536713Y-91092878D01*
X112536712Y-91092877D01*
X112366146Y-90978908D01*
X112221092Y-90833854D01*
X112107123Y-90663288D01*
X112028620Y-90473765D01*
X111988600Y-90272569D01*
X111988600Y-90067431D01*
X112028620Y-89866235D01*
X112107123Y-89676712D01*
X112221092Y-89506146D01*
X112366146Y-89361092D01*
X112536712Y-89247123D01*
X112536714Y-89247122D01*
X112726234Y-89168620D01*
X112927431Y-89128600D01*
X113132569Y-89128600D01*
X113333766Y-89168620D01*
X113333766Y-89168620D01*
G37*
G36*
X113333766Y-86628620D02*
X113523286Y-86707122D01*
X113523288Y-86707123D01*
X113693854Y-86821092D01*
X113838908Y-86966146D01*
X113952877Y-87136712D01*
X114031380Y-87326235D01*
X114071400Y-87527431D01*
X114071400Y-87732569D01*
X114031380Y-87933765D01*
X113952877Y-88123288D01*
X113838908Y-88293854D01*
X113693854Y-88438908D01*
X113523288Y-88552877D01*
X113523287Y-88552878D01*
X113523286Y-88552878D01*
X113333766Y-88631380D01*
X113132569Y-88671400D01*
X112927431Y-88671400D01*
X112726234Y-88631380D01*
X112536714Y-88552878D01*
X112536713Y-88552878D01*
X112536712Y-88552877D01*
X112366146Y-88438908D01*
X112221092Y-88293854D01*
X112107123Y-88123288D01*
X112028620Y-87933765D01*
X111988600Y-87732569D01*
X111988600Y-87527431D01*
X112028620Y-87326235D01*
X112107123Y-87136712D01*
X112221092Y-86966146D01*
X112366146Y-86821092D01*
X112536712Y-86707123D01*
X112536714Y-86707122D01*
X112726234Y-86628620D01*
X112927431Y-86588600D01*
X113132569Y-86588600D01*
X113333766Y-86628620D01*
X113333766Y-86628620D01*
G37*
G36*
X113333766Y-84088620D02*
X113523286Y-84167122D01*
X113523288Y-84167123D01*
X113693854Y-84281092D01*
X113838908Y-84426146D01*
X113952877Y-84596712D01*
X114031380Y-84786235D01*
X114071400Y-84987431D01*
X114071400Y-85192569D01*
X114031380Y-85393765D01*
X113952877Y-85583288D01*
X113838908Y-85753854D01*
X113693854Y-85898908D01*
X113523288Y-86012877D01*
X113523287Y-86012878D01*
X113523286Y-86012878D01*
X113333766Y-86091380D01*
X113132569Y-86131400D01*
X112927431Y-86131400D01*
X112726234Y-86091380D01*
X112536714Y-86012878D01*
X112536713Y-86012878D01*
X112536712Y-86012877D01*
X112366146Y-85898908D01*
X112221092Y-85753854D01*
X112107123Y-85583288D01*
X112028620Y-85393765D01*
X111988600Y-85192569D01*
X111988600Y-84987431D01*
X112028620Y-84786235D01*
X112107123Y-84596712D01*
X112221092Y-84426146D01*
X112366146Y-84281092D01*
X112536712Y-84167123D01*
X112536714Y-84167122D01*
X112726234Y-84088620D01*
X112927431Y-84048600D01*
X113132569Y-84048600D01*
X113333766Y-84088620D01*
X113333766Y-84088620D01*
G37*
G36*
X108888766Y-81548620D02*
X109078286Y-81627122D01*
X109078288Y-81627123D01*
X109248854Y-81741092D01*
X109393908Y-81886146D01*
X109507877Y-82056712D01*
X109586380Y-82246235D01*
X109626400Y-82447431D01*
X109626400Y-82652569D01*
X109586380Y-82853765D01*
X109507877Y-83043288D01*
X109393908Y-83213854D01*
X109248854Y-83358908D01*
X109078288Y-83472877D01*
X109078287Y-83472878D01*
X109078286Y-83472878D01*
X108888766Y-83551380D01*
X108687569Y-83591400D01*
X108482431Y-83591400D01*
X108281234Y-83551380D01*
X108091714Y-83472878D01*
X108091713Y-83472878D01*
X108091712Y-83472877D01*
X107921146Y-83358908D01*
X107776092Y-83213854D01*
X107662123Y-83043288D01*
X107583620Y-82853765D01*
X107543600Y-82652569D01*
X107543600Y-82447431D01*
X107583620Y-82246235D01*
X107662123Y-82056712D01*
X107776092Y-81886146D01*
X107921146Y-81741092D01*
X108091712Y-81627123D01*
X108091714Y-81627122D01*
X108281234Y-81548620D01*
X108482431Y-81508600D01*
X108687569Y-81508600D01*
X108888766Y-81548620D01*
X108888766Y-81548620D01*
G37*
G36*
X106348766Y-81548620D02*
X106538286Y-81627122D01*
X106538288Y-81627123D01*
X106708854Y-81741092D01*
X106853908Y-81886146D01*
X106967877Y-82056712D01*
X107046380Y-82246235D01*
X107086400Y-82447431D01*
X107086400Y-82652569D01*
X107046380Y-82853765D01*
X106967877Y-83043288D01*
X106853908Y-83213854D01*
X106708854Y-83358908D01*
X106538288Y-83472877D01*
X106538287Y-83472878D01*
X106538286Y-83472878D01*
X106348766Y-83551380D01*
X106147569Y-83591400D01*
X105942431Y-83591400D01*
X105741234Y-83551380D01*
X105551714Y-83472878D01*
X105551713Y-83472878D01*
X105551712Y-83472877D01*
X105381146Y-83358908D01*
X105236092Y-83213854D01*
X105122123Y-83043288D01*
X105043620Y-82853765D01*
X105003600Y-82652569D01*
X105003600Y-82447431D01*
X105043620Y-82246235D01*
X105122123Y-82056712D01*
X105236092Y-81886146D01*
X105381146Y-81741092D01*
X105551712Y-81627123D01*
X105551714Y-81627122D01*
X105741234Y-81548620D01*
X105942431Y-81508600D01*
X106147569Y-81508600D01*
X106348766Y-81548620D01*
X106348766Y-81548620D01*
G37*
G36*
X113333766Y-81548620D02*
X113523286Y-81627122D01*
X113523288Y-81627123D01*
X113693854Y-81741092D01*
X113838908Y-81886146D01*
X113952877Y-82056712D01*
X114031380Y-82246235D01*
X114071400Y-82447431D01*
X114071400Y-82652569D01*
X114031380Y-82853765D01*
X113952877Y-83043288D01*
X113838908Y-83213854D01*
X113693854Y-83358908D01*
X113523288Y-83472877D01*
X113523287Y-83472878D01*
X113523286Y-83472878D01*
X113333766Y-83551380D01*
X113132569Y-83591400D01*
X112927431Y-83591400D01*
X112726234Y-83551380D01*
X112536714Y-83472878D01*
X112536713Y-83472878D01*
X112536712Y-83472877D01*
X112366146Y-83358908D01*
X112221092Y-83213854D01*
X112107123Y-83043288D01*
X112028620Y-82853765D01*
X111988600Y-82652569D01*
X111988600Y-82447431D01*
X112028620Y-82246235D01*
X112107123Y-82056712D01*
X112221092Y-81886146D01*
X112366146Y-81741092D01*
X112536712Y-81627123D01*
X112536714Y-81627122D01*
X112726234Y-81548620D01*
X112927431Y-81508600D01*
X113132569Y-81508600D01*
X113333766Y-81548620D01*
X113333766Y-81548620D01*
G37*
G36*
X103808766Y-81548620D02*
X103998286Y-81627122D01*
X103998288Y-81627123D01*
X104168854Y-81741092D01*
X104313908Y-81886146D01*
X104427877Y-82056712D01*
X104506380Y-82246235D01*
X104546400Y-82447431D01*
X104546400Y-82652569D01*
X104506380Y-82853765D01*
X104427877Y-83043288D01*
X104313908Y-83213854D01*
X104168854Y-83358908D01*
X103998288Y-83472877D01*
X103998287Y-83472878D01*
X103998286Y-83472878D01*
X103808766Y-83551380D01*
X103607569Y-83591400D01*
X103402431Y-83591400D01*
X103201234Y-83551380D01*
X103011714Y-83472878D01*
X103011713Y-83472878D01*
X103011712Y-83472877D01*
X102841146Y-83358908D01*
X102696092Y-83213854D01*
X102582123Y-83043288D01*
X102503620Y-82853765D01*
X102463600Y-82652569D01*
X102463600Y-82447431D01*
X102503620Y-82246235D01*
X102582123Y-82056712D01*
X102696092Y-81886146D01*
X102841146Y-81741092D01*
X103011712Y-81627123D01*
X103011714Y-81627122D01*
X103201234Y-81548620D01*
X103402431Y-81508600D01*
X103607569Y-81508600D01*
X103808766Y-81548620D01*
X103808766Y-81548620D01*
G37*
G36*
X108888766Y-79008620D02*
X109078286Y-79087122D01*
X109078288Y-79087123D01*
X109248854Y-79201092D01*
X109393908Y-79346146D01*
X109507877Y-79516712D01*
X109586380Y-79706235D01*
X109626400Y-79907431D01*
X109626400Y-80112569D01*
X109586380Y-80313765D01*
X109507877Y-80503288D01*
X109393908Y-80673854D01*
X109248854Y-80818908D01*
X109078288Y-80932877D01*
X109078287Y-80932878D01*
X109078286Y-80932878D01*
X108888766Y-81011380D01*
X108687569Y-81051400D01*
X108482431Y-81051400D01*
X108281234Y-81011380D01*
X108091714Y-80932878D01*
X108091713Y-80932878D01*
X108091712Y-80932877D01*
X107921146Y-80818908D01*
X107776092Y-80673854D01*
X107662123Y-80503288D01*
X107583620Y-80313765D01*
X107543600Y-80112569D01*
X107543600Y-79907431D01*
X107583620Y-79706235D01*
X107662123Y-79516712D01*
X107776092Y-79346146D01*
X107921146Y-79201092D01*
X108091712Y-79087123D01*
X108091714Y-79087122D01*
X108281234Y-79008620D01*
X108482431Y-78968600D01*
X108687569Y-78968600D01*
X108888766Y-79008620D01*
X108888766Y-79008620D01*
G37*
G36*
X113333766Y-79008620D02*
X113523286Y-79087122D01*
X113523288Y-79087123D01*
X113693854Y-79201092D01*
X113838908Y-79346146D01*
X113952877Y-79516712D01*
X114031380Y-79706235D01*
X114071400Y-79907431D01*
X114071400Y-80112569D01*
X114031380Y-80313765D01*
X113952877Y-80503288D01*
X113838908Y-80673854D01*
X113693854Y-80818908D01*
X113523288Y-80932877D01*
X113523287Y-80932878D01*
X113523286Y-80932878D01*
X113333766Y-81011380D01*
X113132569Y-81051400D01*
X112927431Y-81051400D01*
X112726234Y-81011380D01*
X112536714Y-80932878D01*
X112536713Y-80932878D01*
X112536712Y-80932877D01*
X112366146Y-80818908D01*
X112221092Y-80673854D01*
X112107123Y-80503288D01*
X112028620Y-80313765D01*
X111988600Y-80112569D01*
X111988600Y-79907431D01*
X112028620Y-79706235D01*
X112107123Y-79516712D01*
X112221092Y-79346146D01*
X112366146Y-79201092D01*
X112536712Y-79087123D01*
X112536714Y-79087122D01*
X112726234Y-79008620D01*
X112927431Y-78968600D01*
X113132569Y-78968600D01*
X113333766Y-79008620D01*
X113333766Y-79008620D01*
G37*
G36*
X106348766Y-79008620D02*
X106538286Y-79087122D01*
X106538288Y-79087123D01*
X106708854Y-79201092D01*
X106853908Y-79346146D01*
X106967877Y-79516712D01*
X107046380Y-79706235D01*
X107086400Y-79907431D01*
X107086400Y-80112569D01*
X107046380Y-80313765D01*
X106967877Y-80503288D01*
X106853908Y-80673854D01*
X106708854Y-80818908D01*
X106538288Y-80932877D01*
X106538287Y-80932878D01*
X106538286Y-80932878D01*
X106348766Y-81011380D01*
X106147569Y-81051400D01*
X105942431Y-81051400D01*
X105741234Y-81011380D01*
X105551714Y-80932878D01*
X105551713Y-80932878D01*
X105551712Y-80932877D01*
X105381146Y-80818908D01*
X105236092Y-80673854D01*
X105122123Y-80503288D01*
X105043620Y-80313765D01*
X105003600Y-80112569D01*
X105003600Y-79907431D01*
X105043620Y-79706235D01*
X105122123Y-79516712D01*
X105236092Y-79346146D01*
X105381146Y-79201092D01*
X105551712Y-79087123D01*
X105551714Y-79087122D01*
X105741234Y-79008620D01*
X105942431Y-78968600D01*
X106147569Y-78968600D01*
X106348766Y-79008620D01*
X106348766Y-79008620D01*
G37*
G36*
X103808766Y-79008620D02*
X103998286Y-79087122D01*
X103998288Y-79087123D01*
X104168854Y-79201092D01*
X104313908Y-79346146D01*
X104427877Y-79516712D01*
X104506380Y-79706235D01*
X104546400Y-79907431D01*
X104546400Y-80112569D01*
X104506380Y-80313765D01*
X104427877Y-80503288D01*
X104313908Y-80673854D01*
X104168854Y-80818908D01*
X103998288Y-80932877D01*
X103998287Y-80932878D01*
X103998286Y-80932878D01*
X103808766Y-81011380D01*
X103607569Y-81051400D01*
X103402431Y-81051400D01*
X103201234Y-81011380D01*
X103011714Y-80932878D01*
X103011713Y-80932878D01*
X103011712Y-80932877D01*
X102841146Y-80818908D01*
X102696092Y-80673854D01*
X102582123Y-80503288D01*
X102503620Y-80313765D01*
X102463600Y-80112569D01*
X102463600Y-79907431D01*
X102503620Y-79706235D01*
X102582123Y-79516712D01*
X102696092Y-79346146D01*
X102841146Y-79201092D01*
X103011712Y-79087123D01*
X103011714Y-79087122D01*
X103201234Y-79008620D01*
X103402431Y-78968600D01*
X103607569Y-78968600D01*
X103808766Y-79008620D01*
X103808766Y-79008620D01*
G37*
G36*
X87426791Y-71678156D02*
X87768212Y-71746069D01*
X88250623Y-71945890D01*
X88684788Y-72235990D01*
X89054010Y-72605212D01*
X89344110Y-73039377D01*
X89543931Y-73521788D01*
X89645800Y-74033920D01*
X89645800Y-74556080D01*
X89543931Y-75068212D01*
X89344110Y-75550623D01*
X89054010Y-75984788D01*
X88684788Y-76354010D01*
X88250623Y-76644110D01*
X87768212Y-76843931D01*
X87426791Y-76911844D01*
X87256081Y-76945800D01*
X86733919Y-76945800D01*
X86563209Y-76911844D01*
X86221788Y-76843931D01*
X85739377Y-76644110D01*
X85305212Y-76354010D01*
X84935990Y-75984788D01*
X84645890Y-75550623D01*
X84446069Y-75068212D01*
X84344200Y-74556080D01*
X84344200Y-74033920D01*
X84446069Y-73521788D01*
X84645890Y-73039377D01*
X84935990Y-72605212D01*
X85305212Y-72235990D01*
X85739377Y-71945890D01*
X86221788Y-71746069D01*
X86563209Y-71678156D01*
X86733919Y-71644200D01*
X87256081Y-71644200D01*
X87426791Y-71678156D01*
X87426791Y-71678156D01*
G37*
G36*
X114096791Y-71678156D02*
X114438212Y-71746069D01*
X114920623Y-71945890D01*
X115354788Y-72235990D01*
X115724010Y-72605212D01*
X116014110Y-73039377D01*
X116213931Y-73521788D01*
X116315800Y-74033920D01*
X116315800Y-74556080D01*
X116213931Y-75068212D01*
X116014110Y-75550623D01*
X115724010Y-75984788D01*
X115354788Y-76354010D01*
X114920623Y-76644110D01*
X114438212Y-76843931D01*
X114096791Y-76911844D01*
X113926081Y-76945800D01*
X113403919Y-76945800D01*
X113233209Y-76911844D01*
X112891788Y-76843931D01*
X112409377Y-76644110D01*
X111975212Y-76354010D01*
X111605990Y-75984788D01*
X111315890Y-75550623D01*
X111116069Y-75068212D01*
X111014200Y-74556080D01*
X111014200Y-74033920D01*
X111116069Y-73521788D01*
X111315890Y-73039377D01*
X111605990Y-72605212D01*
X111975212Y-72235990D01*
X112409377Y-71945890D01*
X112891788Y-71746069D01*
X113233209Y-71678156D01*
X113403919Y-71644200D01*
X113926081Y-71644200D01*
X114096791Y-71678156D01*
X114096791Y-71678156D01*
G37*
M02*
