M48
;DRILL file {KiCad (5.0.2)-1} date 6/24/2020 10:28:19 PM
;FORMAT={-:-/ absolute / inch / decimal}
FMAT,2
INCH,TZ
T1C0.0130
T2C0.0197
T3C0.0400
T4C0.1300
%
G90
G05
T1
X1.3Y-2.95
X1.3Y-3.2
X1.325Y-2.925
X1.325Y-3.225
X1.35Y-2.9
X1.35Y-3.25
X3.025Y-1.9
X3.025Y-1.9
X3.025Y-3.6
X3.025Y-3.6
X3.05Y-1.875
X3.05Y-1.875
X3.05Y-3.625
X3.05Y-3.625
T2
X1.045Y-4.375
X1.065Y-4.315
X1.065Y-4.435
X1.125Y-4.295
X1.125Y-4.455
X1.185Y-4.315
X1.185Y-4.435
X1.205Y-4.375
X4.595Y-4.375
X4.615Y-4.315
X4.615Y-4.435
X4.675Y-4.295
X4.675Y-4.455
X4.735Y-4.315
X4.735Y-4.435
X4.755Y-4.375
X4.595Y-1.125
X4.615Y-1.065
X4.615Y-1.185
X4.675Y-1.045
X4.675Y-1.205
X4.735Y-1.065
X4.735Y-1.185
X4.755Y-1.125
X1.045Y-1.125
X1.065Y-1.065
X1.065Y-1.185
X1.125Y-1.045
X1.125Y-1.205
X1.185Y-1.065
X1.185Y-1.185
X1.205Y-1.125
T3
X1.075Y-2.875
X1.075Y-2.975
X1.075Y-3.075
X1.075Y-3.175
T4
X4.675Y-4.375
X4.675Y-1.125
X1.125Y-1.125
X1.125Y-4.375
T0
M30
