G04 #@! TF.GenerationSoftware,KiCad,Pcbnew,(5.0.2)-1*
G04 #@! TF.CreationDate,2020-06-24T22:28:35-05:00*
G04 #@! TF.ProjectId,ProximityTankTwo_V1,50726f78-696d-4697-9479-54616e6b5477,rev?*
G04 #@! TF.SameCoordinates,Original*
G04 #@! TF.FileFunction,Legend,Top*
G04 #@! TF.FilePolarity,Positive*
%FSLAX46Y46*%
G04 Gerber Fmt 4.6, Leading zero omitted, Abs format (unit mm)*
G04 Created by KiCad (PCBNEW (5.0.2)-1) date 6/24/2020 10:28:35 PM*
%MOMM*%
%LPD*%
G01*
G04 APERTURE LIST*
%ADD10C,0.300000*%
%ADD11C,0.200000*%
%ADD12C,0.025400*%
%ADD13C,0.120000*%
%ADD14C,0.203200*%
%ADD15C,0.150000*%
%ADD16C,0.127000*%
G04 APERTURE END LIST*
D10*
X51722142Y-67978571D02*
X51722142Y-66478571D01*
X52293571Y-66478571D01*
X52436428Y-66550000D01*
X52507857Y-66621428D01*
X52579285Y-66764285D01*
X52579285Y-66978571D01*
X52507857Y-67121428D01*
X52436428Y-67192857D01*
X52293571Y-67264285D01*
X51722142Y-67264285D01*
X53222142Y-67978571D02*
X53222142Y-66978571D01*
X53222142Y-67264285D02*
X53293571Y-67121428D01*
X53365000Y-67050000D01*
X53507857Y-66978571D01*
X53650714Y-66978571D01*
X54365000Y-67978571D02*
X54222142Y-67907142D01*
X54150714Y-67835714D01*
X54079285Y-67692857D01*
X54079285Y-67264285D01*
X54150714Y-67121428D01*
X54222142Y-67050000D01*
X54365000Y-66978571D01*
X54579285Y-66978571D01*
X54722142Y-67050000D01*
X54793571Y-67121428D01*
X54865000Y-67264285D01*
X54865000Y-67692857D01*
X54793571Y-67835714D01*
X54722142Y-67907142D01*
X54579285Y-67978571D01*
X54365000Y-67978571D01*
X55365000Y-67978571D02*
X56150714Y-66978571D01*
X55365000Y-66978571D02*
X56150714Y-67978571D01*
X56722142Y-67978571D02*
X56722142Y-66978571D01*
X56722142Y-66478571D02*
X56650714Y-66550000D01*
X56722142Y-66621428D01*
X56793571Y-66550000D01*
X56722142Y-66478571D01*
X56722142Y-66621428D01*
X57436428Y-67978571D02*
X57436428Y-66978571D01*
X57436428Y-67121428D02*
X57507857Y-67050000D01*
X57650714Y-66978571D01*
X57865000Y-66978571D01*
X58007857Y-67050000D01*
X58079285Y-67192857D01*
X58079285Y-67978571D01*
X58079285Y-67192857D02*
X58150714Y-67050000D01*
X58293571Y-66978571D01*
X58507857Y-66978571D01*
X58650714Y-67050000D01*
X58722142Y-67192857D01*
X58722142Y-67978571D01*
X59436428Y-67978571D02*
X59436428Y-66978571D01*
X59436428Y-66478571D02*
X59365000Y-66550000D01*
X59436428Y-66621428D01*
X59507857Y-66550000D01*
X59436428Y-66478571D01*
X59436428Y-66621428D01*
X59936428Y-66978571D02*
X60507857Y-66978571D01*
X60150714Y-66478571D02*
X60150714Y-67764285D01*
X60222142Y-67907142D01*
X60365000Y-67978571D01*
X60507857Y-67978571D01*
X60865000Y-66978571D02*
X61222142Y-67978571D01*
X61579285Y-66978571D02*
X61222142Y-67978571D01*
X61079285Y-68335714D01*
X61007857Y-68407142D01*
X60865000Y-68478571D01*
X63222142Y-67907142D02*
X63436428Y-67978571D01*
X63793571Y-67978571D01*
X63936428Y-67907142D01*
X64007857Y-67835714D01*
X64079285Y-67692857D01*
X64079285Y-67550000D01*
X64007857Y-67407142D01*
X63936428Y-67335714D01*
X63793571Y-67264285D01*
X63507857Y-67192857D01*
X63365000Y-67121428D01*
X63293571Y-67050000D01*
X63222142Y-66907142D01*
X63222142Y-66764285D01*
X63293571Y-66621428D01*
X63365000Y-66550000D01*
X63507857Y-66478571D01*
X63865000Y-66478571D01*
X64079285Y-66550000D01*
X65293571Y-67907142D02*
X65150714Y-67978571D01*
X64865000Y-67978571D01*
X64722142Y-67907142D01*
X64650714Y-67764285D01*
X64650714Y-67192857D01*
X64722142Y-67050000D01*
X64865000Y-66978571D01*
X65150714Y-66978571D01*
X65293571Y-67050000D01*
X65365000Y-67192857D01*
X65365000Y-67335714D01*
X64650714Y-67478571D01*
X66007857Y-66978571D02*
X66007857Y-67978571D01*
X66007857Y-67121428D02*
X66079285Y-67050000D01*
X66222142Y-66978571D01*
X66436428Y-66978571D01*
X66579285Y-67050000D01*
X66650714Y-67192857D01*
X66650714Y-67978571D01*
X67293571Y-67907142D02*
X67436428Y-67978571D01*
X67722142Y-67978571D01*
X67865000Y-67907142D01*
X67936428Y-67764285D01*
X67936428Y-67692857D01*
X67865000Y-67550000D01*
X67722142Y-67478571D01*
X67507857Y-67478571D01*
X67365000Y-67407142D01*
X67293571Y-67264285D01*
X67293571Y-67192857D01*
X67365000Y-67050000D01*
X67507857Y-66978571D01*
X67722142Y-66978571D01*
X67865000Y-67050000D01*
X68793571Y-67978571D02*
X68650714Y-67907142D01*
X68579285Y-67835714D01*
X68507857Y-67692857D01*
X68507857Y-67264285D01*
X68579285Y-67121428D01*
X68650714Y-67050000D01*
X68793571Y-66978571D01*
X69007857Y-66978571D01*
X69150714Y-67050000D01*
X69222142Y-67121428D01*
X69293571Y-67264285D01*
X69293571Y-67692857D01*
X69222142Y-67835714D01*
X69150714Y-67907142D01*
X69007857Y-67978571D01*
X68793571Y-67978571D01*
X69936428Y-67978571D02*
X69936428Y-66978571D01*
X69936428Y-67264285D02*
X70007857Y-67121428D01*
X70079285Y-67050000D01*
X70222142Y-66978571D01*
X70365000Y-66978571D01*
X71793571Y-66478571D02*
X72293571Y-67978571D01*
X72793571Y-66478571D01*
X74079285Y-67978571D02*
X73222142Y-67978571D01*
X73650714Y-67978571D02*
X73650714Y-66478571D01*
X73507857Y-66692857D01*
X73365000Y-66835714D01*
X73222142Y-66907142D01*
X52186428Y-69028571D02*
X53043571Y-69028571D01*
X52615000Y-70528571D02*
X52615000Y-69028571D01*
X54186428Y-70528571D02*
X54186428Y-69742857D01*
X54115000Y-69600000D01*
X53972142Y-69528571D01*
X53686428Y-69528571D01*
X53543571Y-69600000D01*
X54186428Y-70457142D02*
X54043571Y-70528571D01*
X53686428Y-70528571D01*
X53543571Y-70457142D01*
X53472142Y-70314285D01*
X53472142Y-70171428D01*
X53543571Y-70028571D01*
X53686428Y-69957142D01*
X54043571Y-69957142D01*
X54186428Y-69885714D01*
X54900714Y-69528571D02*
X54900714Y-70528571D01*
X54900714Y-69671428D02*
X54972142Y-69600000D01*
X55115000Y-69528571D01*
X55329285Y-69528571D01*
X55472142Y-69600000D01*
X55543571Y-69742857D01*
X55543571Y-70528571D01*
X56257857Y-70528571D02*
X56257857Y-69028571D01*
X56400714Y-69957142D02*
X56829285Y-70528571D01*
X56829285Y-69528571D02*
X56257857Y-70100000D01*
X59400714Y-70528571D02*
X58543571Y-70528571D01*
X58972142Y-70528571D02*
X58972142Y-69028571D01*
X58829285Y-69242857D01*
X58686428Y-69385714D01*
X58543571Y-69457142D01*
X61829285Y-70528571D02*
X61829285Y-69742857D01*
X61757857Y-69600000D01*
X61615000Y-69528571D01*
X61329285Y-69528571D01*
X61186428Y-69600000D01*
X61829285Y-70457142D02*
X61686428Y-70528571D01*
X61329285Y-70528571D01*
X61186428Y-70457142D01*
X61115000Y-70314285D01*
X61115000Y-70171428D01*
X61186428Y-70028571D01*
X61329285Y-69957142D01*
X61686428Y-69957142D01*
X61829285Y-69885714D01*
X62543571Y-69528571D02*
X62543571Y-70528571D01*
X62543571Y-69671428D02*
X62615000Y-69600000D01*
X62757857Y-69528571D01*
X62972142Y-69528571D01*
X63115000Y-69600000D01*
X63186428Y-69742857D01*
X63186428Y-70528571D01*
X64543571Y-70528571D02*
X64543571Y-69028571D01*
X64543571Y-70457142D02*
X64400714Y-70528571D01*
X64114999Y-70528571D01*
X63972142Y-70457142D01*
X63900714Y-70385714D01*
X63829285Y-70242857D01*
X63829285Y-69814285D01*
X63900714Y-69671428D01*
X63972142Y-69600000D01*
X64114999Y-69528571D01*
X64400714Y-69528571D01*
X64543571Y-69600000D01*
X66186428Y-69028571D02*
X67043571Y-69028571D01*
X66614999Y-70528571D02*
X66614999Y-69028571D01*
X68186428Y-70528571D02*
X68186428Y-69742857D01*
X68115000Y-69600000D01*
X67972142Y-69528571D01*
X67686428Y-69528571D01*
X67543571Y-69600000D01*
X68186428Y-70457142D02*
X68043571Y-70528571D01*
X67686428Y-70528571D01*
X67543571Y-70457142D01*
X67472142Y-70314285D01*
X67472142Y-70171428D01*
X67543571Y-70028571D01*
X67686428Y-69957142D01*
X68043571Y-69957142D01*
X68186428Y-69885714D01*
X68900714Y-69528571D02*
X68900714Y-70528571D01*
X68900714Y-69671428D02*
X68972142Y-69600000D01*
X69115000Y-69528571D01*
X69329285Y-69528571D01*
X69472142Y-69600000D01*
X69543571Y-69742857D01*
X69543571Y-70528571D01*
X70257857Y-70528571D02*
X70257857Y-69028571D01*
X70400714Y-69957142D02*
X70829285Y-70528571D01*
X70829285Y-69528571D02*
X70257857Y-70100000D01*
X72543571Y-69171428D02*
X72614999Y-69100000D01*
X72757857Y-69028571D01*
X73114999Y-69028571D01*
X73257857Y-69100000D01*
X73329285Y-69171428D01*
X73400714Y-69314285D01*
X73400714Y-69457142D01*
X73329285Y-69671428D01*
X72472142Y-70528571D01*
X73400714Y-70528571D01*
X57650714Y-71578571D02*
X57650714Y-72650000D01*
X57579285Y-72864285D01*
X57436428Y-73007142D01*
X57222142Y-73078571D01*
X57079285Y-73078571D01*
X59007857Y-72078571D02*
X59007857Y-73078571D01*
X58365000Y-72078571D02*
X58365000Y-72864285D01*
X58436428Y-73007142D01*
X58579285Y-73078571D01*
X58793571Y-73078571D01*
X58936428Y-73007142D01*
X59007857Y-72935714D01*
X59722142Y-72078571D02*
X59722142Y-73078571D01*
X59722142Y-72221428D02*
X59793571Y-72150000D01*
X59936428Y-72078571D01*
X60150714Y-72078571D01*
X60293571Y-72150000D01*
X60365000Y-72292857D01*
X60365000Y-73078571D01*
X61650714Y-73007142D02*
X61507857Y-73078571D01*
X61222142Y-73078571D01*
X61079285Y-73007142D01*
X61007857Y-72864285D01*
X61007857Y-72292857D01*
X61079285Y-72150000D01*
X61222142Y-72078571D01*
X61507857Y-72078571D01*
X61650714Y-72150000D01*
X61722142Y-72292857D01*
X61722142Y-72435714D01*
X61007857Y-72578571D01*
X63436428Y-71721428D02*
X63507857Y-71650000D01*
X63650714Y-71578571D01*
X64007857Y-71578571D01*
X64150714Y-71650000D01*
X64222142Y-71721428D01*
X64293571Y-71864285D01*
X64293571Y-72007142D01*
X64222142Y-72221428D01*
X63365000Y-73078571D01*
X64293571Y-73078571D01*
X65222142Y-71578571D02*
X65365000Y-71578571D01*
X65507857Y-71650000D01*
X65579285Y-71721428D01*
X65650714Y-71864285D01*
X65722142Y-72150000D01*
X65722142Y-72507142D01*
X65650714Y-72792857D01*
X65579285Y-72935714D01*
X65507857Y-73007142D01*
X65365000Y-73078571D01*
X65222142Y-73078571D01*
X65079285Y-73007142D01*
X65007857Y-72935714D01*
X64936428Y-72792857D01*
X64865000Y-72507142D01*
X64865000Y-72150000D01*
X64936428Y-71864285D01*
X65007857Y-71721428D01*
X65079285Y-71650000D01*
X65222142Y-71578571D01*
X66293571Y-71721428D02*
X66365000Y-71650000D01*
X66507857Y-71578571D01*
X66865000Y-71578571D01*
X67007857Y-71650000D01*
X67079285Y-71721428D01*
X67150714Y-71864285D01*
X67150714Y-72007142D01*
X67079285Y-72221428D01*
X66222142Y-73078571D01*
X67150714Y-73078571D01*
X68079285Y-71578571D02*
X68222142Y-71578571D01*
X68365000Y-71650000D01*
X68436428Y-71721428D01*
X68507857Y-71864285D01*
X68579285Y-72150000D01*
X68579285Y-72507142D01*
X68507857Y-72792857D01*
X68436428Y-72935714D01*
X68365000Y-73007142D01*
X68222142Y-73078571D01*
X68079285Y-73078571D01*
X67936428Y-73007142D01*
X67865000Y-72935714D01*
X67793571Y-72792857D01*
X67722142Y-72507142D01*
X67722142Y-72150000D01*
X67793571Y-71864285D01*
X67865000Y-71721428D01*
X67936428Y-71650000D01*
X68079285Y-71578571D01*
D11*
X77470000Y-25400000D02*
X121920000Y-69850000D01*
X33020000Y-69850000D02*
X77470000Y-114300000D01*
X77470000Y-25400000D02*
X33020000Y-69850000D01*
X33020000Y-114300000D02*
X121920000Y-25400000D01*
X33020000Y-25400000D02*
X121920000Y-114300000D01*
X77470000Y-114300000D02*
X121920000Y-69850000D01*
X77470000Y-25400000D02*
X77470000Y-114300000D01*
X33020000Y-69850000D02*
X121920000Y-114300000D01*
X33020000Y-114300000D02*
X121920000Y-69850000D01*
X33020000Y-25400000D02*
X121920000Y-69850000D01*
X33020000Y-69850000D02*
X121920000Y-25400000D01*
X33020000Y-25400000D02*
X33020000Y-114300000D01*
X121920000Y-69850000D02*
X33020000Y-69850000D01*
D10*
X20168571Y-101865357D02*
X20168571Y-102722500D01*
X20168571Y-102293928D02*
X18668571Y-102293928D01*
X18882857Y-102436785D01*
X19025714Y-102579642D01*
X19097142Y-102722500D01*
X20025714Y-101222500D02*
X20097142Y-101151071D01*
X20168571Y-101222500D01*
X20097142Y-101293928D01*
X20025714Y-101222500D01*
X20168571Y-101222500D01*
X18668571Y-100651071D02*
X18668571Y-99722500D01*
X19240000Y-100222500D01*
X19240000Y-100008214D01*
X19311428Y-99865357D01*
X19382857Y-99793928D01*
X19525714Y-99722500D01*
X19882857Y-99722500D01*
X20025714Y-99793928D01*
X20097142Y-99865357D01*
X20168571Y-100008214D01*
X20168571Y-100436785D01*
X20097142Y-100579642D01*
X20025714Y-100651071D01*
X18811428Y-99151071D02*
X18740000Y-99079642D01*
X18668571Y-98936785D01*
X18668571Y-98579642D01*
X18740000Y-98436785D01*
X18811428Y-98365357D01*
X18954285Y-98293928D01*
X19097142Y-98293928D01*
X19311428Y-98365357D01*
X20168571Y-99222500D01*
X20168571Y-98293928D01*
X18668571Y-96936785D02*
X18668571Y-97651071D01*
X19382857Y-97722500D01*
X19311428Y-97651071D01*
X19240000Y-97508214D01*
X19240000Y-97151071D01*
X19311428Y-97008214D01*
X19382857Y-96936785D01*
X19525714Y-96865357D01*
X19882857Y-96865357D01*
X20025714Y-96936785D01*
X20097142Y-97008214D01*
X20168571Y-97151071D01*
X20168571Y-97508214D01*
X20097142Y-97651071D01*
X20025714Y-97722500D01*
X18668571Y-95936785D02*
X18668571Y-95793928D01*
X18740000Y-95651071D01*
X18811428Y-95579642D01*
X18954285Y-95508214D01*
X19240000Y-95436785D01*
X19597142Y-95436785D01*
X19882857Y-95508214D01*
X20025714Y-95579642D01*
X20097142Y-95651071D01*
X20168571Y-95793928D01*
X20168571Y-95936785D01*
X20097142Y-96079642D01*
X20025714Y-96151071D01*
X19882857Y-96222500D01*
X19597142Y-96293928D01*
X19240000Y-96293928D01*
X18954285Y-96222500D01*
X18811428Y-96151071D01*
X18740000Y-96079642D01*
X18668571Y-95936785D01*
X20168571Y-93651071D02*
X19168571Y-93651071D01*
X18668571Y-93651071D02*
X18740000Y-93722500D01*
X18811428Y-93651071D01*
X18740000Y-93579642D01*
X18668571Y-93651071D01*
X18811428Y-93651071D01*
X19168571Y-92936785D02*
X20168571Y-92936785D01*
X19311428Y-92936785D02*
X19240000Y-92865357D01*
X19168571Y-92722500D01*
X19168571Y-92508214D01*
X19240000Y-92365357D01*
X19382857Y-92293928D01*
X20168571Y-92293928D01*
X21590000Y-114300000D02*
X21590000Y-80645000D01*
X24765000Y-114300000D02*
X21003579Y-114300000D01*
X24765000Y-80645000D02*
X21003579Y-80645000D01*
X21590000Y-80645000D02*
X22176421Y-81771504D01*
X21590000Y-80645000D02*
X21003579Y-81771504D01*
X21590000Y-114300000D02*
X22176421Y-113173496D01*
X21590000Y-114300000D02*
X21003579Y-113173496D01*
X68338571Y-118753571D02*
X69267142Y-118753571D01*
X68767142Y-119325000D01*
X68981428Y-119325000D01*
X69124285Y-119396428D01*
X69195714Y-119467857D01*
X69267142Y-119610714D01*
X69267142Y-119967857D01*
X69195714Y-120110714D01*
X69124285Y-120182142D01*
X68981428Y-120253571D01*
X68552857Y-120253571D01*
X68410000Y-120182142D01*
X68338571Y-120110714D01*
X69910000Y-120110714D02*
X69981428Y-120182142D01*
X69910000Y-120253571D01*
X69838571Y-120182142D01*
X69910000Y-120110714D01*
X69910000Y-120253571D01*
X70838571Y-119396428D02*
X70695714Y-119325000D01*
X70624285Y-119253571D01*
X70552857Y-119110714D01*
X70552857Y-119039285D01*
X70624285Y-118896428D01*
X70695714Y-118825000D01*
X70838571Y-118753571D01*
X71124285Y-118753571D01*
X71267142Y-118825000D01*
X71338571Y-118896428D01*
X71410000Y-119039285D01*
X71410000Y-119110714D01*
X71338571Y-119253571D01*
X71267142Y-119325000D01*
X71124285Y-119396428D01*
X70838571Y-119396428D01*
X70695714Y-119467857D01*
X70624285Y-119539285D01*
X70552857Y-119682142D01*
X70552857Y-119967857D01*
X70624285Y-120110714D01*
X70695714Y-120182142D01*
X70838571Y-120253571D01*
X71124285Y-120253571D01*
X71267142Y-120182142D01*
X71338571Y-120110714D01*
X71410000Y-119967857D01*
X71410000Y-119682142D01*
X71338571Y-119539285D01*
X71267142Y-119467857D01*
X71124285Y-119396428D01*
X72338571Y-118753571D02*
X72481428Y-118753571D01*
X72624285Y-118825000D01*
X72695714Y-118896428D01*
X72767142Y-119039285D01*
X72838571Y-119325000D01*
X72838571Y-119682142D01*
X72767142Y-119967857D01*
X72695714Y-120110714D01*
X72624285Y-120182142D01*
X72481428Y-120253571D01*
X72338571Y-120253571D01*
X72195714Y-120182142D01*
X72124285Y-120110714D01*
X72052857Y-119967857D01*
X71981428Y-119682142D01*
X71981428Y-119325000D01*
X72052857Y-119039285D01*
X72124285Y-118896428D01*
X72195714Y-118825000D01*
X72338571Y-118753571D01*
X73767142Y-118753571D02*
X73910000Y-118753571D01*
X74052857Y-118825000D01*
X74124285Y-118896428D01*
X74195714Y-119039285D01*
X74267142Y-119325000D01*
X74267142Y-119682142D01*
X74195714Y-119967857D01*
X74124285Y-120110714D01*
X74052857Y-120182142D01*
X73910000Y-120253571D01*
X73767142Y-120253571D01*
X73624285Y-120182142D01*
X73552857Y-120110714D01*
X73481428Y-119967857D01*
X73410000Y-119682142D01*
X73410000Y-119325000D01*
X73481428Y-119039285D01*
X73552857Y-118896428D01*
X73624285Y-118825000D01*
X73767142Y-118753571D01*
X75195714Y-118753571D02*
X75338571Y-118753571D01*
X75481428Y-118825000D01*
X75552857Y-118896428D01*
X75624285Y-119039285D01*
X75695714Y-119325000D01*
X75695714Y-119682142D01*
X75624285Y-119967857D01*
X75552857Y-120110714D01*
X75481428Y-120182142D01*
X75338571Y-120253571D01*
X75195714Y-120253571D01*
X75052857Y-120182142D01*
X74981428Y-120110714D01*
X74910000Y-119967857D01*
X74838571Y-119682142D01*
X74838571Y-119325000D01*
X74910000Y-119039285D01*
X74981428Y-118896428D01*
X75052857Y-118825000D01*
X75195714Y-118753571D01*
X77481428Y-120253571D02*
X77481428Y-119253571D01*
X77481428Y-118753571D02*
X77410000Y-118825000D01*
X77481428Y-118896428D01*
X77552857Y-118825000D01*
X77481428Y-118753571D01*
X77481428Y-118896428D01*
X78195714Y-119253571D02*
X78195714Y-120253571D01*
X78195714Y-119396428D02*
X78267142Y-119325000D01*
X78410000Y-119253571D01*
X78624285Y-119253571D01*
X78767142Y-119325000D01*
X78838571Y-119467857D01*
X78838571Y-120253571D01*
X25400000Y-117475000D02*
X121920000Y-117475000D01*
X25400000Y-114935000D02*
X25400000Y-118061421D01*
X121920000Y-114935000D02*
X121920000Y-118061421D01*
X121920000Y-117475000D02*
X120793496Y-118061421D01*
X121920000Y-117475000D02*
X120793496Y-116888579D01*
X25400000Y-117475000D02*
X26526504Y-118061421D01*
X25400000Y-117475000D02*
X26526504Y-116888579D01*
D12*
X121920000Y-25400000D02*
X25400000Y-25400000D01*
X121920000Y-114300000D02*
X121920000Y-25400000D01*
X25400000Y-114300000D02*
X121920000Y-114300000D01*
X25400000Y-25400000D02*
X25400000Y-114300000D01*
D13*
G04 #@! TO.C,C1*
X31190000Y-74556252D02*
X31190000Y-74033748D01*
X29770000Y-74556252D02*
X29770000Y-74033748D01*
G04 #@! TO.C,C2*
X29770000Y-79636252D02*
X29770000Y-79113748D01*
X31190000Y-79636252D02*
X31190000Y-79113748D01*
D14*
G04 #@! TO.C,J1*
X28575000Y-80010000D02*
X28575000Y-81280000D01*
X28575000Y-81280000D02*
X27940000Y-81915000D01*
X26670000Y-81915000D02*
X26035000Y-81280000D01*
X27940000Y-76835000D02*
X28575000Y-77470000D01*
X28575000Y-77470000D02*
X28575000Y-78740000D01*
X28575000Y-78740000D02*
X27940000Y-79375000D01*
X26670000Y-79375000D02*
X26035000Y-78740000D01*
X26035000Y-78740000D02*
X26035000Y-77470000D01*
X26035000Y-77470000D02*
X26670000Y-76835000D01*
X28575000Y-80010000D02*
X27940000Y-79375000D01*
X26670000Y-79375000D02*
X26035000Y-80010000D01*
X26035000Y-81280000D02*
X26035000Y-80010000D01*
X28575000Y-72390000D02*
X28575000Y-73660000D01*
X28575000Y-73660000D02*
X27940000Y-74295000D01*
X26670000Y-74295000D02*
X26035000Y-73660000D01*
X27940000Y-74295000D02*
X28575000Y-74930000D01*
X28575000Y-74930000D02*
X28575000Y-76200000D01*
X28575000Y-76200000D02*
X27940000Y-76835000D01*
X26670000Y-76835000D02*
X26035000Y-76200000D01*
X26035000Y-76200000D02*
X26035000Y-74930000D01*
X26035000Y-74930000D02*
X26670000Y-74295000D01*
X27940000Y-71755000D02*
X26670000Y-71755000D01*
X28575000Y-72390000D02*
X27940000Y-71755000D01*
X26670000Y-71755000D02*
X26035000Y-72390000D01*
X26035000Y-73660000D02*
X26035000Y-72390000D01*
X27940000Y-81915000D02*
X26670000Y-81915000D01*
G04 #@! TO.C,C1*
D15*
X32107142Y-71921666D02*
X32154761Y-71969285D01*
X32202380Y-72112142D01*
X32202380Y-72207380D01*
X32154761Y-72350238D01*
X32059523Y-72445476D01*
X31964285Y-72493095D01*
X31773809Y-72540714D01*
X31630952Y-72540714D01*
X31440476Y-72493095D01*
X31345238Y-72445476D01*
X31250000Y-72350238D01*
X31202380Y-72207380D01*
X31202380Y-72112142D01*
X31250000Y-71969285D01*
X31297619Y-71921666D01*
X32202380Y-70969285D02*
X32202380Y-71540714D01*
X32202380Y-71255000D02*
X31202380Y-71255000D01*
X31345238Y-71350238D01*
X31440476Y-71445476D01*
X31488095Y-71540714D01*
G04 #@! TO.C,C2*
X32107142Y-82081666D02*
X32154761Y-82129285D01*
X32202380Y-82272142D01*
X32202380Y-82367380D01*
X32154761Y-82510238D01*
X32059523Y-82605476D01*
X31964285Y-82653095D01*
X31773809Y-82700714D01*
X31630952Y-82700714D01*
X31440476Y-82653095D01*
X31345238Y-82605476D01*
X31250000Y-82510238D01*
X31202380Y-82367380D01*
X31202380Y-82272142D01*
X31250000Y-82129285D01*
X31297619Y-82081666D01*
X31297619Y-81700714D02*
X31250000Y-81653095D01*
X31202380Y-81557857D01*
X31202380Y-81319761D01*
X31250000Y-81224523D01*
X31297619Y-81176904D01*
X31392857Y-81129285D01*
X31488095Y-81129285D01*
X31630952Y-81176904D01*
X32202380Y-81748333D01*
X32202380Y-81129285D01*
G04 #@! TO.C,H1*
X27813095Y-32583380D02*
X27813095Y-31583380D01*
X27813095Y-32059571D02*
X28384523Y-32059571D01*
X28384523Y-32583380D02*
X28384523Y-31583380D01*
X29384523Y-32583380D02*
X28813095Y-32583380D01*
X29098809Y-32583380D02*
X29098809Y-31583380D01*
X29003571Y-31726238D01*
X28908333Y-31821476D01*
X28813095Y-31869095D01*
G04 #@! TO.C,H2*
X117983095Y-32583380D02*
X117983095Y-31583380D01*
X117983095Y-32059571D02*
X118554523Y-32059571D01*
X118554523Y-32583380D02*
X118554523Y-31583380D01*
X118983095Y-31678619D02*
X119030714Y-31631000D01*
X119125952Y-31583380D01*
X119364047Y-31583380D01*
X119459285Y-31631000D01*
X119506904Y-31678619D01*
X119554523Y-31773857D01*
X119554523Y-31869095D01*
X119506904Y-32011952D01*
X118935476Y-32583380D01*
X119554523Y-32583380D01*
G04 #@! TO.C,H3*
X113538095Y-113482380D02*
X113538095Y-112482380D01*
X113538095Y-112958571D02*
X114109523Y-112958571D01*
X114109523Y-113482380D02*
X114109523Y-112482380D01*
X114490476Y-112482380D02*
X115109523Y-112482380D01*
X114776190Y-112863333D01*
X114919047Y-112863333D01*
X115014285Y-112910952D01*
X115061904Y-112958571D01*
X115109523Y-113053809D01*
X115109523Y-113291904D01*
X115061904Y-113387142D01*
X115014285Y-113434761D01*
X114919047Y-113482380D01*
X114633333Y-113482380D01*
X114538095Y-113434761D01*
X114490476Y-113387142D01*
G04 #@! TO.C,H4*
X32258095Y-112847380D02*
X32258095Y-111847380D01*
X32258095Y-112323571D02*
X32829523Y-112323571D01*
X32829523Y-112847380D02*
X32829523Y-111847380D01*
X33734285Y-112180714D02*
X33734285Y-112847380D01*
X33496190Y-111799761D02*
X33258095Y-112514047D01*
X33877142Y-112514047D01*
G04 #@! TO.C,J1*
D16*
X26971171Y-82753200D02*
X27406600Y-82753200D01*
X27493685Y-82782228D01*
X27551742Y-82840285D01*
X27580771Y-82927371D01*
X27580771Y-82985428D01*
X27580771Y-82143600D02*
X27580771Y-82491942D01*
X27580771Y-82317771D02*
X26971171Y-82317771D01*
X27058257Y-82375828D01*
X27116314Y-82433885D01*
X27145342Y-82491942D01*
X27580771Y-70840600D02*
X27580771Y-71130885D01*
X26971171Y-71130885D01*
X27522714Y-70289057D02*
X27551742Y-70318085D01*
X27580771Y-70405171D01*
X27580771Y-70463228D01*
X27551742Y-70550314D01*
X27493685Y-70608371D01*
X27435628Y-70637400D01*
X27319514Y-70666428D01*
X27232428Y-70666428D01*
X27116314Y-70637400D01*
X27058257Y-70608371D01*
X27000200Y-70550314D01*
X26971171Y-70463228D01*
X26971171Y-70405171D01*
X27000200Y-70318085D01*
X27029228Y-70289057D01*
X26971171Y-69650428D02*
X26971171Y-69302085D01*
X27580771Y-69476257D02*
X26971171Y-69476257D01*
X27580771Y-68837628D02*
X27261457Y-68837628D01*
X27203400Y-68866657D01*
X27174371Y-68924714D01*
X27174371Y-69040828D01*
X27203400Y-69098885D01*
X27551742Y-68837628D02*
X27580771Y-68895685D01*
X27580771Y-69040828D01*
X27551742Y-69098885D01*
X27493685Y-69127914D01*
X27435628Y-69127914D01*
X27377571Y-69098885D01*
X27348542Y-69040828D01*
X27348542Y-68895685D01*
X27319514Y-68837628D01*
X27174371Y-68547342D02*
X27580771Y-68547342D01*
X27232428Y-68547342D02*
X27203400Y-68518314D01*
X27174371Y-68460257D01*
X27174371Y-68373171D01*
X27203400Y-68315114D01*
X27261457Y-68286085D01*
X27580771Y-68286085D01*
X27580771Y-67995800D02*
X26971171Y-67995800D01*
X27348542Y-67937742D02*
X27580771Y-67763571D01*
X27174371Y-67763571D02*
X27406600Y-67995800D01*
X27551742Y-67531342D02*
X27580771Y-67473285D01*
X27580771Y-67357171D01*
X27551742Y-67299114D01*
X27493685Y-67270085D01*
X27464657Y-67270085D01*
X27406600Y-67299114D01*
X27377571Y-67357171D01*
X27377571Y-67444257D01*
X27348542Y-67502314D01*
X27290485Y-67531342D01*
X27261457Y-67531342D01*
X27203400Y-67502314D01*
X27174371Y-67444257D01*
X27174371Y-67357171D01*
X27203400Y-67299114D01*
G04 #@! TD*
M02*
