G04 #@! TF.GenerationSoftware,KiCad,Pcbnew,(5.0.2)-1*
G04 #@! TF.CreationDate,2020-06-24T22:28:35-05:00*
G04 #@! TF.ProjectId,ProximityTankTwo_V1,50726f78-696d-4697-9479-54616e6b5477,rev?*
G04 #@! TF.SameCoordinates,Original*
G04 #@! TF.FileFunction,Copper,L1,Top*
G04 #@! TF.FilePolarity,Positive*
%FSLAX46Y46*%
G04 Gerber Fmt 4.6, Leading zero omitted, Abs format (unit mm)*
G04 Created by KiCad (PCBNEW (5.0.2)-1) date 6/24/2020 10:28:35 PM*
%MOMM*%
%LPD*%
G01*
G04 APERTURE LIST*
G04 #@! TA.AperFunction,Conductor*
%ADD10C,0.100000*%
G04 #@! TD*
G04 #@! TA.AperFunction,SMDPad,CuDef*
%ADD11C,1.150000*%
G04 #@! TD*
G04 #@! TA.AperFunction,ComponentPad*
%ADD12C,5.200000*%
G04 #@! TD*
G04 #@! TA.AperFunction,ComponentPad*
%ADD13C,0.500000*%
G04 #@! TD*
G04 #@! TA.AperFunction,ComponentPad*
%ADD14C,1.879600*%
G04 #@! TD*
G04 #@! TA.AperFunction,ViaPad*
%ADD15C,0.685800*%
G04 #@! TD*
G04 #@! TA.AperFunction,Conductor*
%ADD16C,0.254000*%
G04 #@! TD*
G04 APERTURE END LIST*
D10*
G04 #@! TO.N,/LC1*
G04 #@! TO.C,C1*
G36*
X30954505Y-72696204D02*
X30978773Y-72699804D01*
X31002572Y-72705765D01*
X31025671Y-72714030D01*
X31047850Y-72724520D01*
X31068893Y-72737132D01*
X31088599Y-72751747D01*
X31106777Y-72768223D01*
X31123253Y-72786401D01*
X31137868Y-72806107D01*
X31150480Y-72827150D01*
X31160970Y-72849329D01*
X31169235Y-72872428D01*
X31175196Y-72896227D01*
X31178796Y-72920495D01*
X31180000Y-72944999D01*
X31180000Y-73595001D01*
X31178796Y-73619505D01*
X31175196Y-73643773D01*
X31169235Y-73667572D01*
X31160970Y-73690671D01*
X31150480Y-73712850D01*
X31137868Y-73733893D01*
X31123253Y-73753599D01*
X31106777Y-73771777D01*
X31088599Y-73788253D01*
X31068893Y-73802868D01*
X31047850Y-73815480D01*
X31025671Y-73825970D01*
X31002572Y-73834235D01*
X30978773Y-73840196D01*
X30954505Y-73843796D01*
X30930001Y-73845000D01*
X30029999Y-73845000D01*
X30005495Y-73843796D01*
X29981227Y-73840196D01*
X29957428Y-73834235D01*
X29934329Y-73825970D01*
X29912150Y-73815480D01*
X29891107Y-73802868D01*
X29871401Y-73788253D01*
X29853223Y-73771777D01*
X29836747Y-73753599D01*
X29822132Y-73733893D01*
X29809520Y-73712850D01*
X29799030Y-73690671D01*
X29790765Y-73667572D01*
X29784804Y-73643773D01*
X29781204Y-73619505D01*
X29780000Y-73595001D01*
X29780000Y-72944999D01*
X29781204Y-72920495D01*
X29784804Y-72896227D01*
X29790765Y-72872428D01*
X29799030Y-72849329D01*
X29809520Y-72827150D01*
X29822132Y-72806107D01*
X29836747Y-72786401D01*
X29853223Y-72768223D01*
X29871401Y-72751747D01*
X29891107Y-72737132D01*
X29912150Y-72724520D01*
X29934329Y-72714030D01*
X29957428Y-72705765D01*
X29981227Y-72699804D01*
X30005495Y-72696204D01*
X30029999Y-72695000D01*
X30930001Y-72695000D01*
X30954505Y-72696204D01*
X30954505Y-72696204D01*
G37*
D11*
G04 #@! TD*
G04 #@! TO.P,C1,2*
G04 #@! TO.N,/LC1*
X30480000Y-73270000D03*
D10*
G04 #@! TO.N,/LC1*
G04 #@! TO.C,C1*
G36*
X30954505Y-74746204D02*
X30978773Y-74749804D01*
X31002572Y-74755765D01*
X31025671Y-74764030D01*
X31047850Y-74774520D01*
X31068893Y-74787132D01*
X31088599Y-74801747D01*
X31106777Y-74818223D01*
X31123253Y-74836401D01*
X31137868Y-74856107D01*
X31150480Y-74877150D01*
X31160970Y-74899329D01*
X31169235Y-74922428D01*
X31175196Y-74946227D01*
X31178796Y-74970495D01*
X31180000Y-74994999D01*
X31180000Y-75645001D01*
X31178796Y-75669505D01*
X31175196Y-75693773D01*
X31169235Y-75717572D01*
X31160970Y-75740671D01*
X31150480Y-75762850D01*
X31137868Y-75783893D01*
X31123253Y-75803599D01*
X31106777Y-75821777D01*
X31088599Y-75838253D01*
X31068893Y-75852868D01*
X31047850Y-75865480D01*
X31025671Y-75875970D01*
X31002572Y-75884235D01*
X30978773Y-75890196D01*
X30954505Y-75893796D01*
X30930001Y-75895000D01*
X30029999Y-75895000D01*
X30005495Y-75893796D01*
X29981227Y-75890196D01*
X29957428Y-75884235D01*
X29934329Y-75875970D01*
X29912150Y-75865480D01*
X29891107Y-75852868D01*
X29871401Y-75838253D01*
X29853223Y-75821777D01*
X29836747Y-75803599D01*
X29822132Y-75783893D01*
X29809520Y-75762850D01*
X29799030Y-75740671D01*
X29790765Y-75717572D01*
X29784804Y-75693773D01*
X29781204Y-75669505D01*
X29780000Y-75645001D01*
X29780000Y-74994999D01*
X29781204Y-74970495D01*
X29784804Y-74946227D01*
X29790765Y-74922428D01*
X29799030Y-74899329D01*
X29809520Y-74877150D01*
X29822132Y-74856107D01*
X29836747Y-74836401D01*
X29853223Y-74818223D01*
X29871401Y-74801747D01*
X29891107Y-74787132D01*
X29912150Y-74774520D01*
X29934329Y-74764030D01*
X29957428Y-74755765D01*
X29981227Y-74749804D01*
X30005495Y-74746204D01*
X30029999Y-74745000D01*
X30930001Y-74745000D01*
X30954505Y-74746204D01*
X30954505Y-74746204D01*
G37*
D11*
G04 #@! TD*
G04 #@! TO.P,C1,1*
G04 #@! TO.N,/LC1*
X30480000Y-75320000D03*
D10*
G04 #@! TO.N,/LC2*
G04 #@! TO.C,C2*
G36*
X30954505Y-79826204D02*
X30978773Y-79829804D01*
X31002572Y-79835765D01*
X31025671Y-79844030D01*
X31047850Y-79854520D01*
X31068893Y-79867132D01*
X31088599Y-79881747D01*
X31106777Y-79898223D01*
X31123253Y-79916401D01*
X31137868Y-79936107D01*
X31150480Y-79957150D01*
X31160970Y-79979329D01*
X31169235Y-80002428D01*
X31175196Y-80026227D01*
X31178796Y-80050495D01*
X31180000Y-80074999D01*
X31180000Y-80725001D01*
X31178796Y-80749505D01*
X31175196Y-80773773D01*
X31169235Y-80797572D01*
X31160970Y-80820671D01*
X31150480Y-80842850D01*
X31137868Y-80863893D01*
X31123253Y-80883599D01*
X31106777Y-80901777D01*
X31088599Y-80918253D01*
X31068893Y-80932868D01*
X31047850Y-80945480D01*
X31025671Y-80955970D01*
X31002572Y-80964235D01*
X30978773Y-80970196D01*
X30954505Y-80973796D01*
X30930001Y-80975000D01*
X30029999Y-80975000D01*
X30005495Y-80973796D01*
X29981227Y-80970196D01*
X29957428Y-80964235D01*
X29934329Y-80955970D01*
X29912150Y-80945480D01*
X29891107Y-80932868D01*
X29871401Y-80918253D01*
X29853223Y-80901777D01*
X29836747Y-80883599D01*
X29822132Y-80863893D01*
X29809520Y-80842850D01*
X29799030Y-80820671D01*
X29790765Y-80797572D01*
X29784804Y-80773773D01*
X29781204Y-80749505D01*
X29780000Y-80725001D01*
X29780000Y-80074999D01*
X29781204Y-80050495D01*
X29784804Y-80026227D01*
X29790765Y-80002428D01*
X29799030Y-79979329D01*
X29809520Y-79957150D01*
X29822132Y-79936107D01*
X29836747Y-79916401D01*
X29853223Y-79898223D01*
X29871401Y-79881747D01*
X29891107Y-79867132D01*
X29912150Y-79854520D01*
X29934329Y-79844030D01*
X29957428Y-79835765D01*
X29981227Y-79829804D01*
X30005495Y-79826204D01*
X30029999Y-79825000D01*
X30930001Y-79825000D01*
X30954505Y-79826204D01*
X30954505Y-79826204D01*
G37*
D11*
G04 #@! TD*
G04 #@! TO.P,C2,1*
G04 #@! TO.N,/LC2*
X30480000Y-80400000D03*
D10*
G04 #@! TO.N,/LC2*
G04 #@! TO.C,C2*
G36*
X30954505Y-77776204D02*
X30978773Y-77779804D01*
X31002572Y-77785765D01*
X31025671Y-77794030D01*
X31047850Y-77804520D01*
X31068893Y-77817132D01*
X31088599Y-77831747D01*
X31106777Y-77848223D01*
X31123253Y-77866401D01*
X31137868Y-77886107D01*
X31150480Y-77907150D01*
X31160970Y-77929329D01*
X31169235Y-77952428D01*
X31175196Y-77976227D01*
X31178796Y-78000495D01*
X31180000Y-78024999D01*
X31180000Y-78675001D01*
X31178796Y-78699505D01*
X31175196Y-78723773D01*
X31169235Y-78747572D01*
X31160970Y-78770671D01*
X31150480Y-78792850D01*
X31137868Y-78813893D01*
X31123253Y-78833599D01*
X31106777Y-78851777D01*
X31088599Y-78868253D01*
X31068893Y-78882868D01*
X31047850Y-78895480D01*
X31025671Y-78905970D01*
X31002572Y-78914235D01*
X30978773Y-78920196D01*
X30954505Y-78923796D01*
X30930001Y-78925000D01*
X30029999Y-78925000D01*
X30005495Y-78923796D01*
X29981227Y-78920196D01*
X29957428Y-78914235D01*
X29934329Y-78905970D01*
X29912150Y-78895480D01*
X29891107Y-78882868D01*
X29871401Y-78868253D01*
X29853223Y-78851777D01*
X29836747Y-78833599D01*
X29822132Y-78813893D01*
X29809520Y-78792850D01*
X29799030Y-78770671D01*
X29790765Y-78747572D01*
X29784804Y-78723773D01*
X29781204Y-78699505D01*
X29780000Y-78675001D01*
X29780000Y-78024999D01*
X29781204Y-78000495D01*
X29784804Y-77976227D01*
X29790765Y-77952428D01*
X29799030Y-77929329D01*
X29809520Y-77907150D01*
X29822132Y-77886107D01*
X29836747Y-77866401D01*
X29853223Y-77848223D01*
X29871401Y-77831747D01*
X29891107Y-77817132D01*
X29912150Y-77804520D01*
X29934329Y-77794030D01*
X29957428Y-77785765D01*
X29981227Y-77779804D01*
X30005495Y-77776204D01*
X30029999Y-77775000D01*
X30930001Y-77775000D01*
X30954505Y-77776204D01*
X30954505Y-77776204D01*
G37*
D11*
G04 #@! TD*
G04 #@! TO.P,C2,2*
G04 #@! TO.N,/LC2*
X30480000Y-78350000D03*
D12*
G04 #@! TO.P,H1,1*
G04 #@! TO.N,Net-(H1-Pad1)*
X28575000Y-28575000D03*
D13*
X30607000Y-28575000D03*
X26543000Y-28575000D03*
X28575000Y-26543000D03*
X28575000Y-30607000D03*
X30099000Y-30099000D03*
X30099000Y-27051000D03*
X27051000Y-27051000D03*
X27051000Y-30099000D03*
G04 #@! TD*
D12*
G04 #@! TO.P,H2,1*
G04 #@! TO.N,Net-(H2-Pad1)*
X118745000Y-28575000D03*
D13*
X120777000Y-28575000D03*
X116713000Y-28575000D03*
X118745000Y-26543000D03*
X118745000Y-30607000D03*
X120269000Y-30099000D03*
X120269000Y-27051000D03*
X117221000Y-27051000D03*
X117221000Y-30099000D03*
G04 #@! TD*
G04 #@! TO.P,H3,1*
G04 #@! TO.N,Net-(H3-Pad1)*
X117221000Y-112649000D03*
X117221000Y-109601000D03*
X120269000Y-109601000D03*
X120269000Y-112649000D03*
X118745000Y-113157000D03*
X118745000Y-109093000D03*
X116713000Y-111125000D03*
X120777000Y-111125000D03*
D12*
X118745000Y-111125000D03*
G04 #@! TD*
D13*
G04 #@! TO.P,H4,1*
G04 #@! TO.N,Net-(H4-Pad1)*
X27051000Y-112649000D03*
X27051000Y-109601000D03*
X30099000Y-109601000D03*
X30099000Y-112649000D03*
X28575000Y-113157000D03*
X28575000Y-109093000D03*
X26543000Y-111125000D03*
X30607000Y-111125000D03*
D12*
X28575000Y-111125000D03*
G04 #@! TD*
D14*
G04 #@! TO.P,J1,1*
G04 #@! TO.N,/LC1*
X27305000Y-73025000D03*
G04 #@! TO.P,J1,2*
X27305000Y-75565000D03*
G04 #@! TO.P,J1,3*
G04 #@! TO.N,/LC2*
X27305000Y-78105000D03*
G04 #@! TO.P,J1,4*
X27305000Y-80645000D03*
G04 #@! TD*
D15*
G04 #@! TO.N,/LC2*
X76835000Y-91440000D03*
X76835000Y-91440000D03*
X33020000Y-81280000D03*
X33655000Y-81915000D03*
X34290000Y-82550000D03*
X77470000Y-92075000D03*
X77470000Y-92075000D03*
G04 #@! TO.N,/LC1*
X76835000Y-48260000D03*
X76835000Y-48260000D03*
X77470000Y-47625000D03*
X77470000Y-47625000D03*
X33020000Y-74930000D03*
X33655000Y-74295000D03*
X34290000Y-73660000D03*
G04 #@! TD*
D16*
G04 #@! TO.N,/LC1*
X77470000Y-47625000D02*
X77470000Y-47625000D01*
G04 #@! TO.N,/LC2*
X52070000Y-88900000D02*
X52070000Y-95250000D01*
X52705000Y-88265000D02*
X52070000Y-88900000D01*
X100965000Y-88265000D02*
X52705000Y-88265000D01*
X102235000Y-89535000D02*
X100965000Y-88265000D01*
X102235000Y-94615000D02*
X102235000Y-89535000D01*
X101600000Y-95250000D02*
X102235000Y-94615000D01*
X99060000Y-90170000D02*
X54610000Y-90170000D01*
X100330000Y-91440000D02*
X99060000Y-90170000D01*
X100965000Y-90805000D02*
X99695000Y-89535000D01*
X99695000Y-93345000D02*
X100330000Y-92710000D01*
X100965000Y-93345000D02*
X100965000Y-90805000D01*
X55245000Y-93345000D02*
X99695000Y-93345000D01*
X99060000Y-92710000D02*
X99695000Y-92075000D01*
X54610000Y-92710000D02*
X55245000Y-93345000D01*
X55245000Y-90805000D02*
X54610000Y-91440000D01*
X98425000Y-90805000D02*
X55245000Y-90805000D01*
X100330000Y-92710000D02*
X100330000Y-91440000D01*
X99695000Y-92075000D02*
X98425000Y-90805000D01*
X54610000Y-91440000D02*
X54610000Y-92710000D01*
X77470000Y-92075000D02*
X77470000Y-92075000D01*
X76835000Y-91440000D02*
X76835000Y-91440000D01*
X55880000Y-91440000D02*
X55245000Y-92075000D01*
X55245000Y-92075000D02*
X55880000Y-92710000D01*
X55880000Y-92710000D02*
X99060000Y-92710000D01*
X54610000Y-90170000D02*
X53975000Y-90805000D01*
X53975000Y-90805000D02*
X53975000Y-93345000D01*
X100330000Y-93980000D02*
X100965000Y-93345000D01*
X53975000Y-93345000D02*
X54610000Y-93980000D01*
X54610000Y-93980000D02*
X100330000Y-93980000D01*
X100330000Y-88900000D02*
X53340000Y-88900000D01*
X99695000Y-89535000D02*
X53975000Y-89535000D01*
X53975000Y-89535000D02*
X53340000Y-90170000D01*
X53340000Y-90170000D02*
X53340000Y-93980000D01*
X53340000Y-93980000D02*
X53975000Y-94615000D01*
X52705000Y-89535000D02*
X52705000Y-94615000D01*
X53975000Y-94615000D02*
X100965000Y-94615000D01*
X100965000Y-94615000D02*
X101600000Y-93980000D01*
X101600000Y-93980000D02*
X101600000Y-90170000D01*
X101600000Y-90170000D02*
X100330000Y-88900000D01*
X53340000Y-88900000D02*
X52705000Y-89535000D01*
X52705000Y-94615000D02*
X53340000Y-95250000D01*
X53340000Y-95250000D02*
X101600000Y-95250000D01*
X52070000Y-95250000D02*
X52705000Y-95885000D01*
X52705000Y-95885000D02*
X102235000Y-95885000D01*
X102235000Y-95885000D02*
X102870000Y-95250000D01*
X102870000Y-95250000D02*
X102870000Y-88900000D01*
X103505000Y-95885000D02*
X103505000Y-88265000D01*
X104140000Y-96520000D02*
X104140000Y-87630000D01*
X104775000Y-97155000D02*
X104775000Y-86995000D01*
X102870000Y-88900000D02*
X101600000Y-87630000D01*
X101600000Y-87630000D02*
X52070000Y-87630000D01*
X52070000Y-87630000D02*
X51435000Y-88265000D01*
X51435000Y-88265000D02*
X51435000Y-95885000D01*
X51435000Y-95885000D02*
X52070000Y-96520000D01*
X52070000Y-96520000D02*
X102870000Y-96520000D01*
X102870000Y-96520000D02*
X103505000Y-95885000D01*
X103505000Y-88265000D02*
X102235000Y-86995000D01*
X102235000Y-86995000D02*
X51435000Y-86995000D01*
X51435000Y-86995000D02*
X50800000Y-87630000D01*
X50800000Y-87630000D02*
X50800000Y-96520000D01*
X50800000Y-96520000D02*
X51435000Y-97155000D01*
X51435000Y-97155000D02*
X103505000Y-97155000D01*
X103505000Y-97155000D02*
X104140000Y-96520000D01*
X104140000Y-87630000D02*
X102870000Y-86360000D01*
X102870000Y-86360000D02*
X50800000Y-86360000D01*
X50800000Y-86360000D02*
X50165000Y-86995000D01*
X50165000Y-86995000D02*
X50165000Y-97155000D01*
X50165000Y-97155000D02*
X50800000Y-97790000D01*
X50800000Y-97790000D02*
X104140000Y-97790000D01*
X104140000Y-97790000D02*
X104775000Y-97155000D01*
X104775000Y-86995000D02*
X103505000Y-85725000D01*
X103505000Y-85725000D02*
X50165000Y-85725000D01*
X50165000Y-85725000D02*
X49530000Y-86360000D01*
X49530000Y-86360000D02*
X49530000Y-97790000D01*
X49530000Y-97790000D02*
X50165000Y-98425000D01*
X50165000Y-98425000D02*
X104775000Y-98425000D01*
X104775000Y-98425000D02*
X105410000Y-97790000D01*
X105410000Y-97790000D02*
X105410000Y-86360000D01*
X105410000Y-86360000D02*
X104140000Y-85090000D01*
X104140000Y-85090000D02*
X50165000Y-85090000D01*
X50165000Y-85090000D02*
X49530000Y-85090000D01*
X49530000Y-85090000D02*
X48895000Y-85725000D01*
X48895000Y-85725000D02*
X48895000Y-98425000D01*
X48895000Y-98425000D02*
X49530000Y-99060000D01*
X49530000Y-99060000D02*
X105410000Y-99060000D01*
X105410000Y-99060000D02*
X106045000Y-98425000D01*
X106045000Y-98425000D02*
X106045000Y-85725000D01*
X106045000Y-85725000D02*
X104775000Y-84455000D01*
X104775000Y-84455000D02*
X48895000Y-84455000D01*
X48895000Y-84455000D02*
X48260000Y-85090000D01*
X48260000Y-85090000D02*
X48260000Y-99060000D01*
X48260000Y-99060000D02*
X48895000Y-99695000D01*
X48895000Y-99695000D02*
X106045000Y-99695000D01*
X106045000Y-99695000D02*
X106680000Y-99060000D01*
X106680000Y-99060000D02*
X106680000Y-85090000D01*
X106680000Y-85090000D02*
X105410000Y-83820000D01*
X105410000Y-83820000D02*
X48260000Y-83820000D01*
X48260000Y-83820000D02*
X47625000Y-84455000D01*
X47625000Y-84455000D02*
X47625000Y-99695000D01*
X47625000Y-99695000D02*
X48260000Y-100330000D01*
X48260000Y-100330000D02*
X106680000Y-100330000D01*
X106680000Y-100330000D02*
X107315000Y-99695000D01*
X107315000Y-99695000D02*
X107315000Y-84455000D01*
X107315000Y-84455000D02*
X106045000Y-83185000D01*
X106045000Y-83185000D02*
X47625000Y-83185000D01*
X47625000Y-83185000D02*
X46990000Y-83820000D01*
X46990000Y-83820000D02*
X46990000Y-100330000D01*
X46990000Y-100330000D02*
X47625000Y-100965000D01*
X47625000Y-100965000D02*
X107315000Y-100965000D01*
X107315000Y-100965000D02*
X107950000Y-100330000D01*
X107950000Y-100330000D02*
X107950000Y-83820000D01*
X107950000Y-83820000D02*
X106680000Y-82550000D01*
X106680000Y-82550000D02*
X46990000Y-82550000D01*
X46990000Y-82550000D02*
X46355000Y-83185000D01*
X46355000Y-83185000D02*
X46355000Y-100965000D01*
X46355000Y-100965000D02*
X46990000Y-101600000D01*
X46990000Y-101600000D02*
X107950000Y-101600000D01*
X107950000Y-101600000D02*
X108585000Y-100965000D01*
X108585000Y-100965000D02*
X108585000Y-83185000D01*
X108585000Y-83185000D02*
X107315000Y-81915000D01*
X107315000Y-81915000D02*
X46355000Y-81915000D01*
X46355000Y-81915000D02*
X45720000Y-82550000D01*
X45720000Y-82550000D02*
X45720000Y-101600000D01*
X45720000Y-101600000D02*
X46355000Y-102235000D01*
X46355000Y-102235000D02*
X108585000Y-102235000D01*
X108585000Y-102235000D02*
X109220000Y-101600000D01*
X109220000Y-101600000D02*
X109220000Y-82550000D01*
X109220000Y-82550000D02*
X107950000Y-81280000D01*
X107950000Y-81280000D02*
X45720000Y-81280000D01*
X45720000Y-81280000D02*
X45085000Y-81915000D01*
X45085000Y-81915000D02*
X45085000Y-102235000D01*
X45085000Y-102235000D02*
X45720000Y-102870000D01*
X45720000Y-102870000D02*
X109220000Y-102870000D01*
X109220000Y-102870000D02*
X109855000Y-102235000D01*
X109855000Y-102235000D02*
X109855000Y-81915000D01*
X109855000Y-81915000D02*
X108585000Y-80645000D01*
X108585000Y-80645000D02*
X45085000Y-80645000D01*
X45085000Y-80645000D02*
X44450000Y-81280000D01*
X44450000Y-81280000D02*
X44450000Y-102870000D01*
X44450000Y-102870000D02*
X45085000Y-103505000D01*
X45085000Y-103505000D02*
X109855000Y-103505000D01*
X109855000Y-103505000D02*
X110490000Y-102870000D01*
X110490000Y-102870000D02*
X110490000Y-81280000D01*
X110490000Y-81280000D02*
X109220000Y-80010000D01*
X109220000Y-80010000D02*
X45085000Y-80010000D01*
X45085000Y-80010000D02*
X44450000Y-80010000D01*
X44450000Y-80010000D02*
X43815000Y-80645000D01*
X43815000Y-80645000D02*
X43815000Y-103505000D01*
X43815000Y-103505000D02*
X44450000Y-104140000D01*
X44450000Y-104140000D02*
X110490000Y-104140000D01*
X110490000Y-104140000D02*
X111125000Y-103505000D01*
X111125000Y-103505000D02*
X111125000Y-80645000D01*
X111125000Y-80645000D02*
X109855000Y-79375000D01*
X109855000Y-79375000D02*
X43815000Y-79375000D01*
X43815000Y-79375000D02*
X43180000Y-80010000D01*
X43180000Y-80010000D02*
X43180000Y-104140000D01*
X43180000Y-104140000D02*
X43815000Y-104775000D01*
X43815000Y-104775000D02*
X111125000Y-104775000D01*
X111125000Y-104775000D02*
X111760000Y-104140000D01*
X111760000Y-104140000D02*
X111760000Y-80010000D01*
X111760000Y-80010000D02*
X110490000Y-78740000D01*
X110490000Y-78740000D02*
X43180000Y-78740000D01*
X43180000Y-78740000D02*
X42545000Y-79375000D01*
X42545000Y-79375000D02*
X42545000Y-104775000D01*
X42545000Y-104775000D02*
X43180000Y-105410000D01*
X43180000Y-105410000D02*
X111760000Y-105410000D01*
X111760000Y-105410000D02*
X112395000Y-104775000D01*
X112395000Y-104775000D02*
X112395000Y-79375000D01*
X112395000Y-79375000D02*
X111125000Y-78105000D01*
X111125000Y-78105000D02*
X42545000Y-78105000D01*
X42545000Y-78105000D02*
X41910000Y-78740000D01*
X41910000Y-78740000D02*
X41910000Y-105410000D01*
X41910000Y-105410000D02*
X42545000Y-106045000D01*
X42545000Y-106045000D02*
X112395000Y-106045000D01*
X112395000Y-106045000D02*
X113030000Y-105410000D01*
X113030000Y-105410000D02*
X113030000Y-78740000D01*
X113030000Y-78740000D02*
X111760000Y-77470000D01*
X111760000Y-77470000D02*
X41910000Y-77470000D01*
X41910000Y-77470000D02*
X41275000Y-78105000D01*
X41275000Y-78105000D02*
X41275000Y-106045000D01*
X41275000Y-106045000D02*
X41910000Y-106680000D01*
X41910000Y-106680000D02*
X113030000Y-106680000D01*
X113030000Y-106680000D02*
X113665000Y-106045000D01*
X113665000Y-106045000D02*
X113665000Y-78105000D01*
X113665000Y-78105000D02*
X112395000Y-76835000D01*
X112395000Y-76835000D02*
X41275000Y-76835000D01*
X41275000Y-76835000D02*
X40640000Y-77470000D01*
X40640000Y-77470000D02*
X40640000Y-106680000D01*
X40640000Y-106680000D02*
X41275000Y-107315000D01*
X41275000Y-107315000D02*
X113665000Y-107315000D01*
X113665000Y-107315000D02*
X114300000Y-106680000D01*
X114300000Y-106680000D02*
X114300000Y-77470000D01*
X114300000Y-77470000D02*
X113030000Y-76200000D01*
X113030000Y-76200000D02*
X40640000Y-76200000D01*
X40640000Y-76200000D02*
X40005000Y-76835000D01*
X40005000Y-76835000D02*
X40005000Y-107315000D01*
X40005000Y-107315000D02*
X40640000Y-107950000D01*
X40640000Y-107950000D02*
X114300000Y-107950000D01*
X114300000Y-107950000D02*
X114935000Y-107315000D01*
X114935000Y-107315000D02*
X114935000Y-76835000D01*
X114935000Y-76835000D02*
X113665000Y-75565000D01*
X113665000Y-75565000D02*
X40005000Y-75565000D01*
X40005000Y-75565000D02*
X39370000Y-76200000D01*
X39370000Y-76200000D02*
X39370000Y-107950000D01*
X39370000Y-107950000D02*
X40005000Y-108585000D01*
X40005000Y-108585000D02*
X114935000Y-108585000D01*
X114935000Y-108585000D02*
X115570000Y-107950000D01*
X115570000Y-107950000D02*
X115570000Y-76200000D01*
X115570000Y-76200000D02*
X114300000Y-74930000D01*
X114300000Y-74930000D02*
X39370000Y-74930000D01*
X39370000Y-74930000D02*
X38735000Y-75565000D01*
X38735000Y-75565000D02*
X38735000Y-108585000D01*
X38735000Y-108585000D02*
X39370000Y-109220000D01*
X39370000Y-109220000D02*
X57785000Y-109220000D01*
X57785000Y-109220000D02*
X92710000Y-109220000D01*
X92710000Y-109220000D02*
X115570000Y-109220000D01*
X115570000Y-109220000D02*
X116205000Y-108585000D01*
X116205000Y-108585000D02*
X116205000Y-75565000D01*
X116205000Y-75565000D02*
X114935000Y-74295000D01*
X114935000Y-74295000D02*
X85725000Y-74295000D01*
X85725000Y-74295000D02*
X68580000Y-74295000D01*
X68580000Y-74295000D02*
X40005000Y-74295000D01*
X40005000Y-74295000D02*
X38735000Y-74295000D01*
X38735000Y-74295000D02*
X37465000Y-74295000D01*
X36440000Y-74295000D02*
X32385000Y-78350000D01*
X37465000Y-74295000D02*
X36440000Y-74295000D01*
X30480000Y-78350000D02*
X32385000Y-78350000D01*
X27550000Y-78350000D02*
X27305000Y-78105000D01*
X30480000Y-78350000D02*
X27550000Y-78350000D01*
X30235000Y-80645000D02*
X30480000Y-80400000D01*
X27305000Y-80645000D02*
X30235000Y-80645000D01*
X30480000Y-80400000D02*
X32140000Y-80400000D01*
X76835000Y-91440000D02*
X55880000Y-91440000D01*
X76835000Y-91440000D02*
X76835000Y-91440000D01*
X32140000Y-80400000D02*
X33020000Y-81280000D01*
X33020000Y-81280000D02*
X33655000Y-81915000D01*
X33655000Y-81915000D02*
X34290000Y-82550000D01*
X76835000Y-91440000D02*
X77470000Y-92075000D01*
X77470000Y-92075000D02*
X77470000Y-92075000D01*
X77470000Y-92075000D02*
X77470000Y-92075000D01*
G04 #@! TO.N,/LC1*
X27550000Y-75320000D02*
X27305000Y-75565000D01*
X30480000Y-75320000D02*
X27550000Y-75320000D01*
X76835000Y-48260000D02*
X76835000Y-48260000D01*
X76835000Y-48260000D02*
X76835000Y-48260000D01*
X77470000Y-47625000D02*
X76835000Y-48260000D01*
X77470000Y-47625000D02*
X77470000Y-47625000D01*
X27550000Y-73270000D02*
X27305000Y-73025000D01*
X30480000Y-73270000D02*
X27550000Y-73270000D01*
X30480000Y-72390000D02*
X30480000Y-73270000D01*
X37465000Y-65405000D02*
X30480000Y-72390000D01*
X114935000Y-65405000D02*
X37465000Y-65405000D01*
X116205000Y-64135000D02*
X114935000Y-65405000D01*
X116205000Y-31115000D02*
X116205000Y-64135000D01*
X115570000Y-30480000D02*
X116205000Y-31115000D01*
X38735000Y-31115000D02*
X39370000Y-30480000D01*
X38735000Y-64135000D02*
X38735000Y-31115000D01*
X39370000Y-64770000D02*
X38735000Y-64135000D01*
X114300000Y-64770000D02*
X39370000Y-64770000D01*
X115570000Y-63500000D02*
X114300000Y-64770000D01*
X114935000Y-31115000D02*
X115570000Y-31750000D01*
X40005000Y-31115000D02*
X114935000Y-31115000D01*
X39370000Y-31750000D02*
X40005000Y-31115000D01*
X39370000Y-63500000D02*
X39370000Y-31750000D01*
X40005000Y-64135000D02*
X39370000Y-63500000D01*
X113665000Y-64135000D02*
X40005000Y-64135000D01*
X114935000Y-62865000D02*
X113665000Y-64135000D01*
X114935000Y-32385000D02*
X114935000Y-62865000D01*
X114300000Y-31750000D02*
X114935000Y-32385000D01*
X40640000Y-31750000D02*
X114300000Y-31750000D01*
X40005000Y-32385000D02*
X40640000Y-31750000D01*
X40640000Y-63500000D02*
X40005000Y-62865000D01*
X113030000Y-63500000D02*
X40640000Y-63500000D01*
X114300000Y-62230000D02*
X113030000Y-63500000D01*
X113665000Y-32385000D02*
X114300000Y-33020000D01*
X41275000Y-32385000D02*
X113665000Y-32385000D01*
X40640000Y-33020000D02*
X41275000Y-32385000D01*
X40640000Y-62230000D02*
X40640000Y-33020000D01*
X41275000Y-62865000D02*
X40640000Y-62230000D01*
X112395000Y-62865000D02*
X41275000Y-62865000D01*
X113665000Y-61595000D02*
X112395000Y-62865000D01*
X113665000Y-33655000D02*
X113665000Y-61595000D01*
X113030000Y-33020000D02*
X113665000Y-33655000D01*
X41910000Y-33020000D02*
X113030000Y-33020000D01*
X41275000Y-33655000D02*
X41910000Y-33020000D01*
X41275000Y-61595000D02*
X41275000Y-33655000D01*
X41910000Y-62230000D02*
X41275000Y-61595000D01*
X111760000Y-62230000D02*
X41910000Y-62230000D01*
X113030000Y-60960000D02*
X111760000Y-62230000D01*
X112395000Y-33655000D02*
X113030000Y-34290000D01*
X42545000Y-33655000D02*
X112395000Y-33655000D01*
X41910000Y-34290000D02*
X42545000Y-33655000D01*
X41910000Y-60960000D02*
X41910000Y-34290000D01*
X100330000Y-45720000D02*
X100965000Y-46355000D01*
X104775000Y-42545000D02*
X104775000Y-52705000D01*
X102870000Y-53340000D02*
X50800000Y-53340000D01*
X46990000Y-57150000D02*
X46355000Y-56515000D01*
X115570000Y-31750000D02*
X115570000Y-63500000D01*
X99060000Y-49530000D02*
X54610000Y-49530000D01*
X50800000Y-52070000D02*
X50800000Y-43180000D01*
X51435000Y-52705000D02*
X50800000Y-52070000D01*
X101600000Y-44450000D02*
X102235000Y-45085000D01*
X46990000Y-55880000D02*
X46990000Y-39370000D01*
X50800000Y-43180000D02*
X51435000Y-42545000D01*
X54610000Y-46990000D02*
X55245000Y-46355000D01*
X103505000Y-51435000D02*
X102235000Y-52705000D01*
X44450000Y-35560000D02*
X110490000Y-35560000D01*
X43180000Y-60960000D02*
X42545000Y-60325000D01*
X106680000Y-57150000D02*
X46990000Y-57150000D01*
X102870000Y-43180000D02*
X103505000Y-43815000D01*
X44450000Y-59690000D02*
X43815000Y-59055000D01*
X104775000Y-52705000D02*
X103505000Y-53975000D01*
X99695000Y-50165000D02*
X53975000Y-50165000D01*
X46990000Y-39370000D02*
X47625000Y-38735000D01*
X52070000Y-43180000D02*
X102870000Y-43180000D01*
X45720000Y-38100000D02*
X46355000Y-37465000D01*
X111760000Y-35560000D02*
X111760000Y-59690000D01*
X51435000Y-51435000D02*
X51435000Y-43815000D01*
X46355000Y-37465000D02*
X108585000Y-37465000D01*
X52070000Y-52070000D02*
X51435000Y-51435000D01*
X110490000Y-36830000D02*
X110490000Y-58420000D01*
X49530000Y-41910000D02*
X50165000Y-41275000D01*
X101600000Y-52070000D02*
X52070000Y-52070000D01*
X105410000Y-41910000D02*
X105410000Y-53340000D01*
X102870000Y-50800000D02*
X101600000Y-52070000D01*
X44450000Y-58420000D02*
X44450000Y-36830000D01*
X111760000Y-34290000D02*
X112395000Y-34925000D01*
X102870000Y-44450000D02*
X102870000Y-50800000D01*
X46355000Y-57785000D02*
X45720000Y-57150000D01*
X102235000Y-43815000D02*
X102870000Y-44450000D01*
X52705000Y-43815000D02*
X102235000Y-43815000D01*
X47625000Y-40005000D02*
X48260000Y-39370000D01*
X111125000Y-36195000D02*
X111125000Y-59055000D01*
X104140000Y-52070000D02*
X102870000Y-53340000D01*
X52070000Y-44450000D02*
X52705000Y-43815000D01*
X52705000Y-51435000D02*
X52070000Y-50800000D01*
X44450000Y-36830000D02*
X45085000Y-36195000D01*
X100965000Y-51435000D02*
X52705000Y-51435000D01*
X108585000Y-38735000D02*
X108585000Y-56515000D01*
X102235000Y-45085000D02*
X102235000Y-50165000D01*
X109220000Y-36830000D02*
X109855000Y-37465000D01*
X43815000Y-34925000D02*
X111125000Y-34925000D01*
X51435000Y-43815000D02*
X52070000Y-43180000D01*
X107315000Y-38735000D02*
X107950000Y-39370000D01*
X43180000Y-59690000D02*
X43180000Y-35560000D01*
X39370000Y-30480000D02*
X115570000Y-30480000D01*
X100330000Y-48260000D02*
X99060000Y-49530000D01*
X100330000Y-46990000D02*
X100330000Y-48260000D01*
X107950000Y-55880000D02*
X106680000Y-57150000D01*
X54610000Y-48260000D02*
X54610000Y-46990000D01*
X42545000Y-34925000D02*
X43180000Y-34290000D01*
X105410000Y-53340000D02*
X104140000Y-54610000D01*
X55245000Y-46355000D02*
X99695000Y-46355000D01*
X49530000Y-53340000D02*
X49530000Y-41910000D01*
X106045000Y-53975000D02*
X104775000Y-55245000D01*
X104140000Y-41910000D02*
X104775000Y-42545000D01*
X55880000Y-48260000D02*
X55245000Y-47625000D01*
X54610000Y-49530000D02*
X53975000Y-48895000D01*
X109855000Y-37465000D02*
X109855000Y-57785000D01*
X50165000Y-41275000D02*
X104775000Y-41275000D01*
X53975000Y-46355000D02*
X54610000Y-45720000D01*
X45085000Y-57785000D02*
X45085000Y-37465000D01*
X42545000Y-60325000D02*
X42545000Y-34925000D01*
X103505000Y-43815000D02*
X103505000Y-51435000D01*
X43815000Y-59055000D02*
X43815000Y-36195000D01*
X53340000Y-44450000D02*
X101600000Y-44450000D01*
X110490000Y-58420000D02*
X109220000Y-59690000D01*
X111125000Y-59055000D02*
X109855000Y-60325000D01*
X40005000Y-62865000D02*
X40005000Y-32385000D01*
X102235000Y-52705000D02*
X51435000Y-52705000D01*
X48895000Y-53975000D02*
X48895000Y-41275000D01*
X52070000Y-50800000D02*
X52070000Y-44450000D01*
X45085000Y-36195000D02*
X109855000Y-36195000D01*
X112395000Y-60325000D02*
X111125000Y-61595000D01*
X113030000Y-34290000D02*
X113030000Y-60960000D01*
X76835000Y-48260000D02*
X55880000Y-48260000D01*
X103505000Y-53975000D02*
X50165000Y-53975000D01*
X50165000Y-42545000D02*
X50800000Y-41910000D01*
X52705000Y-50165000D02*
X52705000Y-45085000D01*
X45720000Y-36830000D02*
X109220000Y-36830000D01*
X104775000Y-41275000D02*
X105410000Y-41910000D01*
X99695000Y-46355000D02*
X100330000Y-46990000D01*
X54610000Y-45720000D02*
X100330000Y-45720000D01*
X48895000Y-40005000D02*
X106045000Y-40005000D01*
X108585000Y-56515000D02*
X107315000Y-57785000D01*
X55880000Y-46990000D02*
X99060000Y-46990000D01*
X50165000Y-52705000D02*
X50165000Y-42545000D01*
X52705000Y-45085000D02*
X53340000Y-44450000D01*
X45720000Y-57150000D02*
X45720000Y-38100000D01*
X101600000Y-45720000D02*
X101600000Y-49530000D01*
X109220000Y-59690000D02*
X44450000Y-59690000D01*
X48260000Y-55880000D02*
X47625000Y-55245000D01*
X99060000Y-46990000D02*
X99695000Y-47625000D01*
X55245000Y-47625000D02*
X55880000Y-46990000D01*
X48260000Y-40640000D02*
X48895000Y-40005000D01*
X53975000Y-48895000D02*
X53975000Y-46355000D01*
X107315000Y-40005000D02*
X107315000Y-55245000D01*
X102235000Y-50165000D02*
X100965000Y-51435000D01*
X108585000Y-59055000D02*
X45085000Y-59055000D01*
X42545000Y-61595000D02*
X41910000Y-60960000D01*
X99695000Y-47625000D02*
X98425000Y-48895000D01*
X53340000Y-49530000D02*
X53340000Y-45720000D01*
X47625000Y-56515000D02*
X46990000Y-55880000D01*
X50800000Y-53340000D02*
X50165000Y-52705000D01*
X100965000Y-46355000D02*
X100965000Y-48895000D01*
X100965000Y-48895000D02*
X99695000Y-50165000D01*
X107950000Y-39370000D02*
X107950000Y-55880000D01*
X53975000Y-50165000D02*
X53340000Y-49530000D01*
X50165000Y-53975000D02*
X49530000Y-53340000D01*
X114300000Y-33020000D02*
X114300000Y-62230000D01*
X104140000Y-43180000D02*
X104140000Y-52070000D01*
X55245000Y-48895000D02*
X54610000Y-48260000D01*
X53975000Y-45085000D02*
X100965000Y-45085000D01*
X100965000Y-45085000D02*
X101600000Y-45720000D01*
X109220000Y-38100000D02*
X109220000Y-57150000D01*
X98425000Y-48895000D02*
X55245000Y-48895000D01*
X50800000Y-41910000D02*
X104140000Y-41910000D01*
X106045000Y-40005000D02*
X106680000Y-40640000D01*
X47625000Y-38735000D02*
X107315000Y-38735000D01*
X100330000Y-50800000D02*
X53340000Y-50800000D01*
X43815000Y-36195000D02*
X44450000Y-35560000D01*
X112395000Y-34925000D02*
X112395000Y-60325000D01*
X53340000Y-50800000D02*
X52705000Y-50165000D01*
X109855000Y-36195000D02*
X110490000Y-36830000D01*
X104140000Y-54610000D02*
X49530000Y-54610000D01*
X49530000Y-54610000D02*
X48895000Y-53975000D01*
X48895000Y-41275000D02*
X49530000Y-40640000D01*
X49530000Y-40640000D02*
X105410000Y-40640000D01*
X45085000Y-37465000D02*
X45720000Y-36830000D01*
X105410000Y-40640000D02*
X106045000Y-41275000D01*
X109855000Y-57785000D02*
X108585000Y-59055000D01*
X106045000Y-41275000D02*
X106045000Y-53975000D01*
X107950000Y-38100000D02*
X108585000Y-38735000D01*
X108585000Y-37465000D02*
X109220000Y-38100000D01*
X104775000Y-55245000D02*
X48895000Y-55245000D01*
X45085000Y-59055000D02*
X44450000Y-58420000D01*
X101600000Y-49530000D02*
X100330000Y-50800000D01*
X48895000Y-55245000D02*
X48260000Y-54610000D01*
X53340000Y-45720000D02*
X53975000Y-45085000D01*
X48260000Y-54610000D02*
X48260000Y-40640000D01*
X106680000Y-40640000D02*
X106680000Y-54610000D01*
X111125000Y-61595000D02*
X42545000Y-61595000D01*
X106680000Y-54610000D02*
X105410000Y-55880000D01*
X105410000Y-55880000D02*
X48260000Y-55880000D01*
X47625000Y-55245000D02*
X47625000Y-40005000D01*
X48260000Y-39370000D02*
X106680000Y-39370000D01*
X106680000Y-39370000D02*
X107315000Y-40005000D01*
X107315000Y-55245000D02*
X106045000Y-56515000D01*
X51435000Y-42545000D02*
X103505000Y-42545000D01*
X106045000Y-56515000D02*
X47625000Y-56515000D01*
X46355000Y-56515000D02*
X46355000Y-38735000D01*
X46355000Y-38735000D02*
X46990000Y-38100000D01*
X103505000Y-42545000D02*
X104140000Y-43180000D01*
X46990000Y-38100000D02*
X107950000Y-38100000D01*
X107315000Y-57785000D02*
X46355000Y-57785000D01*
X109220000Y-57150000D02*
X107950000Y-58420000D01*
X107950000Y-58420000D02*
X45720000Y-58420000D01*
X45720000Y-58420000D02*
X45085000Y-57785000D01*
X110490000Y-35560000D02*
X111125000Y-36195000D01*
X109855000Y-60325000D02*
X43815000Y-60325000D01*
X43815000Y-60325000D02*
X43180000Y-59690000D01*
X43180000Y-35560000D02*
X43815000Y-34925000D01*
X111125000Y-34925000D02*
X111760000Y-35560000D01*
X111760000Y-59690000D02*
X110490000Y-60960000D01*
X110490000Y-60960000D02*
X43180000Y-60960000D01*
X43180000Y-34290000D02*
X111760000Y-34290000D01*
X30870000Y-74930000D02*
X30480000Y-75320000D01*
X33020000Y-74930000D02*
X30870000Y-74930000D01*
X33020000Y-74930000D02*
X34290000Y-73660000D01*
G04 #@! TD*
M02*
