G04 #@! TF.GenerationSoftware,KiCad,Pcbnew,(5.0.2)-1*
G04 #@! TF.CreationDate,2020-07-15T14:53:40-05:00*
G04 #@! TF.ProjectId,ProximityTankOne_Square7Turns,50726f78-696d-4697-9479-54616e6b4f6e,V1*
G04 #@! TF.SameCoordinates,Original*
G04 #@! TF.FileFunction,Paste,Top*
G04 #@! TF.FilePolarity,Positive*
%FSLAX46Y46*%
G04 Gerber Fmt 4.6, Leading zero omitted, Abs format (unit mm)*
G04 Created by KiCad (PCBNEW (5.0.2)-1) date 7/15/2020 2:53:40 PM*
%MOMM*%
%LPD*%
G01*
G04 APERTURE LIST*
%ADD10C,0.100000*%
%ADD11C,1.150000*%
G04 APERTURE END LIST*
D10*
G04 #@! TO.C,C1*
G36*
X30954505Y-74501204D02*
X30978773Y-74504804D01*
X31002572Y-74510765D01*
X31025671Y-74519030D01*
X31047850Y-74529520D01*
X31068893Y-74542132D01*
X31088599Y-74556747D01*
X31106777Y-74573223D01*
X31123253Y-74591401D01*
X31137868Y-74611107D01*
X31150480Y-74632150D01*
X31160970Y-74654329D01*
X31169235Y-74677428D01*
X31175196Y-74701227D01*
X31178796Y-74725495D01*
X31180000Y-74749999D01*
X31180000Y-75400001D01*
X31178796Y-75424505D01*
X31175196Y-75448773D01*
X31169235Y-75472572D01*
X31160970Y-75495671D01*
X31150480Y-75517850D01*
X31137868Y-75538893D01*
X31123253Y-75558599D01*
X31106777Y-75576777D01*
X31088599Y-75593253D01*
X31068893Y-75607868D01*
X31047850Y-75620480D01*
X31025671Y-75630970D01*
X31002572Y-75639235D01*
X30978773Y-75645196D01*
X30954505Y-75648796D01*
X30930001Y-75650000D01*
X30029999Y-75650000D01*
X30005495Y-75648796D01*
X29981227Y-75645196D01*
X29957428Y-75639235D01*
X29934329Y-75630970D01*
X29912150Y-75620480D01*
X29891107Y-75607868D01*
X29871401Y-75593253D01*
X29853223Y-75576777D01*
X29836747Y-75558599D01*
X29822132Y-75538893D01*
X29809520Y-75517850D01*
X29799030Y-75495671D01*
X29790765Y-75472572D01*
X29784804Y-75448773D01*
X29781204Y-75424505D01*
X29780000Y-75400001D01*
X29780000Y-74749999D01*
X29781204Y-74725495D01*
X29784804Y-74701227D01*
X29790765Y-74677428D01*
X29799030Y-74654329D01*
X29809520Y-74632150D01*
X29822132Y-74611107D01*
X29836747Y-74591401D01*
X29853223Y-74573223D01*
X29871401Y-74556747D01*
X29891107Y-74542132D01*
X29912150Y-74529520D01*
X29934329Y-74519030D01*
X29957428Y-74510765D01*
X29981227Y-74504804D01*
X30005495Y-74501204D01*
X30029999Y-74500000D01*
X30930001Y-74500000D01*
X30954505Y-74501204D01*
X30954505Y-74501204D01*
G37*
D11*
X30480000Y-75075000D03*
D10*
G36*
X30954505Y-72451204D02*
X30978773Y-72454804D01*
X31002572Y-72460765D01*
X31025671Y-72469030D01*
X31047850Y-72479520D01*
X31068893Y-72492132D01*
X31088599Y-72506747D01*
X31106777Y-72523223D01*
X31123253Y-72541401D01*
X31137868Y-72561107D01*
X31150480Y-72582150D01*
X31160970Y-72604329D01*
X31169235Y-72627428D01*
X31175196Y-72651227D01*
X31178796Y-72675495D01*
X31180000Y-72699999D01*
X31180000Y-73350001D01*
X31178796Y-73374505D01*
X31175196Y-73398773D01*
X31169235Y-73422572D01*
X31160970Y-73445671D01*
X31150480Y-73467850D01*
X31137868Y-73488893D01*
X31123253Y-73508599D01*
X31106777Y-73526777D01*
X31088599Y-73543253D01*
X31068893Y-73557868D01*
X31047850Y-73570480D01*
X31025671Y-73580970D01*
X31002572Y-73589235D01*
X30978773Y-73595196D01*
X30954505Y-73598796D01*
X30930001Y-73600000D01*
X30029999Y-73600000D01*
X30005495Y-73598796D01*
X29981227Y-73595196D01*
X29957428Y-73589235D01*
X29934329Y-73580970D01*
X29912150Y-73570480D01*
X29891107Y-73557868D01*
X29871401Y-73543253D01*
X29853223Y-73526777D01*
X29836747Y-73508599D01*
X29822132Y-73488893D01*
X29809520Y-73467850D01*
X29799030Y-73445671D01*
X29790765Y-73422572D01*
X29784804Y-73398773D01*
X29781204Y-73374505D01*
X29780000Y-73350001D01*
X29780000Y-72699999D01*
X29781204Y-72675495D01*
X29784804Y-72651227D01*
X29790765Y-72627428D01*
X29799030Y-72604329D01*
X29809520Y-72582150D01*
X29822132Y-72561107D01*
X29836747Y-72541401D01*
X29853223Y-72523223D01*
X29871401Y-72506747D01*
X29891107Y-72492132D01*
X29912150Y-72479520D01*
X29934329Y-72469030D01*
X29957428Y-72460765D01*
X29981227Y-72454804D01*
X30005495Y-72451204D01*
X30029999Y-72450000D01*
X30930001Y-72450000D01*
X30954505Y-72451204D01*
X30954505Y-72451204D01*
G37*
D11*
X30480000Y-73025000D03*
G04 #@! TD*
M02*
