G04 #@! TF.GenerationSoftware,KiCad,Pcbnew,(5.0.2)-1*
G04 #@! TF.CreationDate,2020-07-15T14:53:40-05:00*
G04 #@! TF.ProjectId,ProximityTankOne_Square7Turns,50726f78-696d-4697-9479-54616e6b4f6e,V1*
G04 #@! TF.SameCoordinates,Original*
G04 #@! TF.FileFunction,Copper,L1,Top*
G04 #@! TF.FilePolarity,Positive*
%FSLAX46Y46*%
G04 Gerber Fmt 4.6, Leading zero omitted, Abs format (unit mm)*
G04 Created by KiCad (PCBNEW (5.0.2)-1) date 7/15/2020 2:53:40 PM*
%MOMM*%
%LPD*%
G01*
G04 APERTURE LIST*
G04 #@! TA.AperFunction,Conductor*
%ADD10C,0.100000*%
G04 #@! TD*
G04 #@! TA.AperFunction,SMDPad,CuDef*
%ADD11C,1.150000*%
G04 #@! TD*
G04 #@! TA.AperFunction,ComponentPad*
%ADD12C,5.200000*%
G04 #@! TD*
G04 #@! TA.AperFunction,ComponentPad*
%ADD13C,0.500000*%
G04 #@! TD*
G04 #@! TA.AperFunction,ComponentPad*
%ADD14C,1.879600*%
G04 #@! TD*
G04 #@! TA.AperFunction,ViaPad*
%ADD15C,0.685800*%
G04 #@! TD*
G04 #@! TA.AperFunction,Conductor*
%ADD16C,0.508000*%
G04 #@! TD*
G04 APERTURE END LIST*
D10*
G04 #@! TO.N,/LC1*
G04 #@! TO.C,C1*
G36*
X30954505Y-74501204D02*
X30978773Y-74504804D01*
X31002572Y-74510765D01*
X31025671Y-74519030D01*
X31047850Y-74529520D01*
X31068893Y-74542132D01*
X31088599Y-74556747D01*
X31106777Y-74573223D01*
X31123253Y-74591401D01*
X31137868Y-74611107D01*
X31150480Y-74632150D01*
X31160970Y-74654329D01*
X31169235Y-74677428D01*
X31175196Y-74701227D01*
X31178796Y-74725495D01*
X31180000Y-74749999D01*
X31180000Y-75400001D01*
X31178796Y-75424505D01*
X31175196Y-75448773D01*
X31169235Y-75472572D01*
X31160970Y-75495671D01*
X31150480Y-75517850D01*
X31137868Y-75538893D01*
X31123253Y-75558599D01*
X31106777Y-75576777D01*
X31088599Y-75593253D01*
X31068893Y-75607868D01*
X31047850Y-75620480D01*
X31025671Y-75630970D01*
X31002572Y-75639235D01*
X30978773Y-75645196D01*
X30954505Y-75648796D01*
X30930001Y-75650000D01*
X30029999Y-75650000D01*
X30005495Y-75648796D01*
X29981227Y-75645196D01*
X29957428Y-75639235D01*
X29934329Y-75630970D01*
X29912150Y-75620480D01*
X29891107Y-75607868D01*
X29871401Y-75593253D01*
X29853223Y-75576777D01*
X29836747Y-75558599D01*
X29822132Y-75538893D01*
X29809520Y-75517850D01*
X29799030Y-75495671D01*
X29790765Y-75472572D01*
X29784804Y-75448773D01*
X29781204Y-75424505D01*
X29780000Y-75400001D01*
X29780000Y-74749999D01*
X29781204Y-74725495D01*
X29784804Y-74701227D01*
X29790765Y-74677428D01*
X29799030Y-74654329D01*
X29809520Y-74632150D01*
X29822132Y-74611107D01*
X29836747Y-74591401D01*
X29853223Y-74573223D01*
X29871401Y-74556747D01*
X29891107Y-74542132D01*
X29912150Y-74529520D01*
X29934329Y-74519030D01*
X29957428Y-74510765D01*
X29981227Y-74504804D01*
X30005495Y-74501204D01*
X30029999Y-74500000D01*
X30930001Y-74500000D01*
X30954505Y-74501204D01*
X30954505Y-74501204D01*
G37*
D11*
G04 #@! TD*
G04 #@! TO.P,C1,1*
G04 #@! TO.N,/LC1*
X30480000Y-75075000D03*
D10*
G04 #@! TO.N,/LC1*
G04 #@! TO.C,C1*
G36*
X30954505Y-72451204D02*
X30978773Y-72454804D01*
X31002572Y-72460765D01*
X31025671Y-72469030D01*
X31047850Y-72479520D01*
X31068893Y-72492132D01*
X31088599Y-72506747D01*
X31106777Y-72523223D01*
X31123253Y-72541401D01*
X31137868Y-72561107D01*
X31150480Y-72582150D01*
X31160970Y-72604329D01*
X31169235Y-72627428D01*
X31175196Y-72651227D01*
X31178796Y-72675495D01*
X31180000Y-72699999D01*
X31180000Y-73350001D01*
X31178796Y-73374505D01*
X31175196Y-73398773D01*
X31169235Y-73422572D01*
X31160970Y-73445671D01*
X31150480Y-73467850D01*
X31137868Y-73488893D01*
X31123253Y-73508599D01*
X31106777Y-73526777D01*
X31088599Y-73543253D01*
X31068893Y-73557868D01*
X31047850Y-73570480D01*
X31025671Y-73580970D01*
X31002572Y-73589235D01*
X30978773Y-73595196D01*
X30954505Y-73598796D01*
X30930001Y-73600000D01*
X30029999Y-73600000D01*
X30005495Y-73598796D01*
X29981227Y-73595196D01*
X29957428Y-73589235D01*
X29934329Y-73580970D01*
X29912150Y-73570480D01*
X29891107Y-73557868D01*
X29871401Y-73543253D01*
X29853223Y-73526777D01*
X29836747Y-73508599D01*
X29822132Y-73488893D01*
X29809520Y-73467850D01*
X29799030Y-73445671D01*
X29790765Y-73422572D01*
X29784804Y-73398773D01*
X29781204Y-73374505D01*
X29780000Y-73350001D01*
X29780000Y-72699999D01*
X29781204Y-72675495D01*
X29784804Y-72651227D01*
X29790765Y-72627428D01*
X29799030Y-72604329D01*
X29809520Y-72582150D01*
X29822132Y-72561107D01*
X29836747Y-72541401D01*
X29853223Y-72523223D01*
X29871401Y-72506747D01*
X29891107Y-72492132D01*
X29912150Y-72479520D01*
X29934329Y-72469030D01*
X29957428Y-72460765D01*
X29981227Y-72454804D01*
X30005495Y-72451204D01*
X30029999Y-72450000D01*
X30930001Y-72450000D01*
X30954505Y-72451204D01*
X30954505Y-72451204D01*
G37*
D11*
G04 #@! TD*
G04 #@! TO.P,C1,2*
G04 #@! TO.N,/LC1*
X30480000Y-73025000D03*
D12*
G04 #@! TO.P,H1,1*
G04 #@! TO.N,Net-(H1-Pad1)*
X28575000Y-28575000D03*
D13*
X30607000Y-28575000D03*
X26543000Y-28575000D03*
X28575000Y-26543000D03*
X28575000Y-30607000D03*
X30099000Y-30099000D03*
X30099000Y-27051000D03*
X27051000Y-27051000D03*
X27051000Y-30099000D03*
G04 #@! TD*
D12*
G04 #@! TO.P,H2,1*
G04 #@! TO.N,Net-(H2-Pad1)*
X118745000Y-28575000D03*
D13*
X120777000Y-28575000D03*
X116713000Y-28575000D03*
X118745000Y-26543000D03*
X118745000Y-30607000D03*
X120269000Y-30099000D03*
X120269000Y-27051000D03*
X117221000Y-27051000D03*
X117221000Y-30099000D03*
G04 #@! TD*
G04 #@! TO.P,H3,1*
G04 #@! TO.N,Net-(H3-Pad1)*
X117221000Y-112649000D03*
X117221000Y-109601000D03*
X120269000Y-109601000D03*
X120269000Y-112649000D03*
X118745000Y-113157000D03*
X118745000Y-109093000D03*
X116713000Y-111125000D03*
X120777000Y-111125000D03*
D12*
X118745000Y-111125000D03*
G04 #@! TD*
D13*
G04 #@! TO.P,H4,1*
G04 #@! TO.N,Net-(H4-Pad1)*
X27051000Y-112649000D03*
X27051000Y-109601000D03*
X30099000Y-109601000D03*
X30099000Y-112649000D03*
X28575000Y-113157000D03*
X28575000Y-109093000D03*
X26543000Y-111125000D03*
X30607000Y-111125000D03*
D12*
X28575000Y-111125000D03*
G04 #@! TD*
D14*
G04 #@! TO.P,J1,1*
G04 #@! TO.N,/LC1*
X27305000Y-73025000D03*
G04 #@! TO.P,J1,2*
X27305000Y-75565000D03*
G04 #@! TO.P,J1,3*
G04 #@! TO.N,Net-(J1-Pad3)*
X27305000Y-78105000D03*
G04 #@! TO.P,J1,4*
G04 #@! TO.N,Net-(J1-Pad4)*
X27305000Y-80645000D03*
G04 #@! TD*
D15*
G04 #@! TO.N,/LC1*
X32385000Y-74930000D03*
X33655000Y-74930000D03*
X34925000Y-74930000D03*
X36195000Y-74930000D03*
X52070000Y-74930000D03*
X52070000Y-76200000D03*
X52070000Y-77470000D03*
X52070000Y-78740000D03*
G04 #@! TD*
D16*
G04 #@! TO.N,/LC1*
X30480000Y-73025000D02*
X43180000Y-73025000D01*
X43180000Y-73025000D02*
X43180000Y-34290000D01*
X43180000Y-34290000D02*
X113030000Y-34290000D01*
X113030000Y-34290000D02*
X113030000Y-104140000D01*
X113030000Y-104140000D02*
X44450000Y-104140000D01*
X44450000Y-104140000D02*
X44450000Y-35560000D01*
X44450000Y-35560000D02*
X111760000Y-35560000D01*
X111760000Y-35560000D02*
X111760000Y-102870000D01*
X111760000Y-102870000D02*
X45720000Y-102870000D01*
X45720000Y-102870000D02*
X45720000Y-36830000D01*
X45720000Y-36830000D02*
X110490000Y-36830000D01*
X110490000Y-36830000D02*
X110490000Y-101600000D01*
X110490000Y-101600000D02*
X46990000Y-101600000D01*
X46990000Y-101600000D02*
X46990000Y-38100000D01*
X46990000Y-38100000D02*
X109220000Y-38100000D01*
X109220000Y-38100000D02*
X109220000Y-100330000D01*
X109220000Y-100330000D02*
X48260000Y-100330000D01*
X48260000Y-100330000D02*
X48260000Y-39370000D01*
X48260000Y-39370000D02*
X107950000Y-39370000D01*
X107950000Y-39370000D02*
X107950000Y-99060000D01*
X107950000Y-99060000D02*
X49530000Y-99060000D01*
X49530000Y-99060000D02*
X49530000Y-40640000D01*
X49530000Y-40640000D02*
X106680000Y-40640000D01*
X106680000Y-40640000D02*
X106680000Y-97790000D01*
X106680000Y-97790000D02*
X50800000Y-97790000D01*
X50800000Y-97790000D02*
X50800000Y-41910000D01*
X50800000Y-41910000D02*
X105410000Y-41910000D01*
X105410000Y-41910000D02*
X105410000Y-96520000D01*
X105410000Y-96520000D02*
X52070000Y-96520000D01*
X52070000Y-96520000D02*
X52070000Y-78740000D01*
X52070000Y-74930000D02*
X52070000Y-74930000D01*
X52070000Y-76200000D02*
X52070000Y-74930000D01*
X52070000Y-77470000D02*
X52070000Y-76200000D01*
X52070000Y-78740000D02*
X52070000Y-77470000D01*
X30480000Y-73025000D02*
X27305000Y-73025000D01*
X29990000Y-75565000D02*
X30480000Y-75075000D01*
X27305000Y-75565000D02*
X29990000Y-75565000D01*
X36195000Y-74930000D02*
X32385000Y-74930000D01*
X30625000Y-74930000D02*
X30480000Y-75075000D01*
X32385000Y-74930000D02*
X30625000Y-74930000D01*
G04 #@! TD*
M02*
