G04 #@! TF.GenerationSoftware,KiCad,Pcbnew,(5.0.2)-1*
G04 #@! TF.CreationDate,2020-07-15T14:53:40-05:00*
G04 #@! TF.ProjectId,ProximityTankOne_Square7Turns,50726f78-696d-4697-9479-54616e6b4f6e,V1*
G04 #@! TF.SameCoordinates,Original*
G04 #@! TF.FileFunction,Soldermask,Bot*
G04 #@! TF.FilePolarity,Negative*
%FSLAX46Y46*%
G04 Gerber Fmt 4.6, Leading zero omitted, Abs format (unit mm)*
G04 Created by KiCad (PCBNEW (5.0.2)-1) date 7/15/2020 2:53:40 PM*
%MOMM*%
%LPD*%
G01*
G04 APERTURE LIST*
%ADD10C,0.100000*%
G04 APERTURE END LIST*
D10*
G36*
X29006791Y-108508156D02*
X29348212Y-108576069D01*
X29830623Y-108775890D01*
X30264788Y-109065990D01*
X30634010Y-109435212D01*
X30924110Y-109869377D01*
X31123931Y-110351788D01*
X31225800Y-110863920D01*
X31225800Y-111386080D01*
X31123931Y-111898212D01*
X30924110Y-112380623D01*
X30634010Y-112814788D01*
X30264788Y-113184010D01*
X29830623Y-113474110D01*
X29348212Y-113673931D01*
X29006791Y-113741844D01*
X28836081Y-113775800D01*
X28313919Y-113775800D01*
X28143209Y-113741844D01*
X27801788Y-113673931D01*
X27319377Y-113474110D01*
X26885212Y-113184010D01*
X26515990Y-112814788D01*
X26225890Y-112380623D01*
X26026069Y-111898212D01*
X25924200Y-111386080D01*
X25924200Y-110863920D01*
X26026069Y-110351788D01*
X26225890Y-109869377D01*
X26515990Y-109435212D01*
X26885212Y-109065990D01*
X27319377Y-108775890D01*
X27801788Y-108576069D01*
X28143209Y-108508156D01*
X28313919Y-108474200D01*
X28836081Y-108474200D01*
X29006791Y-108508156D01*
X29006791Y-108508156D01*
G37*
G36*
X119176791Y-108508156D02*
X119518212Y-108576069D01*
X120000623Y-108775890D01*
X120434788Y-109065990D01*
X120804010Y-109435212D01*
X121094110Y-109869377D01*
X121293931Y-110351788D01*
X121395800Y-110863920D01*
X121395800Y-111386080D01*
X121293931Y-111898212D01*
X121094110Y-112380623D01*
X120804010Y-112814788D01*
X120434788Y-113184010D01*
X120000623Y-113474110D01*
X119518212Y-113673931D01*
X119176791Y-113741844D01*
X119006081Y-113775800D01*
X118483919Y-113775800D01*
X118313209Y-113741844D01*
X117971788Y-113673931D01*
X117489377Y-113474110D01*
X117055212Y-113184010D01*
X116685990Y-112814788D01*
X116395890Y-112380623D01*
X116196069Y-111898212D01*
X116094200Y-111386080D01*
X116094200Y-110863920D01*
X116196069Y-110351788D01*
X116395890Y-109869377D01*
X116685990Y-109435212D01*
X117055212Y-109065990D01*
X117489377Y-108775890D01*
X117971788Y-108576069D01*
X118313209Y-108508156D01*
X118483919Y-108474200D01*
X119006081Y-108474200D01*
X119176791Y-108508156D01*
X119176791Y-108508156D01*
G37*
G36*
X27608766Y-79643620D02*
X27798286Y-79722122D01*
X27798288Y-79722123D01*
X27968854Y-79836092D01*
X28113908Y-79981146D01*
X28227877Y-80151712D01*
X28306380Y-80341235D01*
X28346400Y-80542431D01*
X28346400Y-80747569D01*
X28306380Y-80948765D01*
X28227877Y-81138288D01*
X28113908Y-81308854D01*
X27968854Y-81453908D01*
X27798288Y-81567877D01*
X27798287Y-81567878D01*
X27798286Y-81567878D01*
X27608766Y-81646380D01*
X27407569Y-81686400D01*
X27202431Y-81686400D01*
X27001234Y-81646380D01*
X26811714Y-81567878D01*
X26811713Y-81567878D01*
X26811712Y-81567877D01*
X26641146Y-81453908D01*
X26496092Y-81308854D01*
X26382123Y-81138288D01*
X26303620Y-80948765D01*
X26263600Y-80747569D01*
X26263600Y-80542431D01*
X26303620Y-80341235D01*
X26382123Y-80151712D01*
X26496092Y-79981146D01*
X26641146Y-79836092D01*
X26811712Y-79722123D01*
X26811714Y-79722122D01*
X27001234Y-79643620D01*
X27202431Y-79603600D01*
X27407569Y-79603600D01*
X27608766Y-79643620D01*
X27608766Y-79643620D01*
G37*
G36*
X27608766Y-77103620D02*
X27798286Y-77182122D01*
X27798288Y-77182123D01*
X27968854Y-77296092D01*
X28113908Y-77441146D01*
X28227877Y-77611712D01*
X28306380Y-77801235D01*
X28346400Y-78002431D01*
X28346400Y-78207569D01*
X28306380Y-78408765D01*
X28227877Y-78598288D01*
X28113908Y-78768854D01*
X27968854Y-78913908D01*
X27798288Y-79027877D01*
X27798287Y-79027878D01*
X27798286Y-79027878D01*
X27608766Y-79106380D01*
X27407569Y-79146400D01*
X27202431Y-79146400D01*
X27001234Y-79106380D01*
X26811714Y-79027878D01*
X26811713Y-79027878D01*
X26811712Y-79027877D01*
X26641146Y-78913908D01*
X26496092Y-78768854D01*
X26382123Y-78598288D01*
X26303620Y-78408765D01*
X26263600Y-78207569D01*
X26263600Y-78002431D01*
X26303620Y-77801235D01*
X26382123Y-77611712D01*
X26496092Y-77441146D01*
X26641146Y-77296092D01*
X26811712Y-77182123D01*
X26811714Y-77182122D01*
X27001234Y-77103620D01*
X27202431Y-77063600D01*
X27407569Y-77063600D01*
X27608766Y-77103620D01*
X27608766Y-77103620D01*
G37*
G36*
X27608766Y-74563620D02*
X27798286Y-74642122D01*
X27798288Y-74642123D01*
X27968854Y-74756092D01*
X28113908Y-74901146D01*
X28227877Y-75071712D01*
X28306380Y-75261235D01*
X28346400Y-75462431D01*
X28346400Y-75667569D01*
X28306380Y-75868765D01*
X28227877Y-76058288D01*
X28113908Y-76228854D01*
X27968854Y-76373908D01*
X27798288Y-76487877D01*
X27798287Y-76487878D01*
X27798286Y-76487878D01*
X27608766Y-76566380D01*
X27407569Y-76606400D01*
X27202431Y-76606400D01*
X27001234Y-76566380D01*
X26811714Y-76487878D01*
X26811713Y-76487878D01*
X26811712Y-76487877D01*
X26641146Y-76373908D01*
X26496092Y-76228854D01*
X26382123Y-76058288D01*
X26303620Y-75868765D01*
X26263600Y-75667569D01*
X26263600Y-75462431D01*
X26303620Y-75261235D01*
X26382123Y-75071712D01*
X26496092Y-74901146D01*
X26641146Y-74756092D01*
X26811712Y-74642123D01*
X26811714Y-74642122D01*
X27001234Y-74563620D01*
X27202431Y-74523600D01*
X27407569Y-74523600D01*
X27608766Y-74563620D01*
X27608766Y-74563620D01*
G37*
G36*
X27608766Y-72023620D02*
X27798286Y-72102122D01*
X27798288Y-72102123D01*
X27968854Y-72216092D01*
X28113908Y-72361146D01*
X28227877Y-72531712D01*
X28306380Y-72721235D01*
X28346400Y-72922431D01*
X28346400Y-73127569D01*
X28306380Y-73328765D01*
X28227877Y-73518288D01*
X28113908Y-73688854D01*
X27968854Y-73833908D01*
X27798288Y-73947877D01*
X27798287Y-73947878D01*
X27798286Y-73947878D01*
X27608766Y-74026380D01*
X27407569Y-74066400D01*
X27202431Y-74066400D01*
X27001234Y-74026380D01*
X26811714Y-73947878D01*
X26811713Y-73947878D01*
X26811712Y-73947877D01*
X26641146Y-73833908D01*
X26496092Y-73688854D01*
X26382123Y-73518288D01*
X26303620Y-73328765D01*
X26263600Y-73127569D01*
X26263600Y-72922431D01*
X26303620Y-72721235D01*
X26382123Y-72531712D01*
X26496092Y-72361146D01*
X26641146Y-72216092D01*
X26811712Y-72102123D01*
X26811714Y-72102122D01*
X27001234Y-72023620D01*
X27202431Y-71983600D01*
X27407569Y-71983600D01*
X27608766Y-72023620D01*
X27608766Y-72023620D01*
G37*
G36*
X119176791Y-25958156D02*
X119518212Y-26026069D01*
X120000623Y-26225890D01*
X120434788Y-26515990D01*
X120804010Y-26885212D01*
X121094110Y-27319377D01*
X121293931Y-27801788D01*
X121395800Y-28313920D01*
X121395800Y-28836080D01*
X121293931Y-29348212D01*
X121094110Y-29830623D01*
X120804010Y-30264788D01*
X120434788Y-30634010D01*
X120000623Y-30924110D01*
X119518212Y-31123931D01*
X119176791Y-31191844D01*
X119006081Y-31225800D01*
X118483919Y-31225800D01*
X118313209Y-31191844D01*
X117971788Y-31123931D01*
X117489377Y-30924110D01*
X117055212Y-30634010D01*
X116685990Y-30264788D01*
X116395890Y-29830623D01*
X116196069Y-29348212D01*
X116094200Y-28836080D01*
X116094200Y-28313920D01*
X116196069Y-27801788D01*
X116395890Y-27319377D01*
X116685990Y-26885212D01*
X117055212Y-26515990D01*
X117489377Y-26225890D01*
X117971788Y-26026069D01*
X118313209Y-25958156D01*
X118483919Y-25924200D01*
X119006081Y-25924200D01*
X119176791Y-25958156D01*
X119176791Y-25958156D01*
G37*
G36*
X29006791Y-25958156D02*
X29348212Y-26026069D01*
X29830623Y-26225890D01*
X30264788Y-26515990D01*
X30634010Y-26885212D01*
X30924110Y-27319377D01*
X31123931Y-27801788D01*
X31225800Y-28313920D01*
X31225800Y-28836080D01*
X31123931Y-29348212D01*
X30924110Y-29830623D01*
X30634010Y-30264788D01*
X30264788Y-30634010D01*
X29830623Y-30924110D01*
X29348212Y-31123931D01*
X29006791Y-31191844D01*
X28836081Y-31225800D01*
X28313919Y-31225800D01*
X28143209Y-31191844D01*
X27801788Y-31123931D01*
X27319377Y-30924110D01*
X26885212Y-30634010D01*
X26515990Y-30264788D01*
X26225890Y-29830623D01*
X26026069Y-29348212D01*
X25924200Y-28836080D01*
X25924200Y-28313920D01*
X26026069Y-27801788D01*
X26225890Y-27319377D01*
X26515990Y-26885212D01*
X26885212Y-26515990D01*
X27319377Y-26225890D01*
X27801788Y-26026069D01*
X28143209Y-25958156D01*
X28313919Y-25924200D01*
X28836081Y-25924200D01*
X29006791Y-25958156D01*
X29006791Y-25958156D01*
G37*
M02*
