G04 #@! TF.GenerationSoftware,KiCad,Pcbnew,(5.0.2)-1*
G04 #@! TF.CreationDate,2020-07-15T14:53:40-05:00*
G04 #@! TF.ProjectId,ProximityTankOne_Square7Turns,50726f78-696d-4697-9479-54616e6b4f6e,V1*
G04 #@! TF.SameCoordinates,Original*
G04 #@! TF.FileFunction,Legend,Top*
G04 #@! TF.FilePolarity,Positive*
%FSLAX46Y46*%
G04 Gerber Fmt 4.6, Leading zero omitted, Abs format (unit mm)*
G04 Created by KiCad (PCBNEW (5.0.2)-1) date 7/15/2020 2:53:40 PM*
%MOMM*%
%LPD*%
G01*
G04 APERTURE LIST*
%ADD10C,0.300000*%
%ADD11C,0.025400*%
%ADD12C,0.120000*%
%ADD13C,0.203200*%
%ADD14C,0.150000*%
%ADD15C,0.127000*%
G04 APERTURE END LIST*
D10*
X55541428Y-108623571D02*
X55541428Y-107123571D01*
X56112857Y-107123571D01*
X56255714Y-107195000D01*
X56327142Y-107266428D01*
X56398571Y-107409285D01*
X56398571Y-107623571D01*
X56327142Y-107766428D01*
X56255714Y-107837857D01*
X56112857Y-107909285D01*
X55541428Y-107909285D01*
X57041428Y-108623571D02*
X57041428Y-107623571D01*
X57041428Y-107909285D02*
X57112857Y-107766428D01*
X57184285Y-107695000D01*
X57327142Y-107623571D01*
X57469999Y-107623571D01*
X58184285Y-108623571D02*
X58041428Y-108552142D01*
X57969999Y-108480714D01*
X57898571Y-108337857D01*
X57898571Y-107909285D01*
X57969999Y-107766428D01*
X58041428Y-107695000D01*
X58184285Y-107623571D01*
X58398571Y-107623571D01*
X58541428Y-107695000D01*
X58612857Y-107766428D01*
X58684285Y-107909285D01*
X58684285Y-108337857D01*
X58612857Y-108480714D01*
X58541428Y-108552142D01*
X58398571Y-108623571D01*
X58184285Y-108623571D01*
X59184285Y-108623571D02*
X59969999Y-107623571D01*
X59184285Y-107623571D02*
X59969999Y-108623571D01*
X60541428Y-108623571D02*
X60541428Y-107623571D01*
X60541428Y-107123571D02*
X60469999Y-107195000D01*
X60541428Y-107266428D01*
X60612857Y-107195000D01*
X60541428Y-107123571D01*
X60541428Y-107266428D01*
X61255714Y-108623571D02*
X61255714Y-107623571D01*
X61255714Y-107766428D02*
X61327142Y-107695000D01*
X61469999Y-107623571D01*
X61684285Y-107623571D01*
X61827142Y-107695000D01*
X61898571Y-107837857D01*
X61898571Y-108623571D01*
X61898571Y-107837857D02*
X61969999Y-107695000D01*
X62112857Y-107623571D01*
X62327142Y-107623571D01*
X62469999Y-107695000D01*
X62541428Y-107837857D01*
X62541428Y-108623571D01*
X63255714Y-108623571D02*
X63255714Y-107623571D01*
X63255714Y-107123571D02*
X63184285Y-107195000D01*
X63255714Y-107266428D01*
X63327142Y-107195000D01*
X63255714Y-107123571D01*
X63255714Y-107266428D01*
X63755714Y-107623571D02*
X64327142Y-107623571D01*
X63969999Y-107123571D02*
X63969999Y-108409285D01*
X64041428Y-108552142D01*
X64184285Y-108623571D01*
X64327142Y-108623571D01*
X64684285Y-107623571D02*
X65041428Y-108623571D01*
X65398571Y-107623571D02*
X65041428Y-108623571D01*
X64898571Y-108980714D01*
X64827142Y-109052142D01*
X64684285Y-109123571D01*
X67041428Y-108552142D02*
X67255714Y-108623571D01*
X67612857Y-108623571D01*
X67755714Y-108552142D01*
X67827142Y-108480714D01*
X67898571Y-108337857D01*
X67898571Y-108195000D01*
X67827142Y-108052142D01*
X67755714Y-107980714D01*
X67612857Y-107909285D01*
X67327142Y-107837857D01*
X67184285Y-107766428D01*
X67112857Y-107695000D01*
X67041428Y-107552142D01*
X67041428Y-107409285D01*
X67112857Y-107266428D01*
X67184285Y-107195000D01*
X67327142Y-107123571D01*
X67684285Y-107123571D01*
X67898571Y-107195000D01*
X69112857Y-108552142D02*
X68969999Y-108623571D01*
X68684285Y-108623571D01*
X68541428Y-108552142D01*
X68469999Y-108409285D01*
X68469999Y-107837857D01*
X68541428Y-107695000D01*
X68684285Y-107623571D01*
X68969999Y-107623571D01*
X69112857Y-107695000D01*
X69184285Y-107837857D01*
X69184285Y-107980714D01*
X68469999Y-108123571D01*
X69827142Y-107623571D02*
X69827142Y-108623571D01*
X69827142Y-107766428D02*
X69898571Y-107695000D01*
X70041428Y-107623571D01*
X70255714Y-107623571D01*
X70398571Y-107695000D01*
X70469999Y-107837857D01*
X70469999Y-108623571D01*
X71112857Y-108552142D02*
X71255714Y-108623571D01*
X71541428Y-108623571D01*
X71684285Y-108552142D01*
X71755714Y-108409285D01*
X71755714Y-108337857D01*
X71684285Y-108195000D01*
X71541428Y-108123571D01*
X71327142Y-108123571D01*
X71184285Y-108052142D01*
X71112857Y-107909285D01*
X71112857Y-107837857D01*
X71184285Y-107695000D01*
X71327142Y-107623571D01*
X71541428Y-107623571D01*
X71684285Y-107695000D01*
X72612857Y-108623571D02*
X72469999Y-108552142D01*
X72398571Y-108480714D01*
X72327142Y-108337857D01*
X72327142Y-107909285D01*
X72398571Y-107766428D01*
X72469999Y-107695000D01*
X72612857Y-107623571D01*
X72827142Y-107623571D01*
X72969999Y-107695000D01*
X73041428Y-107766428D01*
X73112857Y-107909285D01*
X73112857Y-108337857D01*
X73041428Y-108480714D01*
X72969999Y-108552142D01*
X72827142Y-108623571D01*
X72612857Y-108623571D01*
X73755714Y-108623571D02*
X73755714Y-107623571D01*
X73755714Y-107909285D02*
X73827142Y-107766428D01*
X73898571Y-107695000D01*
X74041428Y-107623571D01*
X74184285Y-107623571D01*
X75612857Y-107123571D02*
X76112857Y-108623571D01*
X76612857Y-107123571D01*
X77898571Y-108623571D02*
X77041428Y-108623571D01*
X77469999Y-108623571D02*
X77469999Y-107123571D01*
X77327142Y-107337857D01*
X77184285Y-107480714D01*
X77041428Y-107552142D01*
X79684285Y-108052142D02*
X80827142Y-108052142D01*
X82541428Y-107123571D02*
X83541428Y-107123571D01*
X82898571Y-108623571D01*
X85184285Y-108552142D02*
X85398571Y-108623571D01*
X85755714Y-108623571D01*
X85898571Y-108552142D01*
X85969999Y-108480714D01*
X86041428Y-108337857D01*
X86041428Y-108195000D01*
X85969999Y-108052142D01*
X85898571Y-107980714D01*
X85755714Y-107909285D01*
X85469999Y-107837857D01*
X85327142Y-107766428D01*
X85255714Y-107695000D01*
X85184285Y-107552142D01*
X85184285Y-107409285D01*
X85255714Y-107266428D01*
X85327142Y-107195000D01*
X85469999Y-107123571D01*
X85827142Y-107123571D01*
X86041428Y-107195000D01*
X87327142Y-107623571D02*
X87327142Y-109123571D01*
X87327142Y-108552142D02*
X87184285Y-108623571D01*
X86898571Y-108623571D01*
X86755714Y-108552142D01*
X86684285Y-108480714D01*
X86612857Y-108337857D01*
X86612857Y-107909285D01*
X86684285Y-107766428D01*
X86755714Y-107695000D01*
X86898571Y-107623571D01*
X87184285Y-107623571D01*
X87327142Y-107695000D01*
X88684285Y-107623571D02*
X88684285Y-108623571D01*
X88041428Y-107623571D02*
X88041428Y-108409285D01*
X88112857Y-108552142D01*
X88255714Y-108623571D01*
X88469999Y-108623571D01*
X88612857Y-108552142D01*
X88684285Y-108480714D01*
X90041428Y-108623571D02*
X90041428Y-107837857D01*
X89969999Y-107695000D01*
X89827142Y-107623571D01*
X89541428Y-107623571D01*
X89398571Y-107695000D01*
X90041428Y-108552142D02*
X89898571Y-108623571D01*
X89541428Y-108623571D01*
X89398571Y-108552142D01*
X89327142Y-108409285D01*
X89327142Y-108266428D01*
X89398571Y-108123571D01*
X89541428Y-108052142D01*
X89898571Y-108052142D01*
X90041428Y-107980714D01*
X90755714Y-108623571D02*
X90755714Y-107623571D01*
X90755714Y-107909285D02*
X90827142Y-107766428D01*
X90898571Y-107695000D01*
X91041428Y-107623571D01*
X91184285Y-107623571D01*
X92255714Y-108552142D02*
X92112857Y-108623571D01*
X91827142Y-108623571D01*
X91684285Y-108552142D01*
X91612857Y-108409285D01*
X91612857Y-107837857D01*
X91684285Y-107695000D01*
X91827142Y-107623571D01*
X92112857Y-107623571D01*
X92255714Y-107695000D01*
X92327142Y-107837857D01*
X92327142Y-107980714D01*
X91612857Y-108123571D01*
X93898571Y-107123571D02*
X94755714Y-107123571D01*
X94327142Y-108623571D02*
X94327142Y-107123571D01*
X95898571Y-107623571D02*
X95898571Y-108623571D01*
X95255714Y-107623571D02*
X95255714Y-108409285D01*
X95327142Y-108552142D01*
X95469999Y-108623571D01*
X95684285Y-108623571D01*
X95827142Y-108552142D01*
X95898571Y-108480714D01*
X96612857Y-108623571D02*
X96612857Y-107623571D01*
X96612857Y-107909285D02*
X96684285Y-107766428D01*
X96755714Y-107695000D01*
X96898571Y-107623571D01*
X97041428Y-107623571D01*
X97541428Y-107623571D02*
X97541428Y-108623571D01*
X97541428Y-107766428D02*
X97612857Y-107695000D01*
X97755714Y-107623571D01*
X97969999Y-107623571D01*
X98112857Y-107695000D01*
X98184285Y-107837857D01*
X98184285Y-108623571D01*
X98827142Y-108552142D02*
X98969999Y-108623571D01*
X99255714Y-108623571D01*
X99398571Y-108552142D01*
X99469999Y-108409285D01*
X99469999Y-108337857D01*
X99398571Y-108195000D01*
X99255714Y-108123571D01*
X99041428Y-108123571D01*
X98898571Y-108052142D01*
X98827142Y-107909285D01*
X98827142Y-107837857D01*
X98898571Y-107695000D01*
X99041428Y-107623571D01*
X99255714Y-107623571D01*
X99398571Y-107695000D01*
X72612857Y-109673571D02*
X72612857Y-110745000D01*
X72541428Y-110959285D01*
X72398571Y-111102142D01*
X72184285Y-111173571D01*
X72041428Y-111173571D01*
X73970000Y-110173571D02*
X73970000Y-111173571D01*
X73327142Y-110173571D02*
X73327142Y-110959285D01*
X73398571Y-111102142D01*
X73541428Y-111173571D01*
X73755714Y-111173571D01*
X73898571Y-111102142D01*
X73970000Y-111030714D01*
X74898571Y-111173571D02*
X74755714Y-111102142D01*
X74684285Y-110959285D01*
X74684285Y-109673571D01*
X75327142Y-110173571D02*
X75684285Y-111173571D01*
X76041428Y-110173571D02*
X75684285Y-111173571D01*
X75541428Y-111530714D01*
X75470000Y-111602142D01*
X75327142Y-111673571D01*
X77684285Y-109816428D02*
X77755714Y-109745000D01*
X77898571Y-109673571D01*
X78255714Y-109673571D01*
X78398571Y-109745000D01*
X78470000Y-109816428D01*
X78541428Y-109959285D01*
X78541428Y-110102142D01*
X78470000Y-110316428D01*
X77612857Y-111173571D01*
X78541428Y-111173571D01*
X79470000Y-109673571D02*
X79612857Y-109673571D01*
X79755714Y-109745000D01*
X79827142Y-109816428D01*
X79898571Y-109959285D01*
X79970000Y-110245000D01*
X79970000Y-110602142D01*
X79898571Y-110887857D01*
X79827142Y-111030714D01*
X79755714Y-111102142D01*
X79612857Y-111173571D01*
X79470000Y-111173571D01*
X79327142Y-111102142D01*
X79255714Y-111030714D01*
X79184285Y-110887857D01*
X79112857Y-110602142D01*
X79112857Y-110245000D01*
X79184285Y-109959285D01*
X79255714Y-109816428D01*
X79327142Y-109745000D01*
X79470000Y-109673571D01*
X80541428Y-109816428D02*
X80612857Y-109745000D01*
X80755714Y-109673571D01*
X81112857Y-109673571D01*
X81255714Y-109745000D01*
X81327142Y-109816428D01*
X81398571Y-109959285D01*
X81398571Y-110102142D01*
X81327142Y-110316428D01*
X80470000Y-111173571D01*
X81398571Y-111173571D01*
X82327142Y-109673571D02*
X82470000Y-109673571D01*
X82612857Y-109745000D01*
X82684285Y-109816428D01*
X82755714Y-109959285D01*
X82827142Y-110245000D01*
X82827142Y-110602142D01*
X82755714Y-110887857D01*
X82684285Y-111030714D01*
X82612857Y-111102142D01*
X82470000Y-111173571D01*
X82327142Y-111173571D01*
X82184285Y-111102142D01*
X82112857Y-111030714D01*
X82041428Y-110887857D01*
X81970000Y-110602142D01*
X81970000Y-110245000D01*
X82041428Y-109959285D01*
X82112857Y-109816428D01*
X82184285Y-109745000D01*
X82327142Y-109673571D01*
D11*
X25400000Y-114300000D02*
X25400000Y-25400000D01*
X121920000Y-114300000D02*
X25400000Y-114300000D01*
X121920000Y-25400000D02*
X121920000Y-114300000D01*
X25400000Y-25400000D02*
X121920000Y-25400000D01*
D12*
G04 #@! TO.C,C1*
X29770000Y-74311252D02*
X29770000Y-73788748D01*
X31190000Y-74311252D02*
X31190000Y-73788748D01*
D13*
G04 #@! TO.C,J1*
X28575000Y-80010000D02*
X28575000Y-81280000D01*
X28575000Y-81280000D02*
X27940000Y-81915000D01*
X26670000Y-81915000D02*
X26035000Y-81280000D01*
X27940000Y-76835000D02*
X28575000Y-77470000D01*
X28575000Y-77470000D02*
X28575000Y-78740000D01*
X28575000Y-78740000D02*
X27940000Y-79375000D01*
X26670000Y-79375000D02*
X26035000Y-78740000D01*
X26035000Y-78740000D02*
X26035000Y-77470000D01*
X26035000Y-77470000D02*
X26670000Y-76835000D01*
X28575000Y-80010000D02*
X27940000Y-79375000D01*
X26670000Y-79375000D02*
X26035000Y-80010000D01*
X26035000Y-81280000D02*
X26035000Y-80010000D01*
X28575000Y-72390000D02*
X28575000Y-73660000D01*
X28575000Y-73660000D02*
X27940000Y-74295000D01*
X26670000Y-74295000D02*
X26035000Y-73660000D01*
X27940000Y-74295000D02*
X28575000Y-74930000D01*
X28575000Y-74930000D02*
X28575000Y-76200000D01*
X28575000Y-76200000D02*
X27940000Y-76835000D01*
X26670000Y-76835000D02*
X26035000Y-76200000D01*
X26035000Y-76200000D02*
X26035000Y-74930000D01*
X26035000Y-74930000D02*
X26670000Y-74295000D01*
X27940000Y-71755000D02*
X26670000Y-71755000D01*
X28575000Y-72390000D02*
X27940000Y-71755000D01*
X26670000Y-71755000D02*
X26035000Y-72390000D01*
X26035000Y-73660000D02*
X26035000Y-72390000D01*
X27940000Y-81915000D02*
X26670000Y-81915000D01*
G04 #@! TO.C,C1*
D14*
X30837142Y-77391666D02*
X30884761Y-77439285D01*
X30932380Y-77582142D01*
X30932380Y-77677380D01*
X30884761Y-77820238D01*
X30789523Y-77915476D01*
X30694285Y-77963095D01*
X30503809Y-78010714D01*
X30360952Y-78010714D01*
X30170476Y-77963095D01*
X30075238Y-77915476D01*
X29980000Y-77820238D01*
X29932380Y-77677380D01*
X29932380Y-77582142D01*
X29980000Y-77439285D01*
X30027619Y-77391666D01*
X30932380Y-76439285D02*
X30932380Y-77010714D01*
X30932380Y-76725000D02*
X29932380Y-76725000D01*
X30075238Y-76820238D01*
X30170476Y-76915476D01*
X30218095Y-77010714D01*
G04 #@! TO.C,H1*
X27813095Y-32837380D02*
X27813095Y-31837380D01*
X27813095Y-32313571D02*
X28384523Y-32313571D01*
X28384523Y-32837380D02*
X28384523Y-31837380D01*
X29384523Y-32837380D02*
X28813095Y-32837380D01*
X29098809Y-32837380D02*
X29098809Y-31837380D01*
X29003571Y-31980238D01*
X28908333Y-32075476D01*
X28813095Y-32123095D01*
G04 #@! TO.C,H2*
X117983095Y-32837380D02*
X117983095Y-31837380D01*
X117983095Y-32313571D02*
X118554523Y-32313571D01*
X118554523Y-32837380D02*
X118554523Y-31837380D01*
X118983095Y-31932619D02*
X119030714Y-31885000D01*
X119125952Y-31837380D01*
X119364047Y-31837380D01*
X119459285Y-31885000D01*
X119506904Y-31932619D01*
X119554523Y-32027857D01*
X119554523Y-32123095D01*
X119506904Y-32265952D01*
X118935476Y-32837380D01*
X119554523Y-32837380D01*
G04 #@! TO.C,H3*
X113538095Y-111577380D02*
X113538095Y-110577380D01*
X113538095Y-111053571D02*
X114109523Y-111053571D01*
X114109523Y-111577380D02*
X114109523Y-110577380D01*
X114490476Y-110577380D02*
X115109523Y-110577380D01*
X114776190Y-110958333D01*
X114919047Y-110958333D01*
X115014285Y-111005952D01*
X115061904Y-111053571D01*
X115109523Y-111148809D01*
X115109523Y-111386904D01*
X115061904Y-111482142D01*
X115014285Y-111529761D01*
X114919047Y-111577380D01*
X114633333Y-111577380D01*
X114538095Y-111529761D01*
X114490476Y-111482142D01*
G04 #@! TO.C,H4*
X32258095Y-111577380D02*
X32258095Y-110577380D01*
X32258095Y-111053571D02*
X32829523Y-111053571D01*
X32829523Y-111577380D02*
X32829523Y-110577380D01*
X33734285Y-110910714D02*
X33734285Y-111577380D01*
X33496190Y-110529761D02*
X33258095Y-111244047D01*
X33877142Y-111244047D01*
G04 #@! TO.C,J1*
D15*
X26971171Y-71323200D02*
X27406600Y-71323200D01*
X27493685Y-71352228D01*
X27551742Y-71410285D01*
X27580771Y-71497371D01*
X27580771Y-71555428D01*
X27580771Y-70713600D02*
X27580771Y-71061942D01*
X27580771Y-70887771D02*
X26971171Y-70887771D01*
X27058257Y-70945828D01*
X27116314Y-71003885D01*
X27145342Y-71061942D01*
X27580771Y-86080600D02*
X27580771Y-86370885D01*
X26971171Y-86370885D01*
X27522714Y-85529057D02*
X27551742Y-85558085D01*
X27580771Y-85645171D01*
X27580771Y-85703228D01*
X27551742Y-85790314D01*
X27493685Y-85848371D01*
X27435628Y-85877400D01*
X27319514Y-85906428D01*
X27232428Y-85906428D01*
X27116314Y-85877400D01*
X27058257Y-85848371D01*
X27000200Y-85790314D01*
X26971171Y-85703228D01*
X26971171Y-85645171D01*
X27000200Y-85558085D01*
X27029228Y-85529057D01*
X26971171Y-84890428D02*
X26971171Y-84542085D01*
X27580771Y-84716257D02*
X26971171Y-84716257D01*
X27580771Y-84077628D02*
X27261457Y-84077628D01*
X27203400Y-84106657D01*
X27174371Y-84164714D01*
X27174371Y-84280828D01*
X27203400Y-84338885D01*
X27551742Y-84077628D02*
X27580771Y-84135685D01*
X27580771Y-84280828D01*
X27551742Y-84338885D01*
X27493685Y-84367914D01*
X27435628Y-84367914D01*
X27377571Y-84338885D01*
X27348542Y-84280828D01*
X27348542Y-84135685D01*
X27319514Y-84077628D01*
X27174371Y-83787342D02*
X27580771Y-83787342D01*
X27232428Y-83787342D02*
X27203400Y-83758314D01*
X27174371Y-83700257D01*
X27174371Y-83613171D01*
X27203400Y-83555114D01*
X27261457Y-83526085D01*
X27580771Y-83526085D01*
X27580771Y-83235800D02*
X26971171Y-83235800D01*
X27348542Y-83177742D02*
X27580771Y-83003571D01*
X27174371Y-83003571D02*
X27406600Y-83235800D01*
X27551742Y-82771342D02*
X27580771Y-82713285D01*
X27580771Y-82597171D01*
X27551742Y-82539114D01*
X27493685Y-82510085D01*
X27464657Y-82510085D01*
X27406600Y-82539114D01*
X27377571Y-82597171D01*
X27377571Y-82684257D01*
X27348542Y-82742314D01*
X27290485Y-82771342D01*
X27261457Y-82771342D01*
X27203400Y-82742314D01*
X27174371Y-82684257D01*
X27174371Y-82597171D01*
X27203400Y-82539114D01*
G04 #@! TD*
M02*
