G04 #@! TF.GenerationSoftware,KiCad,Pcbnew,(5.0.2)-1*
G04 #@! TF.CreationDate,2020-07-15T14:53:40-05:00*
G04 #@! TF.ProjectId,ProximityTankOne_Square7Turns,50726f78-696d-4697-9479-54616e6b4f6e,V1*
G04 #@! TF.SameCoordinates,Original*
G04 #@! TF.FileFunction,Copper,L2,Bot*
G04 #@! TF.FilePolarity,Positive*
%FSLAX46Y46*%
G04 Gerber Fmt 4.6, Leading zero omitted, Abs format (unit mm)*
G04 Created by KiCad (PCBNEW (5.0.2)-1) date 7/15/2020 2:53:40 PM*
%MOMM*%
%LPD*%
G01*
G04 APERTURE LIST*
G04 #@! TA.AperFunction,ComponentPad*
%ADD10C,5.200000*%
G04 #@! TD*
G04 #@! TA.AperFunction,ComponentPad*
%ADD11C,0.500000*%
G04 #@! TD*
G04 #@! TA.AperFunction,ComponentPad*
%ADD12C,1.879600*%
G04 #@! TD*
G04 #@! TA.AperFunction,ViaPad*
%ADD13C,0.685800*%
G04 #@! TD*
G04 #@! TA.AperFunction,Conductor*
%ADD14C,0.508000*%
G04 #@! TD*
G04 APERTURE END LIST*
D10*
G04 #@! TO.P,H1,1*
G04 #@! TO.N,Net-(H1-Pad1)*
X28575000Y-28575000D03*
D11*
X30607000Y-28575000D03*
X26543000Y-28575000D03*
X28575000Y-26543000D03*
X28575000Y-30607000D03*
X30099000Y-30099000D03*
X30099000Y-27051000D03*
X27051000Y-27051000D03*
X27051000Y-30099000D03*
G04 #@! TD*
D10*
G04 #@! TO.P,H2,1*
G04 #@! TO.N,Net-(H2-Pad1)*
X118745000Y-28575000D03*
D11*
X120777000Y-28575000D03*
X116713000Y-28575000D03*
X118745000Y-26543000D03*
X118745000Y-30607000D03*
X120269000Y-30099000D03*
X120269000Y-27051000D03*
X117221000Y-27051000D03*
X117221000Y-30099000D03*
G04 #@! TD*
G04 #@! TO.P,H3,1*
G04 #@! TO.N,Net-(H3-Pad1)*
X117221000Y-112649000D03*
X117221000Y-109601000D03*
X120269000Y-109601000D03*
X120269000Y-112649000D03*
X118745000Y-113157000D03*
X118745000Y-109093000D03*
X116713000Y-111125000D03*
X120777000Y-111125000D03*
D10*
X118745000Y-111125000D03*
G04 #@! TD*
D11*
G04 #@! TO.P,H4,1*
G04 #@! TO.N,Net-(H4-Pad1)*
X27051000Y-112649000D03*
X27051000Y-109601000D03*
X30099000Y-109601000D03*
X30099000Y-112649000D03*
X28575000Y-113157000D03*
X28575000Y-109093000D03*
X26543000Y-111125000D03*
X30607000Y-111125000D03*
D10*
X28575000Y-111125000D03*
G04 #@! TD*
D12*
G04 #@! TO.P,J1,1*
G04 #@! TO.N,/LC1*
X27305000Y-73025000D03*
G04 #@! TO.P,J1,2*
X27305000Y-75565000D03*
G04 #@! TO.P,J1,3*
G04 #@! TO.N,Net-(J1-Pad3)*
X27305000Y-78105000D03*
G04 #@! TO.P,J1,4*
G04 #@! TO.N,Net-(J1-Pad4)*
X27305000Y-80645000D03*
G04 #@! TD*
D13*
G04 #@! TO.N,/LC1*
X32385000Y-74930000D03*
X33655000Y-74930000D03*
X34925000Y-74930000D03*
X36195000Y-74930000D03*
X52070000Y-74930000D03*
X52070000Y-76200000D03*
X52070000Y-77470000D03*
X52070000Y-78740000D03*
G04 #@! TD*
D14*
G04 #@! TO.N,/LC1*
X32385000Y-74930000D02*
X32385000Y-74930000D01*
X36195000Y-74930000D02*
X36195000Y-74930000D01*
X32385000Y-74930000D02*
X33655000Y-74930000D01*
X33655000Y-74930000D02*
X34925000Y-74930000D01*
X34925000Y-74930000D02*
X36195000Y-74930000D01*
X52070000Y-78740000D02*
X52070000Y-74930000D01*
X52070000Y-74930000D02*
X51981109Y-74930000D01*
X52070000Y-74930000D02*
X50800000Y-74930000D01*
X36195000Y-74930000D02*
X50800000Y-74930000D01*
X50800000Y-74930000D02*
X51320699Y-74930000D01*
G04 #@! TD*
M02*
